M48
; DRILL file {KiCad 7.0.2-0} date 2023 May 09, Tuesday 19:34:03
; FORMAT={-:-/ absolute / metric / decimal}
; #@! TF.CreationDate,2023-05-09T19:34:03+07:00
; #@! TF.GenerationSoftware,Kicad,Pcbnew,7.0.2-0
; #@! TF.FileFunction,Plated,1,2,PTH
FMAT,2
METRIC
; #@! TA.AperFunction,Plated,PTH,ViaDrill
T1C0.400
; #@! TA.AperFunction,Plated,PTH,ComponentDrill
T2C0.500
; #@! TA.AperFunction,Plated,PTH,ComponentDrill
T3C0.700
; #@! TA.AperFunction,Plated,PTH,ComponentDrill
T4C0.750
; #@! TA.AperFunction,Plated,PTH,ComponentDrill
T5C0.813
; #@! TA.AperFunction,Plated,PTH,ComponentDrill
T6C0.900
; #@! TA.AperFunction,Plated,PTH,ComponentDrill
T7C1.000
; #@! TA.AperFunction,Plated,PTH,ComponentDrill
T8C1.020
; #@! TA.AperFunction,Plated,PTH,ComponentDrill
T9C1.100
; #@! TA.AperFunction,Plated,PTH,ComponentDrill
T10C1.370
; #@! TA.AperFunction,Plated,PTH,ComponentDrill
T11C3.500
%
G90
G05
T1
X56.896Y-66.548
X65.024Y-66.548
X66.548Y-45.466
X68.834Y-77.216
X69.088Y-42.672
X69.342Y-53.34
X91.186Y-69.596
X104.14Y-35.56
X107.188Y-77.216
X142.748Y-176.022
X144.526Y-59.182
X146.812Y-166.116
X149.098Y-56.642
X160.528Y-124.968
X172.72Y-27.94
X184.658Y-33.528
X197.866Y-31.75
X208.788Y-160.782
X258.064Y-168.91
X265.176Y-162.052
X283.718Y-111.506
T2
X186.726Y-21.344
X186.726Y-22.344
T3
X138.684Y-15.748
X145.796Y-15.494
X145.846Y-23.114
X148.386Y-23.114
X216.154Y-54.102
X216.154Y-55.372
X216.154Y-65.024
X216.154Y-66.294
X237.236Y-130.556
X239.776Y-130.556
X242.62Y-126.492
X245.16Y-126.492
X247.954Y-123.19
X250.494Y-123.19
X253.288Y-119.634
X255.828Y-119.634
X258.114Y-115.824
X260.654Y-115.824
X262.128Y-111.506
X264.668Y-111.506
X282.956Y-171.704
X291.084Y-171.704
X310.388Y-166.878
X312.928Y-166.878
T4
X308.61Y-179.578
X309.88Y-179.578
X311.15Y-179.578
T5
X350.012Y-78.74
X350.012Y-86.36
X352.552Y-78.74
X352.552Y-86.36
X355.092Y-78.74
X355.092Y-86.36
X357.632Y-78.74
X357.632Y-86.36
X360.172Y-78.74
X360.172Y-86.36
X362.712Y-78.74
X362.712Y-86.36
X365.252Y-78.74
X365.252Y-86.36
X367.792Y-78.74
X367.792Y-86.36
T6
X336.824Y-137.129
X336.824Y-139.669
T7
X54.146Y-42.931
X54.146Y-45.471
X54.146Y-48.011
X54.146Y-50.551
X54.146Y-53.091
X54.146Y-55.631
X54.146Y-58.171
X56.686Y-41.661
X56.686Y-44.201
X56.686Y-46.741
X56.686Y-49.281
X56.686Y-51.821
X56.686Y-54.361
X56.686Y-56.901
X56.686Y-59.441
X92.202Y-55.118
X92.322Y-43.168
X107.202Y-55.118
X107.322Y-43.168
X287.274Y-57.658
X289.814Y-57.658
X292.354Y-57.658
X294.894Y-57.658
X295.173Y-97.951
X295.173Y-100.491
X295.173Y-103.031
X295.173Y-105.571
X295.173Y-108.111
X295.173Y-110.651
X295.173Y-113.191
X295.173Y-115.731
X295.173Y-118.271
X295.173Y-120.811
X295.173Y-123.351
X295.173Y-125.891
X295.173Y-128.431
X295.173Y-130.971
X295.173Y-133.511
X295.173Y-136.051
X297.434Y-57.658
X299.974Y-57.658
X302.514Y-57.658
X305.054Y-57.658
X307.594Y-57.658
X310.134Y-57.658
X312.674Y-57.658
X315.214Y-57.658
X317.754Y-57.658
X318.012Y-97.939
X318.012Y-100.479
X318.012Y-103.019
X318.012Y-105.559
X318.012Y-108.099
X318.012Y-110.639
X318.012Y-113.179
X318.012Y-115.719
X318.012Y-118.259
X318.012Y-120.799
X318.012Y-123.339
X318.012Y-125.879
X318.012Y-128.419
X318.012Y-130.959
X318.012Y-133.499
X318.012Y-136.039
X320.294Y-57.658
X322.834Y-57.658
X325.374Y-57.658
X360.934Y-114.126
X360.934Y-116.626
X360.934Y-119.126
X395.794Y-28.658
X395.794Y-32.658
X395.794Y-39.658
X395.794Y-43.658
T8
X347.237Y-185.928
X347.237Y-188.468
X347.237Y-191.008
X347.237Y-193.548
T9
X147.066Y-64.77
X147.066Y-74.93
X147.574Y-34.29
X147.574Y-44.45
X161.29Y-64.262
X161.29Y-74.422
X162.306Y-33.782
X162.306Y-43.942
X176.022Y-64.77
X176.022Y-74.93
X178.054Y-33.782
X178.054Y-43.942
X190.246Y-64.262
X190.246Y-74.422
X191.77Y-33.782
X191.77Y-43.942
T10
X132.842Y-176.022
X133.848Y-243.939
X133.858Y-221.079
X135.392Y-176.022
X136.398Y-243.939
X136.408Y-221.079
X137.942Y-176.022
X138.948Y-243.939
X138.958Y-221.079
X168.89Y-22.86
X171.44Y-22.86
X173.99Y-22.86
X200.396Y-167.54
X202.946Y-167.54
X205.496Y-167.54
T11
X279.794Y-19.658
X279.794Y-56.658
X394.794Y-19.658
X394.794Y-56.658
T0
M30
