%TF.GenerationSoftware,KiCad,Pcbnew,7.0.2-0*%
%TF.CreationDate,2023-05-09T19:36:01+07:00*%
%TF.ProjectId,esp32 wroom,65737033-3220-4777-926f-6f6d2e6b6963,rev?*%
%TF.SameCoordinates,Original*%
%TF.FileFunction,Copper,L2,Bot*%
%TF.FilePolarity,Positive*%
%FSLAX46Y46*%
G04 Gerber Fmt 4.6, Leading zero omitted, Abs format (unit mm)*
G04 Created by KiCad (PCBNEW 7.0.2-0) date 2023-05-09 19:36:01*
%MOMM*%
%LPD*%
G01*
G04 APERTURE LIST*
G04 Aperture macros list*
%AMRoundRect*
0 Rectangle with rounded corners*
0 $1 Rounding radius*
0 $2 $3 $4 $5 $6 $7 $8 $9 X,Y pos of 4 corners*
0 Add a 4 corners polygon primitive as box body*
4,1,4,$2,$3,$4,$5,$6,$7,$8,$9,$2,$3,0*
0 Add four circle primitives for the rounded corners*
1,1,$1+$1,$2,$3*
1,1,$1+$1,$4,$5*
1,1,$1+$1,$6,$7*
1,1,$1+$1,$8,$9*
0 Add four rect primitives between the rounded corners*
20,1,$1+$1,$2,$3,$4,$5,0*
20,1,$1+$1,$4,$5,$6,$7,0*
20,1,$1+$1,$6,$7,$8,$9,0*
20,1,$1+$1,$8,$9,$2,$3,0*%
G04 Aperture macros list end*
%TA.AperFunction,ComponentPad*%
%ADD10R,1.000000X1.000000*%
%TD*%
%TA.AperFunction,ComponentPad*%
%ADD11C,1.400000*%
%TD*%
%TA.AperFunction,ComponentPad*%
%ADD12O,1.400000X1.400000*%
%TD*%
%TA.AperFunction,ComponentPad*%
%ADD13R,2.200000X2.200000*%
%TD*%
%TA.AperFunction,ComponentPad*%
%ADD14O,2.200000X2.200000*%
%TD*%
%TA.AperFunction,ComponentPad*%
%ADD15R,1.800000X1.800000*%
%TD*%
%TA.AperFunction,ComponentPad*%
%ADD16O,1.800000X1.800000*%
%TD*%
%TA.AperFunction,ComponentPad*%
%ADD17R,2.055000X2.055000*%
%TD*%
%TA.AperFunction,ComponentPad*%
%ADD18C,2.055000*%
%TD*%
%TA.AperFunction,ComponentPad*%
%ADD19R,2.000000X2.000000*%
%TD*%
%TA.AperFunction,ComponentPad*%
%ADD20O,2.000000X2.000000*%
%TD*%
%TA.AperFunction,ComponentPad*%
%ADD21O,1.320800X2.641600*%
%TD*%
%TA.AperFunction,ComponentPad*%
%ADD22C,1.700000*%
%TD*%
%TA.AperFunction,ComponentPad*%
%ADD23R,1.050000X1.500000*%
%TD*%
%TA.AperFunction,ComponentPad*%
%ADD24O,1.050000X1.500000*%
%TD*%
%TA.AperFunction,ComponentPad*%
%ADD25RoundRect,0.450000X-0.450000X-0.450000X0.450000X-0.450000X0.450000X0.450000X-0.450000X0.450000X0*%
%TD*%
%TA.AperFunction,ComponentPad*%
%ADD26C,1.800000*%
%TD*%
%TA.AperFunction,ComponentPad*%
%ADD27R,0.850000X0.850000*%
%TD*%
%TA.AperFunction,ComponentPad*%
%ADD28O,0.850000X0.850000*%
%TD*%
%TA.AperFunction,ComponentPad*%
%ADD29C,6.500000*%
%TD*%
%TA.AperFunction,ComponentPad*%
%ADD30R,1.500000X3.000000*%
%TD*%
%TA.AperFunction,ComponentPad*%
%ADD31O,1.500000X3.000000*%
%TD*%
%TA.AperFunction,ComponentPad*%
%ADD32C,1.530000*%
%TD*%
%TA.AperFunction,ComponentPad*%
%ADD33O,1.000000X1.000000*%
%TD*%
%TA.AperFunction,ViaPad*%
%ADD34C,0.800000*%
%TD*%
%TA.AperFunction,Conductor*%
%ADD35C,0.250000*%
%TD*%
G04 APERTURE END LIST*
D10*
%TO.P,.2,1,Pin_1*%
%TO.N,5v*%
X138684000Y-15748000D03*
%TD*%
D11*
%TO.P,R4,1*%
%TO.N,/D14*%
X247954000Y-123190000D03*
D12*
%TO.P,R4,2*%
%TO.N,Net-(U6-IN3)*%
X250494000Y-123190000D03*
%TD*%
D13*
%TO.P,D6,1,K*%
%TO.N,Net-(D12-A)*%
X178054000Y-33782000D03*
D14*
%TO.P,D6,2,A*%
%TO.N,Earth*%
X178054000Y-43942000D03*
%TD*%
D15*
%TO.P,U6,1,SENSE_A*%
%TO.N,Earth*%
X56686000Y-59441000D03*
D16*
%TO.P,U6,2,OUT1*%
%TO.N,Net-(D3-K)*%
X54146000Y-58171000D03*
%TO.P,U6,3,OUT2*%
%TO.N,Net-(D10-A)*%
X56686000Y-56901000D03*
%TO.P,U6,4,Vs*%
%TO.N,/12v_wheel*%
X54146000Y-55631000D03*
%TO.P,U6,5,IN1*%
%TO.N,Net-(U6-IN1)*%
X56686000Y-54361000D03*
%TO.P,U6,6,EnA*%
%TO.N,Net-(U6-EnA)*%
X54146000Y-53091000D03*
%TO.P,U6,7,IN2*%
%TO.N,Net-(U6-IN2)*%
X56686000Y-51821000D03*
%TO.P,U6,8,GND*%
%TO.N,Earth*%
X54146000Y-50551000D03*
%TO.P,U6,9,Vss*%
%TO.N,5v*%
X56686000Y-49281000D03*
%TO.P,U6,10,IN3*%
%TO.N,Net-(U6-IN3)*%
X54146000Y-48011000D03*
%TO.P,U6,11,EnB*%
%TO.N,Net-(U6-EnB)*%
X56686000Y-46741000D03*
%TO.P,U6,12,IN4*%
%TO.N,Net-(U6-IN4)*%
X54146000Y-45471000D03*
%TO.P,U6,13,OUT3*%
%TO.N,Net-(D11-A)*%
X56686000Y-44201000D03*
%TO.P,U6,14,OUT4*%
%TO.N,Net-(D12-A)*%
X54146000Y-42931000D03*
%TO.P,U6,15,SENSE_B*%
%TO.N,Earth*%
X56686000Y-41661000D03*
%TD*%
D17*
%TO.P,VR2,1,INPUT*%
%TO.N,Net-(BT1-+)*%
X133858000Y-221079500D03*
D18*
%TO.P,VR2,2,GROUND*%
%TO.N,GND*%
X136408000Y-221079500D03*
%TO.P,VR2,3,OUTPUT*%
%TO.N,/5v_control*%
X138958000Y-221079500D03*
%TD*%
D19*
%TO.P,C2,1*%
%TO.N,5v*%
X92322000Y-43168500D03*
D20*
%TO.P,C2,2*%
%TO.N,Earth*%
X107322000Y-43168500D03*
%TD*%
D17*
%TO.P,VR1,1,INPUT*%
%TO.N,Net-(J6-Pin_2)*%
X168890000Y-22860000D03*
D18*
%TO.P,VR1,2,GROUND*%
%TO.N,Earth*%
X171440000Y-22860000D03*
%TO.P,VR1,3,OUTPUT*%
%TO.N,5v*%
X173990000Y-22860000D03*
%TD*%
D21*
%TO.P,U2,1,A0*%
%TO.N,unconnected-(U2-A0-Pad1)*%
X367792000Y-78740000D03*
%TO.P,U2,2,A1*%
%TO.N,unconnected-(U2-A1-Pad2)*%
X365252000Y-78740000D03*
%TO.P,U2,3,A2*%
%TO.N,unconnected-(U2-A2-Pad3)*%
X362712000Y-78740000D03*
%TO.P,U2,4,P0*%
%TO.N,Net-(U1-RS)*%
X360172000Y-78740000D03*
%TO.P,U2,5,P1*%
%TO.N,Net-(U1-R{slash}~{W})*%
X357632000Y-78740000D03*
%TO.P,U2,6,P2*%
%TO.N,Net-(U1-E)*%
X355092000Y-78740000D03*
%TO.P,U2,7,P3*%
%TO.N,unconnected-(U2-P3-Pad7)*%
X352552000Y-78740000D03*
%TO.P,U2,8,VSS*%
%TO.N,GND*%
X350012000Y-78740000D03*
%TO.P,U2,9,P4*%
%TO.N,Net-(U1-DB4)*%
X350012000Y-86360000D03*
%TO.P,U2,10,P5*%
%TO.N,Net-(U1-DB5)*%
X352552000Y-86360000D03*
%TO.P,U2,11,P6*%
%TO.N,Net-(U1-DB6)*%
X355092000Y-86360000D03*
%TO.P,U2,12,P7*%
%TO.N,Net-(U1-DB7)*%
X357632000Y-86360000D03*
%TO.P,U2,13,~{INT}*%
%TO.N,unconnected-(U2-~{INT}-Pad13)*%
X360172000Y-86360000D03*
%TO.P,U2,14,SCL*%
%TO.N,/D22*%
X362712000Y-86360000D03*
%TO.P,U2,15,SDA*%
%TO.N,/D21*%
X365252000Y-86360000D03*
%TO.P,U2,16,VDD*%
%TO.N,/5v_lcd*%
X367792000Y-86360000D03*
%TD*%
D13*
%TO.P,D3,1,K*%
%TO.N,Net-(D3-K)*%
X147066000Y-74930000D03*
D14*
%TO.P,D3,2,A*%
%TO.N,Earth*%
X147066000Y-64770000D03*
%TD*%
D10*
%TO.P,J2,1,Pin_1*%
%TO.N,/dust motor*%
X282956000Y-171704000D03*
%TD*%
D22*
%TO.P,U3,1,EN*%
%TO.N,unconnected-(U3-EN-Pad1)*%
X295173201Y-97951150D03*
%TO.P,U3,2,GPIO36*%
%TO.N,unconnected-(U3-GPIO36-Pad2)*%
X295173201Y-100491150D03*
%TO.P,U3,3,GPIO39*%
%TO.N,unconnected-(U3-GPIO39-Pad3)*%
X295173201Y-103031150D03*
%TO.P,U3,4,GPIO34*%
%TO.N,/D34*%
X295173201Y-105571150D03*
%TO.P,U3,5,GPIO35*%
%TO.N,/D35*%
X295173201Y-108111150D03*
%TO.P,U3,6,GPIO32*%
%TO.N,/D32*%
X295173201Y-110651150D03*
%TO.P,U3,7,GPIO33*%
%TO.N,/D33*%
X295173201Y-113191150D03*
%TO.P,U3,8,GPIO25*%
%TO.N,unconnected-(U3-GPIO25-Pad8)*%
X295173201Y-115731150D03*
%TO.P,U3,9,GPIO26*%
%TO.N,/D26*%
X295173201Y-118271150D03*
%TO.P,U3,10,GPIO27*%
%TO.N,/D27*%
X295173201Y-120811150D03*
%TO.P,U3,11,GPIO14*%
%TO.N,/D14*%
X295173201Y-123351150D03*
%TO.P,U3,12,GPIO12*%
%TO.N,/D12*%
X295173201Y-125891150D03*
%TO.P,U3,13,GPIO13*%
%TO.N,/D25*%
X295173201Y-128431150D03*
%TO.P,U3,14,VIN*%
%TO.N,/5v_control*%
X295173201Y-130971150D03*
%TO.P,U3,15,5V*%
%TO.N,5v*%
X295173201Y-133511150D03*
%TO.P,U3,16,GND*%
%TO.N,GND*%
X295173201Y-136051150D03*
%TO.P,U3,17,GPIO23*%
%TO.N,unconnected-(U3-GPIO23-Pad17)*%
X318011601Y-97939050D03*
%TO.P,U3,18,GPIO22*%
%TO.N,/D22*%
X318011601Y-100479050D03*
%TO.P,U3,19,TX0*%
%TO.N,unconnected-(U3-TX0-Pad19)*%
X318011601Y-103019050D03*
%TO.P,U3,20,RX0*%
%TO.N,unconnected-(U3-RX0-Pad20)*%
X318011601Y-105559050D03*
%TO.P,U3,21,GPIO21*%
%TO.N,/D21*%
X318011601Y-108099050D03*
%TO.P,U3,22,GPIO19*%
%TO.N,/D19*%
X318011601Y-110639050D03*
%TO.P,U3,23,GPIO18*%
%TO.N,/D18*%
X318011601Y-113179050D03*
%TO.P,U3,24,GPIO5*%
%TO.N,unconnected-(U3-GPIO5-Pad24)*%
X318011601Y-115719050D03*
%TO.P,U3,25,GPIO17*%
%TO.N,tx2*%
X318011601Y-118259050D03*
%TO.P,U3,26,GPIO16*%
%TO.N,rx2*%
X318011601Y-120799050D03*
%TO.P,U3,27,GPIO4*%
%TO.N,unconnected-(U3-GPIO4-Pad27)*%
X318011601Y-123339050D03*
%TO.P,U3,28,GPIO0*%
%TO.N,unconnected-(U3-GPIO0-Pad28)*%
X318011601Y-125879050D03*
%TO.P,U3,29,GPIO2*%
%TO.N,unconnected-(U3-GPIO2-Pad29)*%
X318011601Y-128419050D03*
%TO.P,U3,30,GPIO15*%
%TO.N,unconnected-(U3-GPIO15-Pad30)*%
X318011601Y-130959050D03*
%TO.P,U3,31,3V3*%
%TO.N,/3v3*%
X318011601Y-133499050D03*
%TO.P,U3,32,GND*%
%TO.N,/GND_1*%
X318011601Y-136039050D03*
%TD*%
D23*
%TO.P,Q1,1,C*%
%TO.N,Net-(J1-Pin_1)*%
X308610000Y-179578000D03*
D24*
%TO.P,Q1,2,B*%
%TO.N,Net-(Q1-B)*%
X309880000Y-179578000D03*
%TO.P,Q1,3,E*%
%TO.N,GND*%
X311150000Y-179578000D03*
%TD*%
D25*
%TO.P,RV1,1,1*%
%TO.N,/3v3*%
X360934000Y-119126000D03*
D26*
%TO.P,RV1,2,2*%
%TO.N,/D34*%
X360934000Y-116626000D03*
%TO.P,RV1,3,3*%
%TO.N,/GND_1*%
X360934000Y-114126000D03*
%TD*%
D13*
%TO.P,D5,1,K*%
%TO.N,Net-(D11-A)*%
X162306000Y-33782000D03*
D14*
%TO.P,D5,2,A*%
%TO.N,Earth*%
X162306000Y-43942000D03*
%TD*%
D11*
%TO.P,R7,1*%
%TO.N,/D25*%
X237236000Y-130556000D03*
D12*
%TO.P,R7,2*%
%TO.N,Net-(U6-EnB)*%
X239776000Y-130556000D03*
%TD*%
D13*
%TO.P,D4,1,K*%
%TO.N,Net-(D10-A)*%
X147574000Y-34290000D03*
D14*
%TO.P,D4,2,A*%
%TO.N,Earth*%
X147574000Y-44450000D03*
%TD*%
D13*
%TO.P,D9,1,K*%
%TO.N,/12v_wheel*%
X161290000Y-64262000D03*
D14*
%TO.P,D9,2,A*%
%TO.N,Net-(D3-K)*%
X161290000Y-74422000D03*
%TD*%
D27*
%TO.P,J6,1,Pin_1*%
%TO.N,/12v_wheel*%
X186726000Y-21344000D03*
D28*
%TO.P,J6,2,Pin_2*%
%TO.N,Net-(J6-Pin_2)*%
X186726000Y-22344000D03*
%TD*%
D11*
%TO.P,R5,1*%
%TO.N,/D27*%
X253288000Y-119634000D03*
D12*
%TO.P,R5,2*%
%TO.N,Net-(U6-IN2)*%
X255828000Y-119634000D03*
%TD*%
D17*
%TO.P,VR4,1,INPUT*%
%TO.N,Net-(BT1-+)*%
X200396000Y-167540500D03*
D18*
%TO.P,VR4,2,GROUND*%
%TO.N,GND*%
X202946000Y-167540500D03*
%TO.P,VR4,3,OUTPUT*%
%TO.N,/dust motor*%
X205496000Y-167540500D03*
%TD*%
D11*
%TO.P,R2,1*%
%TO.N,5v*%
X145846000Y-23114000D03*
D12*
%TO.P,R2,2*%
%TO.N,Net-(D7-A)*%
X148386000Y-23114000D03*
%TD*%
D29*
%TO.P,U1,*%
%TO.N,*%
X394794000Y-56658000D03*
X394794000Y-19658000D03*
X279794000Y-56658000D03*
X279794000Y-19658000D03*
D30*
%TO.P,U1,1,VSS*%
%TO.N,unconnected-(U1-VSS-Pad1)*%
X320294000Y-57658000D03*
D31*
%TO.P,U1,2,VDD*%
%TO.N,unconnected-(U1-VDD-Pad2)*%
X317754000Y-57658000D03*
%TO.P,U1,3,VO*%
%TO.N,unconnected-(U1-VO-Pad3)*%
X315214000Y-57658000D03*
%TO.P,U1,4,RS*%
%TO.N,Net-(U1-RS)*%
X312674000Y-57658000D03*
%TO.P,U1,5,R/~{W}*%
%TO.N,Net-(U1-R{slash}~{W})*%
X310134000Y-57658000D03*
%TO.P,U1,6,E*%
%TO.N,Net-(U1-E)*%
X307594000Y-57658000D03*
%TO.P,U1,7,DB0*%
%TO.N,unconnected-(U1-DB0-Pad7)*%
X305054000Y-57658000D03*
%TO.P,U1,8,DB1*%
%TO.N,unconnected-(U1-DB1-Pad8)*%
X302514000Y-57658000D03*
%TO.P,U1,9,DB2*%
%TO.N,unconnected-(U1-DB2-Pad9)*%
X299974000Y-57658000D03*
%TO.P,U1,10,DB3*%
%TO.N,unconnected-(U1-DB3-Pad10)*%
X297434000Y-57658000D03*
%TO.P,U1,11,DB4*%
%TO.N,Net-(U1-DB4)*%
X294894000Y-57658000D03*
%TO.P,U1,12,DB5*%
%TO.N,Net-(U1-DB5)*%
X292354000Y-57658000D03*
%TO.P,U1,13,DB6*%
%TO.N,Net-(U1-DB6)*%
X289814000Y-57658000D03*
%TO.P,U1,14,DB7*%
%TO.N,Net-(U1-DB7)*%
X287274000Y-57658000D03*
%TO.P,U1,15,A/VEE*%
%TO.N,unconnected-(U1-A{slash}VEE-Pad15)*%
X322834000Y-57658000D03*
%TO.P,U1,16,K*%
%TO.N,unconnected-(U1-K-Pad16)*%
X325374000Y-57658000D03*
D19*
%TO.P,U1,A1,A1*%
%TO.N,unconnected-(U1-PadA1)*%
X395794000Y-43658000D03*
%TO.P,U1,A2,A2*%
%TO.N,unconnected-(U1-PadA2)*%
X395794000Y-32658000D03*
%TO.P,U1,K1,K1*%
%TO.N,unconnected-(U1-PadK1)*%
X395794000Y-39658000D03*
%TO.P,U1,K2,K2*%
%TO.N,unconnected-(U1-PadK2)*%
X395794000Y-28658000D03*
%TD*%
D32*
%TO.P,U4,1,VCC*%
%TO.N,/3v3*%
X347237000Y-193548000D03*
%TO.P,U4,2,TRIG*%
%TO.N,/D32*%
X347237000Y-191008000D03*
%TO.P,U4,3,ECHO*%
%TO.N,/D35*%
X347237000Y-188468000D03*
%TO.P,U4,4,GND*%
%TO.N,/GND_1*%
X347237000Y-185928000D03*
%TD*%
D11*
%TO.P,R8,1*%
%TO.N,Net-(U6-EnA)*%
X262128000Y-111506000D03*
D12*
%TO.P,R8,2*%
%TO.N,/D33*%
X264668000Y-111506000D03*
%TD*%
D13*
%TO.P,D12,1,K*%
%TO.N,/12v_wheel*%
X176022000Y-74930000D03*
D14*
%TO.P,D12,2,A*%
%TO.N,Net-(D12-A)*%
X176022000Y-64770000D03*
%TD*%
D17*
%TO.P,U5,1,IN*%
%TO.N,Net-(BT1-+)*%
X132842000Y-176022000D03*
D18*
%TO.P,U5,2,GND*%
%TO.N,GND*%
X135392000Y-176022000D03*
%TO.P,U5,3,OUT*%
%TO.N,/12v_wheel*%
X137942000Y-176022000D03*
%TD*%
D13*
%TO.P,D10,1,K*%
%TO.N,/12v_wheel*%
X191770000Y-43942000D03*
D14*
%TO.P,D10,2,A*%
%TO.N,Net-(D10-A)*%
X191770000Y-33782000D03*
%TD*%
D13*
%TO.P,D11,1,K*%
%TO.N,/12v_wheel*%
X190246000Y-74422000D03*
D14*
%TO.P,D11,2,A*%
%TO.N,Net-(D11-A)*%
X190246000Y-64262000D03*
%TD*%
D11*
%TO.P,R1,1*%
%TO.N,Net-(Q1-B)*%
X310388000Y-166878000D03*
D12*
%TO.P,R1,2*%
%TO.N,/D18*%
X312928000Y-166878000D03*
%TD*%
D17*
%TO.P,VR3,1,INPUT*%
%TO.N,Net-(BT1-+)*%
X133848000Y-243939500D03*
D18*
%TO.P,VR3,2,GROUND*%
%TO.N,GND*%
X136398000Y-243939500D03*
%TO.P,VR3,3,OUTPUT*%
%TO.N,/5v_lcd*%
X138948000Y-243939500D03*
%TD*%
D19*
%TO.P,C1,1*%
%TO.N,/12v_wheel*%
X92202000Y-55118000D03*
D20*
%TO.P,C1,2*%
%TO.N,Earth*%
X107202000Y-55118000D03*
%TD*%
D10*
%TO.P,.1,1,Pin_1*%
%TO.N,5v*%
X145796000Y-15494000D03*
%TD*%
%TO.P,J1,1,Pin_1*%
%TO.N,Net-(J1-Pin_1)*%
X291084000Y-171704000D03*
%TD*%
D11*
%TO.P,R6,1*%
%TO.N,/D26*%
X258114000Y-115824000D03*
D12*
%TO.P,R6,2*%
%TO.N,Net-(U6-IN1)*%
X260654000Y-115824000D03*
%TD*%
D10*
%TO.P,J3,1,Pin_1*%
%TO.N,Net-(D3-K)*%
X216154000Y-65024000D03*
D33*
%TO.P,J3,2,Pin_2*%
%TO.N,Net-(D10-A)*%
X216154000Y-66294000D03*
%TD*%
D11*
%TO.P,R3,1*%
%TO.N,/D12*%
X242620000Y-126492000D03*
D12*
%TO.P,R3,2*%
%TO.N,Net-(U6-IN4)*%
X245160000Y-126492000D03*
%TD*%
D10*
%TO.P,J4,1,Pin_1*%
%TO.N,Net-(D11-A)*%
X216154000Y-55372000D03*
D33*
%TO.P,J4,2,Pin_2*%
%TO.N,Net-(D12-A)*%
X216154000Y-54102000D03*
%TD*%
D15*
%TO.P,D1,1,K*%
%TO.N,/GND_1*%
X336824000Y-139669000D03*
D26*
%TO.P,D1,2,A*%
%TO.N,/D19*%
X336824000Y-137129000D03*
%TD*%
D34*
%TO.N,5v*%
X69088000Y-42672000D03*
%TO.N,/12v_wheel*%
X142748000Y-176022000D03*
X160528000Y-124968000D03*
X146812000Y-166116000D03*
X149098000Y-56642000D03*
X144526000Y-59182000D03*
X184658000Y-33528000D03*
%TO.N,Earth*%
X104140000Y-35560000D03*
%TO.N,GND*%
X208788000Y-160782000D03*
%TO.N,Net-(D3-K)*%
X107188000Y-77216000D03*
X68834000Y-77216000D03*
%TO.N,Net-(D10-A)*%
X197866000Y-31750000D03*
%TO.N,Net-(D12-A)*%
X66548000Y-45466000D03*
%TO.N,Net-(J6-Pin_2)*%
X172720000Y-27940000D03*
%TO.N,/D33*%
X283718000Y-111506000D03*
%TO.N,/5v_control*%
X265176000Y-162052000D03*
X258064000Y-168910000D03*
%TO.N,Net-(U6-IN4)*%
X65024000Y-66548000D03*
X56896000Y-66548000D03*
%TO.N,Net-(U6-IN2)*%
X69342000Y-53340000D03*
%TO.N,Net-(U6-EnA)*%
X91186000Y-69596000D03*
%TD*%
D35*
%TO.N,Net-(BT1-+)*%
X133848000Y-243939500D02*
X133848000Y-221089500D01*
X141323500Y-167540500D02*
X132842000Y-176022000D01*
X133858000Y-177038000D02*
X132842000Y-176022000D01*
X133848000Y-221089500D02*
X133858000Y-221079500D01*
X200396000Y-167540500D02*
X141323500Y-167540500D01*
X133858000Y-221079500D02*
X133858000Y-177038000D01*
%TO.N,5v*%
X291150150Y-116906150D02*
X188722000Y-14478000D01*
X172637500Y-21507500D02*
X173990000Y-22860000D01*
X92322000Y-43168500D02*
X69584500Y-43168500D01*
X69584500Y-43168500D02*
X69088000Y-42672000D01*
X138684000Y-15748000D02*
X145542000Y-15748000D01*
X145846000Y-15544000D02*
X145796000Y-15494000D01*
X296418000Y-132266351D02*
X296418000Y-117664248D01*
X138684000Y-15748000D02*
X119742500Y-15748000D01*
X182372000Y-14478000D02*
X173990000Y-22860000D01*
X188722000Y-14478000D02*
X182372000Y-14478000D01*
X145542000Y-15748000D02*
X145796000Y-15494000D01*
X145846000Y-23114000D02*
X147452500Y-21507500D01*
X145846000Y-23114000D02*
X145846000Y-15544000D01*
X296418000Y-117664248D02*
X295659902Y-116906150D01*
X295173201Y-133511150D02*
X296418000Y-132266351D01*
X119742500Y-15748000D02*
X92322000Y-43168500D01*
X147452500Y-21507500D02*
X172637500Y-21507500D01*
X295659902Y-116906150D02*
X291150150Y-116906150D01*
%TO.N,/D19*%
X336824000Y-137129000D02*
X336824000Y-129451449D01*
X336824000Y-129451449D02*
X318011601Y-110639050D01*
%TO.N,Net-(U1-RS)*%
X312674000Y-57658000D02*
X326898000Y-71882000D01*
X326898000Y-71882000D02*
X353314000Y-71882000D01*
X353314000Y-71882000D02*
X360172000Y-78740000D01*
%TO.N,Net-(U1-R{slash}~{W})*%
X357632000Y-78740000D02*
X352298000Y-73406000D01*
X310388000Y-57658000D02*
X310134000Y-57658000D01*
X326136000Y-73406000D02*
X310388000Y-57658000D01*
X352298000Y-73406000D02*
X326136000Y-73406000D01*
%TO.N,Net-(U1-E)*%
X324104000Y-74930000D02*
X307594000Y-58420000D01*
X351532000Y-74930000D02*
X355092000Y-78490000D01*
X307594000Y-58420000D02*
X307594000Y-57658000D01*
X355092000Y-78490000D02*
X355092000Y-78740000D01*
X324104000Y-74930000D02*
X351532000Y-74930000D01*
%TO.N,Net-(U1-DB4)*%
X350012000Y-86360000D02*
X323596000Y-86360000D01*
X323596000Y-86360000D02*
X294894000Y-57658000D01*
%TO.N,Net-(U1-DB5)*%
X350906200Y-88005800D02*
X322955800Y-88005800D01*
X322326000Y-87360280D02*
X292623720Y-57658000D01*
X322955800Y-88005800D02*
X322326000Y-87376000D01*
X352552000Y-86360000D02*
X350906200Y-88005800D01*
X322326000Y-87376000D02*
X322326000Y-87360280D01*
X292623720Y-57658000D02*
X292354000Y-57658000D01*
%TO.N,Net-(U1-DB6)*%
X355092000Y-86360000D02*
X352044000Y-89408000D01*
X290068000Y-57658000D02*
X289814000Y-57658000D01*
X321818000Y-89408000D02*
X290068000Y-57658000D01*
X352044000Y-89408000D02*
X321818000Y-89408000D01*
%TO.N,Net-(U1-DB7)*%
X353822000Y-90170000D02*
X320040000Y-90170000D01*
X320040000Y-90170000D02*
X287528000Y-57658000D01*
X287528000Y-57658000D02*
X287274000Y-57658000D01*
X357632000Y-86360000D02*
X353822000Y-90170000D01*
%TO.N,/D22*%
X348592950Y-100479050D02*
X318011601Y-100479050D01*
X362712000Y-86360000D02*
X348592950Y-100479050D01*
%TO.N,/D21*%
X365252000Y-86360000D02*
X343512950Y-108099050D01*
X343512950Y-108099050D02*
X318011601Y-108099050D01*
%TO.N,/3v3*%
X319186601Y-134674050D02*
X318011601Y-133499050D01*
X347237000Y-193548000D02*
X348327000Y-192458000D01*
X322956551Y-138444000D02*
X318011601Y-133499050D01*
X348327000Y-192458000D02*
X348327000Y-187656507D01*
X347688493Y-187018000D02*
X346785507Y-187018000D01*
X319186601Y-159419094D02*
X319186601Y-134674050D01*
X360934000Y-119126000D02*
X341616000Y-138444000D01*
X348327000Y-187656507D02*
X347688493Y-187018000D01*
X346785507Y-187018000D02*
X319186601Y-159419094D01*
X341616000Y-138444000D02*
X322956551Y-138444000D01*
%TO.N,/12v_wheel*%
X96774000Y-59690000D02*
X92202000Y-55118000D01*
X137942000Y-176022000D02*
X142748000Y-176022000D01*
X146812000Y-166116000D02*
X146812000Y-138430000D01*
X140716000Y-59436000D02*
X140970000Y-59182000D01*
X156718000Y-64262000D02*
X149098000Y-56642000D01*
X171450000Y-64262000D02*
X191770000Y-43942000D01*
X140716000Y-59690000D02*
X96774000Y-59690000D01*
X191770000Y-43942000D02*
X189738000Y-43942000D01*
X142748000Y-176022000D02*
X142494000Y-176022000D01*
X160528000Y-124968000D02*
X160274000Y-124968000D01*
X140970000Y-59182000D02*
X144526000Y-59182000D01*
X161290000Y-64262000D02*
X171450000Y-64262000D01*
X189738000Y-43942000D02*
X184912000Y-39116000D01*
X184912000Y-33782000D02*
X184658000Y-33528000D01*
X161290000Y-64262000D02*
X156718000Y-64262000D01*
X140716000Y-59690000D02*
X140716000Y-59436000D01*
X184912000Y-39116000D02*
X184912000Y-33782000D01*
X146812000Y-138430000D02*
X160528000Y-124968000D01*
%TO.N,Earth*%
X148082000Y-43942000D02*
X147574000Y-44450000D01*
X147066000Y-44958000D02*
X147574000Y-44450000D01*
X162306000Y-43942000D02*
X178054000Y-43942000D01*
X107322000Y-43168500D02*
X107322000Y-38742000D01*
X171440000Y-22860000D02*
X171440000Y-37328000D01*
X146292500Y-43168500D02*
X147574000Y-44450000D01*
X147066000Y-64770000D02*
X147066000Y-44958000D01*
X171440000Y-37328000D02*
X178054000Y-43942000D01*
X162306000Y-43942000D02*
X148082000Y-43942000D01*
X104140000Y-35560000D02*
X104394000Y-35814000D01*
X107322000Y-43168500D02*
X146292500Y-43168500D01*
X107322000Y-38742000D02*
X104140000Y-35560000D01*
%TO.N,/GND_1*%
X336824000Y-139669000D02*
X336824000Y-175515000D01*
X342387016Y-139669000D02*
X336824000Y-139669000D01*
X360934000Y-114126000D02*
X362159000Y-115351000D01*
X336824000Y-175515000D02*
X347237000Y-185928000D01*
X362159000Y-119897016D02*
X342387016Y-139669000D01*
X362159000Y-115351000D02*
X362159000Y-119897016D01*
%TO.N,/dust motor*%
X278792500Y-167540500D02*
X282956000Y-171704000D01*
X205496000Y-167540500D02*
X278792500Y-167540500D01*
%TO.N,/5v_lcd*%
X298386993Y-243939500D02*
X138948000Y-243939500D01*
X367792000Y-174534493D02*
X298386993Y-243939500D01*
X367792000Y-86360000D02*
X367792000Y-174534493D01*
%TO.N,GND*%
X212344000Y-162777000D02*
X268447351Y-162777000D01*
X135392000Y-176022000D02*
X135392000Y-220063500D01*
X209550000Y-162777000D02*
X212344000Y-162777000D01*
X313953000Y-176775000D02*
X311150000Y-179578000D01*
X208788000Y-160782000D02*
X208788000Y-162015000D01*
X295173201Y-136051150D02*
X313953000Y-154830949D01*
X195924302Y-174562198D02*
X136851802Y-174562198D01*
X286199000Y-103338650D02*
X286199000Y-56462720D01*
X296868000Y-112982345D02*
X295711805Y-111826150D01*
X295711805Y-111826150D02*
X294686500Y-111826150D01*
X202946000Y-167540500D02*
X207709500Y-162777000D01*
X298509000Y-58479000D02*
X318770000Y-78740000D01*
X318770000Y-78740000D02*
X350012000Y-78740000D01*
X298509000Y-56462720D02*
X298509000Y-58479000D01*
X136851802Y-174562198D02*
X135392000Y-176022000D01*
X294686500Y-111826150D02*
X286199000Y-103338650D01*
X313953000Y-154830949D02*
X313953000Y-176775000D01*
X297879280Y-55833000D02*
X298509000Y-56462720D01*
X268447351Y-162777000D02*
X295173201Y-136051150D01*
X295173201Y-136051150D02*
X296868000Y-134356351D01*
X207709500Y-162777000D02*
X209550000Y-162777000D01*
X286828720Y-55833000D02*
X297879280Y-55833000D01*
X202946000Y-167540500D02*
X195924302Y-174562198D01*
X136398000Y-243939500D02*
X136398000Y-221089500D01*
X208788000Y-162015000D02*
X209550000Y-162777000D01*
X296868000Y-134356351D02*
X296868000Y-112982345D01*
X286199000Y-56462720D02*
X286828720Y-55833000D01*
X136398000Y-221089500D02*
X136408000Y-221079500D01*
X135392000Y-220063500D02*
X136408000Y-221079500D01*
%TO.N,Net-(D3-K)*%
X157480000Y-87376000D02*
X147066000Y-76962000D01*
X54146000Y-62020000D02*
X59944000Y-67818000D01*
X109474000Y-74930000D02*
X147066000Y-74930000D01*
X174244000Y-87376000D02*
X161290000Y-74422000D01*
X216154000Y-65024000D02*
X193802000Y-87376000D01*
X68834000Y-77216000D02*
X59944000Y-68326000D01*
X193802000Y-87376000D02*
X174244000Y-87376000D01*
X59944000Y-68326000D02*
X59944000Y-67818000D01*
X107188000Y-77216000D02*
X109474000Y-74930000D01*
X54146000Y-58171000D02*
X54146000Y-62020000D01*
X147066000Y-76962000D02*
X147066000Y-74930000D01*
X174244000Y-87376000D02*
X157480000Y-87376000D01*
%TO.N,Net-(D10-A)*%
X224790000Y-58365106D02*
X224790000Y-56134000D01*
X197924000Y-31808000D02*
X197866000Y-31750000D01*
X216154000Y-66294000D02*
X216861106Y-66294000D01*
X224790000Y-56134000D02*
X200464000Y-31808000D01*
X216861106Y-66294000D02*
X224790000Y-58365106D01*
X200464000Y-31808000D02*
X197924000Y-31808000D01*
%TO.N,Net-(D11-A)*%
X112232500Y-25908000D02*
X93647000Y-44493500D01*
X207264000Y-64262000D02*
X216154000Y-55372000D01*
X190246000Y-64262000D02*
X207264000Y-64262000D01*
X154432000Y-25908000D02*
X112232500Y-25908000D01*
X93647000Y-44493500D02*
X56978500Y-44493500D01*
X56978500Y-44493500D02*
X56686000Y-44201000D01*
X162306000Y-33782000D02*
X154432000Y-25908000D01*
%TO.N,Net-(D12-A)*%
X216154000Y-54102000D02*
X200053000Y-54102000D01*
X176022000Y-64770000D02*
X174597000Y-66195000D01*
X66802000Y-45466000D02*
X66548000Y-45466000D01*
X193195000Y-33191745D02*
X192261255Y-32258000D01*
X192261255Y-32258000D02*
X179578000Y-32258000D01*
X179578000Y-32258000D02*
X178054000Y-33782000D01*
X174597000Y-66195000D02*
X87531000Y-66195000D01*
X200053000Y-54102000D02*
X193195000Y-47244000D01*
X193195000Y-47244000D02*
X193195000Y-33191745D01*
X193195000Y-47597000D02*
X193195000Y-47244000D01*
X87531000Y-66195000D02*
X66802000Y-45466000D01*
X176022000Y-64770000D02*
X193195000Y-47597000D01*
%TO.N,Net-(J1-Pin_1)*%
X300736000Y-171704000D02*
X308610000Y-179578000D01*
X291084000Y-171704000D02*
X300736000Y-171704000D01*
%TO.N,Net-(J6-Pin_2)*%
X179332000Y-22344000D02*
X173736000Y-27940000D01*
X186726000Y-22344000D02*
X179332000Y-22344000D01*
X173736000Y-27940000D02*
X172720000Y-27940000D01*
%TO.N,Net-(Q1-B)*%
X310388000Y-166878000D02*
X309880000Y-167386000D01*
X309880000Y-167386000D02*
X309880000Y-179578000D01*
%TO.N,/D34*%
X299066101Y-109464050D02*
X295173201Y-105571150D01*
X360934000Y-116626000D02*
X353772050Y-109464050D01*
X353772050Y-109464050D02*
X299066101Y-109464050D01*
%TO.N,/D35*%
X316230000Y-129167949D02*
X295173201Y-108111150D01*
X347237000Y-188468000D02*
X316230000Y-157461000D01*
X316230000Y-157461000D02*
X316230000Y-129167949D01*
%TO.N,/D32*%
X314960000Y-158731000D02*
X314960000Y-130437949D01*
X347237000Y-191008000D02*
X314960000Y-158731000D01*
X314960000Y-130437949D02*
X295173201Y-110651150D01*
%TO.N,/D33*%
X283718000Y-111506000D02*
X283464000Y-111506000D01*
X264668000Y-111506000D02*
X283718000Y-111506000D01*
%TO.N,/D26*%
X262432000Y-120142000D02*
X258114000Y-115824000D01*
X293302351Y-120142000D02*
X262432000Y-120142000D01*
X295173201Y-118271150D02*
X293302351Y-120142000D01*
%TO.N,/D27*%
X293810351Y-122174000D02*
X255828000Y-122174000D01*
X255828000Y-122174000D02*
X253288000Y-119634000D01*
X295173201Y-120811150D02*
X293810351Y-122174000D01*
%TO.N,/D14*%
X295173201Y-123351150D02*
X293556351Y-124968000D01*
X293556351Y-124968000D02*
X249732000Y-124968000D01*
X249732000Y-124968000D02*
X247954000Y-123190000D01*
%TO.N,/D12*%
X243645000Y-127517000D02*
X293547351Y-127517000D01*
X293547351Y-127517000D02*
X295173201Y-125891150D01*
X242620000Y-126492000D02*
X243645000Y-127517000D01*
%TO.N,/D25*%
X238261000Y-131581000D02*
X292023351Y-131581000D01*
X292023351Y-131581000D02*
X295173201Y-128431150D01*
X237236000Y-130556000D02*
X238261000Y-131581000D01*
%TO.N,/5v_control*%
X258064000Y-168910000D02*
X258064000Y-169164000D01*
X138958000Y-221079500D02*
X206148500Y-221079500D01*
X265176000Y-160968351D02*
X295173201Y-130971150D01*
X265176000Y-162052000D02*
X265176000Y-160968351D01*
X206148500Y-221079500D02*
X258064000Y-168910000D01*
%TO.N,Net-(U6-IN4)*%
X52921000Y-46696000D02*
X54146000Y-45471000D01*
X52921000Y-62573000D02*
X52921000Y-46696000D01*
X56896000Y-66548000D02*
X52921000Y-62573000D01*
X118110000Y-119634000D02*
X65278000Y-66802000D01*
X65278000Y-66802000D02*
X65024000Y-66548000D01*
X238302000Y-119634000D02*
X118110000Y-119634000D01*
X245160000Y-126492000D02*
X238302000Y-119634000D01*
X65024000Y-66548000D02*
X65278000Y-66548000D01*
%TO.N,Net-(U6-IN3)*%
X54146000Y-47548588D02*
X54146000Y-48011000D01*
X57911000Y-54101000D02*
X57911000Y-46233588D01*
X250494000Y-123190000D02*
X242620000Y-115316000D01*
X242620000Y-115316000D02*
X119126000Y-115316000D01*
X56178588Y-45516000D02*
X54146000Y-47548588D01*
X57193412Y-45516000D02*
X56178588Y-45516000D01*
X57911000Y-46233588D02*
X57193412Y-45516000D01*
X119126000Y-115316000D02*
X57911000Y-54101000D01*
%TO.N,Net-(U6-IN2)*%
X128524000Y-112522000D02*
X69342000Y-53340000D01*
X255828000Y-119634000D02*
X248716000Y-112522000D01*
X248716000Y-112522000D02*
X128524000Y-112522000D01*
%TO.N,Net-(U6-IN1)*%
X252780000Y-107950000D02*
X128514695Y-107950000D01*
X73179695Y-52615000D02*
X59660604Y-52615000D01*
X260654000Y-115824000D02*
X252780000Y-107950000D01*
X59660604Y-52615000D02*
X58361000Y-53914604D01*
X128514695Y-107950000D02*
X73179695Y-52615000D01*
%TO.N,Net-(U6-EnB)*%
X231902000Y-122682000D02*
X116586000Y-122682000D01*
X55461000Y-61557000D02*
X55461000Y-47966000D01*
X116586000Y-122682000D02*
X55461000Y-61557000D01*
X239776000Y-130556000D02*
X231902000Y-122682000D01*
X55461000Y-47966000D02*
X56686000Y-46741000D01*
%TO.N,Net-(U6-EnA)*%
X253746000Y-103124000D02*
X131572000Y-103124000D01*
X97790000Y-69850000D02*
X97536000Y-69596000D01*
X98298000Y-69850000D02*
X97790000Y-69850000D01*
X131572000Y-103124000D02*
X98298000Y-69850000D01*
X91186000Y-69596000D02*
X91440000Y-69850000D01*
X262128000Y-111506000D02*
X253746000Y-103124000D01*
X97536000Y-69596000D02*
X91186000Y-69596000D01*
%TD*%
M02*
