%TF.GenerationSoftware,KiCad,Pcbnew,7.0.2-0*%
%TF.CreationDate,2023-05-09T19:36:01+07:00*%
%TF.ProjectId,esp32 wroom,65737033-3220-4777-926f-6f6d2e6b6963,rev?*%
%TF.SameCoordinates,Original*%
%TF.FileFunction,Legend,Top*%
%TF.FilePolarity,Positive*%
%FSLAX46Y46*%
G04 Gerber Fmt 4.6, Leading zero omitted, Abs format (unit mm)*
G04 Created by KiCad (PCBNEW 7.0.2-0) date 2023-05-09 19:36:01*
%MOMM*%
%LPD*%
G01*
G04 APERTURE LIST*
%ADD10C,0.150000*%
%ADD11C,0.106250*%
%ADD12C,0.120000*%
%ADD13C,0.127000*%
%ADD14C,0.200000*%
%ADD15C,0.152400*%
%ADD16C,0.100000*%
%ADD17C,0.500000*%
G04 APERTURE END LIST*
D10*
%TO.C,.2*%
X138207810Y-13980380D02*
X138255429Y-14028000D01*
X138255429Y-14028000D02*
X138207810Y-14075619D01*
X138207810Y-14075619D02*
X138160191Y-14028000D01*
X138160191Y-14028000D02*
X138207810Y-13980380D01*
X138207810Y-13980380D02*
X138207810Y-14075619D01*
X138636381Y-13170857D02*
X138684000Y-13123238D01*
X138684000Y-13123238D02*
X138779238Y-13075619D01*
X138779238Y-13075619D02*
X139017333Y-13075619D01*
X139017333Y-13075619D02*
X139112571Y-13123238D01*
X139112571Y-13123238D02*
X139160190Y-13170857D01*
X139160190Y-13170857D02*
X139207809Y-13266095D01*
X139207809Y-13266095D02*
X139207809Y-13361333D01*
X139207809Y-13361333D02*
X139160190Y-13504190D01*
X139160190Y-13504190D02*
X138588762Y-14075619D01*
X138588762Y-14075619D02*
X139207809Y-14075619D01*
%TO.C,R4*%
X249057333Y-121732619D02*
X248724000Y-121256428D01*
X248485905Y-121732619D02*
X248485905Y-120732619D01*
X248485905Y-120732619D02*
X248866857Y-120732619D01*
X248866857Y-120732619D02*
X248962095Y-120780238D01*
X248962095Y-120780238D02*
X249009714Y-120827857D01*
X249009714Y-120827857D02*
X249057333Y-120923095D01*
X249057333Y-120923095D02*
X249057333Y-121065952D01*
X249057333Y-121065952D02*
X249009714Y-121161190D01*
X249009714Y-121161190D02*
X248962095Y-121208809D01*
X248962095Y-121208809D02*
X248866857Y-121256428D01*
X248866857Y-121256428D02*
X248485905Y-121256428D01*
X249914476Y-121065952D02*
X249914476Y-121732619D01*
X249676381Y-120685000D02*
X249438286Y-121399285D01*
X249438286Y-121399285D02*
X250057333Y-121399285D01*
X248628761Y-125572619D02*
X248057333Y-125572619D01*
X248343047Y-125572619D02*
X248343047Y-124572619D01*
X248343047Y-124572619D02*
X248247809Y-124715476D01*
X248247809Y-124715476D02*
X248152571Y-124810714D01*
X248152571Y-124810714D02*
X248057333Y-124858333D01*
X249533523Y-124572619D02*
X249057333Y-124572619D01*
X249057333Y-124572619D02*
X249009714Y-125048809D01*
X249009714Y-125048809D02*
X249057333Y-125001190D01*
X249057333Y-125001190D02*
X249152571Y-124953571D01*
X249152571Y-124953571D02*
X249390666Y-124953571D01*
X249390666Y-124953571D02*
X249485904Y-125001190D01*
X249485904Y-125001190D02*
X249533523Y-125048809D01*
X249533523Y-125048809D02*
X249581142Y-125144047D01*
X249581142Y-125144047D02*
X249581142Y-125382142D01*
X249581142Y-125382142D02*
X249533523Y-125477380D01*
X249533523Y-125477380D02*
X249485904Y-125525000D01*
X249485904Y-125525000D02*
X249390666Y-125572619D01*
X249390666Y-125572619D02*
X249152571Y-125572619D01*
X249152571Y-125572619D02*
X249057333Y-125525000D01*
X249057333Y-125525000D02*
X249009714Y-125477380D01*
X250009714Y-125572619D02*
X250009714Y-124572619D01*
X250104952Y-125191666D02*
X250390666Y-125572619D01*
X250390666Y-124905952D02*
X250009714Y-125286904D01*
%TO.C,D6*%
X180986619Y-39600094D02*
X179986619Y-39600094D01*
X179986619Y-39600094D02*
X179986619Y-39361999D01*
X179986619Y-39361999D02*
X180034238Y-39219142D01*
X180034238Y-39219142D02*
X180129476Y-39123904D01*
X180129476Y-39123904D02*
X180224714Y-39076285D01*
X180224714Y-39076285D02*
X180415190Y-39028666D01*
X180415190Y-39028666D02*
X180558047Y-39028666D01*
X180558047Y-39028666D02*
X180748523Y-39076285D01*
X180748523Y-39076285D02*
X180843761Y-39123904D01*
X180843761Y-39123904D02*
X180939000Y-39219142D01*
X180939000Y-39219142D02*
X180986619Y-39361999D01*
X180986619Y-39361999D02*
X180986619Y-39600094D01*
X179986619Y-38171523D02*
X179986619Y-38361999D01*
X179986619Y-38361999D02*
X180034238Y-38457237D01*
X180034238Y-38457237D02*
X180081857Y-38504856D01*
X180081857Y-38504856D02*
X180224714Y-38600094D01*
X180224714Y-38600094D02*
X180415190Y-38647713D01*
X180415190Y-38647713D02*
X180796142Y-38647713D01*
X180796142Y-38647713D02*
X180891380Y-38600094D01*
X180891380Y-38600094D02*
X180939000Y-38552475D01*
X180939000Y-38552475D02*
X180986619Y-38457237D01*
X180986619Y-38457237D02*
X180986619Y-38266761D01*
X180986619Y-38266761D02*
X180939000Y-38171523D01*
X180939000Y-38171523D02*
X180891380Y-38123904D01*
X180891380Y-38123904D02*
X180796142Y-38076285D01*
X180796142Y-38076285D02*
X180558047Y-38076285D01*
X180558047Y-38076285D02*
X180462809Y-38123904D01*
X180462809Y-38123904D02*
X180415190Y-38171523D01*
X180415190Y-38171523D02*
X180367571Y-38266761D01*
X180367571Y-38266761D02*
X180367571Y-38457237D01*
X180367571Y-38457237D02*
X180415190Y-38552475D01*
X180415190Y-38552475D02*
X180462809Y-38600094D01*
X180462809Y-38600094D02*
X180558047Y-38647713D01*
X180616619Y-34043904D02*
X179616619Y-34043904D01*
X180616619Y-33472476D02*
X180045190Y-33901047D01*
X179616619Y-33472476D02*
X180188047Y-34043904D01*
%TO.C,U6*%
X31688619Y-51312904D02*
X32498142Y-51312904D01*
X32498142Y-51312904D02*
X32593380Y-51265285D01*
X32593380Y-51265285D02*
X32641000Y-51217666D01*
X32641000Y-51217666D02*
X32688619Y-51122428D01*
X32688619Y-51122428D02*
X32688619Y-50931952D01*
X32688619Y-50931952D02*
X32641000Y-50836714D01*
X32641000Y-50836714D02*
X32593380Y-50789095D01*
X32593380Y-50789095D02*
X32498142Y-50741476D01*
X32498142Y-50741476D02*
X31688619Y-50741476D01*
X31688619Y-49836714D02*
X31688619Y-50027190D01*
X31688619Y-50027190D02*
X31736238Y-50122428D01*
X31736238Y-50122428D02*
X31783857Y-50170047D01*
X31783857Y-50170047D02*
X31926714Y-50265285D01*
X31926714Y-50265285D02*
X32117190Y-50312904D01*
X32117190Y-50312904D02*
X32498142Y-50312904D01*
X32498142Y-50312904D02*
X32593380Y-50265285D01*
X32593380Y-50265285D02*
X32641000Y-50217666D01*
X32641000Y-50217666D02*
X32688619Y-50122428D01*
X32688619Y-50122428D02*
X32688619Y-49931952D01*
X32688619Y-49931952D02*
X32641000Y-49836714D01*
X32641000Y-49836714D02*
X32593380Y-49789095D01*
X32593380Y-49789095D02*
X32498142Y-49741476D01*
X32498142Y-49741476D02*
X32260047Y-49741476D01*
X32260047Y-49741476D02*
X32164809Y-49789095D01*
X32164809Y-49789095D02*
X32117190Y-49836714D01*
X32117190Y-49836714D02*
X32069571Y-49931952D01*
X32069571Y-49931952D02*
X32069571Y-50122428D01*
X32069571Y-50122428D02*
X32117190Y-50217666D01*
X32117190Y-50217666D02*
X32164809Y-50265285D01*
X32164809Y-50265285D02*
X32260047Y-50312904D01*
X59048619Y-52717666D02*
X59048619Y-53193856D01*
X59048619Y-53193856D02*
X58048619Y-53193856D01*
X58143857Y-52431951D02*
X58096238Y-52384332D01*
X58096238Y-52384332D02*
X58048619Y-52289094D01*
X58048619Y-52289094D02*
X58048619Y-52050999D01*
X58048619Y-52050999D02*
X58096238Y-51955761D01*
X58096238Y-51955761D02*
X58143857Y-51908142D01*
X58143857Y-51908142D02*
X58239095Y-51860523D01*
X58239095Y-51860523D02*
X58334333Y-51860523D01*
X58334333Y-51860523D02*
X58477190Y-51908142D01*
X58477190Y-51908142D02*
X59048619Y-52479570D01*
X59048619Y-52479570D02*
X59048619Y-51860523D01*
X59048619Y-51384332D02*
X59048619Y-51193856D01*
X59048619Y-51193856D02*
X59001000Y-51098618D01*
X59001000Y-51098618D02*
X58953380Y-51050999D01*
X58953380Y-51050999D02*
X58810523Y-50955761D01*
X58810523Y-50955761D02*
X58620047Y-50908142D01*
X58620047Y-50908142D02*
X58239095Y-50908142D01*
X58239095Y-50908142D02*
X58143857Y-50955761D01*
X58143857Y-50955761D02*
X58096238Y-51003380D01*
X58096238Y-51003380D02*
X58048619Y-51098618D01*
X58048619Y-51098618D02*
X58048619Y-51289094D01*
X58048619Y-51289094D02*
X58096238Y-51384332D01*
X58096238Y-51384332D02*
X58143857Y-51431951D01*
X58143857Y-51431951D02*
X58239095Y-51479570D01*
X58239095Y-51479570D02*
X58477190Y-51479570D01*
X58477190Y-51479570D02*
X58572428Y-51431951D01*
X58572428Y-51431951D02*
X58620047Y-51384332D01*
X58620047Y-51384332D02*
X58667666Y-51289094D01*
X58667666Y-51289094D02*
X58667666Y-51098618D01*
X58667666Y-51098618D02*
X58620047Y-51003380D01*
X58620047Y-51003380D02*
X58572428Y-50955761D01*
X58572428Y-50955761D02*
X58477190Y-50908142D01*
X58477190Y-50336713D02*
X58429571Y-50431951D01*
X58429571Y-50431951D02*
X58381952Y-50479570D01*
X58381952Y-50479570D02*
X58286714Y-50527189D01*
X58286714Y-50527189D02*
X58239095Y-50527189D01*
X58239095Y-50527189D02*
X58143857Y-50479570D01*
X58143857Y-50479570D02*
X58096238Y-50431951D01*
X58096238Y-50431951D02*
X58048619Y-50336713D01*
X58048619Y-50336713D02*
X58048619Y-50146237D01*
X58048619Y-50146237D02*
X58096238Y-50050999D01*
X58096238Y-50050999D02*
X58143857Y-50003380D01*
X58143857Y-50003380D02*
X58239095Y-49955761D01*
X58239095Y-49955761D02*
X58286714Y-49955761D01*
X58286714Y-49955761D02*
X58381952Y-50003380D01*
X58381952Y-50003380D02*
X58429571Y-50050999D01*
X58429571Y-50050999D02*
X58477190Y-50146237D01*
X58477190Y-50146237D02*
X58477190Y-50336713D01*
X58477190Y-50336713D02*
X58524809Y-50431951D01*
X58524809Y-50431951D02*
X58572428Y-50479570D01*
X58572428Y-50479570D02*
X58667666Y-50527189D01*
X58667666Y-50527189D02*
X58858142Y-50527189D01*
X58858142Y-50527189D02*
X58953380Y-50479570D01*
X58953380Y-50479570D02*
X59001000Y-50431951D01*
X59001000Y-50431951D02*
X59048619Y-50336713D01*
X59048619Y-50336713D02*
X59048619Y-50146237D01*
X59048619Y-50146237D02*
X59001000Y-50050999D01*
X59001000Y-50050999D02*
X58953380Y-50003380D01*
X58953380Y-50003380D02*
X58858142Y-49955761D01*
X58858142Y-49955761D02*
X58667666Y-49955761D01*
X58667666Y-49955761D02*
X58572428Y-50003380D01*
X58572428Y-50003380D02*
X58524809Y-50050999D01*
X58524809Y-50050999D02*
X58477190Y-50146237D01*
X59048619Y-49527189D02*
X58048619Y-49527189D01*
X58524809Y-49527189D02*
X58524809Y-48955761D01*
X59048619Y-48955761D02*
X58048619Y-48955761D01*
X59048619Y-48479570D02*
X58048619Y-48479570D01*
X58048619Y-48479570D02*
X59048619Y-47908142D01*
X59048619Y-47908142D02*
X58048619Y-47908142D01*
%TO.C,VR2*%
X132923476Y-215744619D02*
X133256809Y-216744619D01*
X133256809Y-216744619D02*
X133590142Y-215744619D01*
X134494904Y-216744619D02*
X134161571Y-216268428D01*
X133923476Y-216744619D02*
X133923476Y-215744619D01*
X133923476Y-215744619D02*
X134304428Y-215744619D01*
X134304428Y-215744619D02*
X134399666Y-215792238D01*
X134399666Y-215792238D02*
X134447285Y-215839857D01*
X134447285Y-215839857D02*
X134494904Y-215935095D01*
X134494904Y-215935095D02*
X134494904Y-216077952D01*
X134494904Y-216077952D02*
X134447285Y-216173190D01*
X134447285Y-216173190D02*
X134399666Y-216220809D01*
X134399666Y-216220809D02*
X134304428Y-216268428D01*
X134304428Y-216268428D02*
X133923476Y-216268428D01*
X134875857Y-215839857D02*
X134923476Y-215792238D01*
X134923476Y-215792238D02*
X135018714Y-215744619D01*
X135018714Y-215744619D02*
X135256809Y-215744619D01*
X135256809Y-215744619D02*
X135352047Y-215792238D01*
X135352047Y-215792238D02*
X135399666Y-215839857D01*
X135399666Y-215839857D02*
X135447285Y-215935095D01*
X135447285Y-215935095D02*
X135447285Y-216030333D01*
X135447285Y-216030333D02*
X135399666Y-216173190D01*
X135399666Y-216173190D02*
X134828238Y-216744619D01*
X134828238Y-216744619D02*
X135447285Y-216744619D01*
X142797761Y-225014619D02*
X142321571Y-225014619D01*
X142321571Y-225014619D02*
X142321571Y-224014619D01*
X143035857Y-224014619D02*
X143702523Y-224014619D01*
X143702523Y-224014619D02*
X143273952Y-225014619D01*
X144226333Y-224443190D02*
X144131095Y-224395571D01*
X144131095Y-224395571D02*
X144083476Y-224347952D01*
X144083476Y-224347952D02*
X144035857Y-224252714D01*
X144035857Y-224252714D02*
X144035857Y-224205095D01*
X144035857Y-224205095D02*
X144083476Y-224109857D01*
X144083476Y-224109857D02*
X144131095Y-224062238D01*
X144131095Y-224062238D02*
X144226333Y-224014619D01*
X144226333Y-224014619D02*
X144416809Y-224014619D01*
X144416809Y-224014619D02*
X144512047Y-224062238D01*
X144512047Y-224062238D02*
X144559666Y-224109857D01*
X144559666Y-224109857D02*
X144607285Y-224205095D01*
X144607285Y-224205095D02*
X144607285Y-224252714D01*
X144607285Y-224252714D02*
X144559666Y-224347952D01*
X144559666Y-224347952D02*
X144512047Y-224395571D01*
X144512047Y-224395571D02*
X144416809Y-224443190D01*
X144416809Y-224443190D02*
X144226333Y-224443190D01*
X144226333Y-224443190D02*
X144131095Y-224490809D01*
X144131095Y-224490809D02*
X144083476Y-224538428D01*
X144083476Y-224538428D02*
X144035857Y-224633666D01*
X144035857Y-224633666D02*
X144035857Y-224824142D01*
X144035857Y-224824142D02*
X144083476Y-224919380D01*
X144083476Y-224919380D02*
X144131095Y-224967000D01*
X144131095Y-224967000D02*
X144226333Y-225014619D01*
X144226333Y-225014619D02*
X144416809Y-225014619D01*
X144416809Y-225014619D02*
X144512047Y-224967000D01*
X144512047Y-224967000D02*
X144559666Y-224919380D01*
X144559666Y-224919380D02*
X144607285Y-224824142D01*
X144607285Y-224824142D02*
X144607285Y-224633666D01*
X144607285Y-224633666D02*
X144559666Y-224538428D01*
X144559666Y-224538428D02*
X144512047Y-224490809D01*
X144512047Y-224490809D02*
X144416809Y-224443190D01*
X145226333Y-224014619D02*
X145321571Y-224014619D01*
X145321571Y-224014619D02*
X145416809Y-224062238D01*
X145416809Y-224062238D02*
X145464428Y-224109857D01*
X145464428Y-224109857D02*
X145512047Y-224205095D01*
X145512047Y-224205095D02*
X145559666Y-224395571D01*
X145559666Y-224395571D02*
X145559666Y-224633666D01*
X145559666Y-224633666D02*
X145512047Y-224824142D01*
X145512047Y-224824142D02*
X145464428Y-224919380D01*
X145464428Y-224919380D02*
X145416809Y-224967000D01*
X145416809Y-224967000D02*
X145321571Y-225014619D01*
X145321571Y-225014619D02*
X145226333Y-225014619D01*
X145226333Y-225014619D02*
X145131095Y-224967000D01*
X145131095Y-224967000D02*
X145083476Y-224919380D01*
X145083476Y-224919380D02*
X145035857Y-224824142D01*
X145035857Y-224824142D02*
X144988238Y-224633666D01*
X144988238Y-224633666D02*
X144988238Y-224395571D01*
X144988238Y-224395571D02*
X145035857Y-224205095D01*
X145035857Y-224205095D02*
X145083476Y-224109857D01*
X145083476Y-224109857D02*
X145131095Y-224062238D01*
X145131095Y-224062238D02*
X145226333Y-224014619D01*
X146464428Y-224014619D02*
X145988238Y-224014619D01*
X145988238Y-224014619D02*
X145940619Y-224490809D01*
X145940619Y-224490809D02*
X145988238Y-224443190D01*
X145988238Y-224443190D02*
X146083476Y-224395571D01*
X146083476Y-224395571D02*
X146321571Y-224395571D01*
X146321571Y-224395571D02*
X146416809Y-224443190D01*
X146416809Y-224443190D02*
X146464428Y-224490809D01*
X146464428Y-224490809D02*
X146512047Y-224586047D01*
X146512047Y-224586047D02*
X146512047Y-224824142D01*
X146512047Y-224824142D02*
X146464428Y-224919380D01*
X146464428Y-224919380D02*
X146416809Y-224967000D01*
X146416809Y-224967000D02*
X146321571Y-225014619D01*
X146321571Y-225014619D02*
X146083476Y-225014619D01*
X146083476Y-225014619D02*
X145988238Y-224967000D01*
X145988238Y-224967000D02*
X145940619Y-224919380D01*
%TO.C,C2*%
X99655333Y-40165880D02*
X99607714Y-40213500D01*
X99607714Y-40213500D02*
X99464857Y-40261119D01*
X99464857Y-40261119D02*
X99369619Y-40261119D01*
X99369619Y-40261119D02*
X99226762Y-40213500D01*
X99226762Y-40213500D02*
X99131524Y-40118261D01*
X99131524Y-40118261D02*
X99083905Y-40023023D01*
X99083905Y-40023023D02*
X99036286Y-39832547D01*
X99036286Y-39832547D02*
X99036286Y-39689690D01*
X99036286Y-39689690D02*
X99083905Y-39499214D01*
X99083905Y-39499214D02*
X99131524Y-39403976D01*
X99131524Y-39403976D02*
X99226762Y-39308738D01*
X99226762Y-39308738D02*
X99369619Y-39261119D01*
X99369619Y-39261119D02*
X99464857Y-39261119D01*
X99464857Y-39261119D02*
X99607714Y-39308738D01*
X99607714Y-39308738D02*
X99655333Y-39356357D01*
X100036286Y-39356357D02*
X100083905Y-39308738D01*
X100083905Y-39308738D02*
X100179143Y-39261119D01*
X100179143Y-39261119D02*
X100417238Y-39261119D01*
X100417238Y-39261119D02*
X100512476Y-39308738D01*
X100512476Y-39308738D02*
X100560095Y-39356357D01*
X100560095Y-39356357D02*
X100607714Y-39451595D01*
X100607714Y-39451595D02*
X100607714Y-39546833D01*
X100607714Y-39546833D02*
X100560095Y-39689690D01*
X100560095Y-39689690D02*
X99988667Y-40261119D01*
X99988667Y-40261119D02*
X100607714Y-40261119D01*
%TO.C,C3*%
X142813333Y-195083380D02*
X142765714Y-195131000D01*
X142765714Y-195131000D02*
X142622857Y-195178619D01*
X142622857Y-195178619D02*
X142527619Y-195178619D01*
X142527619Y-195178619D02*
X142384762Y-195131000D01*
X142384762Y-195131000D02*
X142289524Y-195035761D01*
X142289524Y-195035761D02*
X142241905Y-194940523D01*
X142241905Y-194940523D02*
X142194286Y-194750047D01*
X142194286Y-194750047D02*
X142194286Y-194607190D01*
X142194286Y-194607190D02*
X142241905Y-194416714D01*
X142241905Y-194416714D02*
X142289524Y-194321476D01*
X142289524Y-194321476D02*
X142384762Y-194226238D01*
X142384762Y-194226238D02*
X142527619Y-194178619D01*
X142527619Y-194178619D02*
X142622857Y-194178619D01*
X142622857Y-194178619D02*
X142765714Y-194226238D01*
X142765714Y-194226238D02*
X142813333Y-194273857D01*
X143146667Y-194178619D02*
X143765714Y-194178619D01*
X143765714Y-194178619D02*
X143432381Y-194559571D01*
X143432381Y-194559571D02*
X143575238Y-194559571D01*
X143575238Y-194559571D02*
X143670476Y-194607190D01*
X143670476Y-194607190D02*
X143718095Y-194654809D01*
X143718095Y-194654809D02*
X143765714Y-194750047D01*
X143765714Y-194750047D02*
X143765714Y-194988142D01*
X143765714Y-194988142D02*
X143718095Y-195083380D01*
X143718095Y-195083380D02*
X143670476Y-195131000D01*
X143670476Y-195131000D02*
X143575238Y-195178619D01*
X143575238Y-195178619D02*
X143289524Y-195178619D01*
X143289524Y-195178619D02*
X143194286Y-195131000D01*
X143194286Y-195131000D02*
X143146667Y-195083380D01*
X140337142Y-188778619D02*
X139765714Y-188778619D01*
X140051428Y-188778619D02*
X140051428Y-187778619D01*
X140051428Y-187778619D02*
X139956190Y-187921476D01*
X139956190Y-187921476D02*
X139860952Y-188016714D01*
X139860952Y-188016714D02*
X139765714Y-188064333D01*
X140956190Y-187778619D02*
X141051428Y-187778619D01*
X141051428Y-187778619D02*
X141146666Y-187826238D01*
X141146666Y-187826238D02*
X141194285Y-187873857D01*
X141194285Y-187873857D02*
X141241904Y-187969095D01*
X141241904Y-187969095D02*
X141289523Y-188159571D01*
X141289523Y-188159571D02*
X141289523Y-188397666D01*
X141289523Y-188397666D02*
X141241904Y-188588142D01*
X141241904Y-188588142D02*
X141194285Y-188683380D01*
X141194285Y-188683380D02*
X141146666Y-188731000D01*
X141146666Y-188731000D02*
X141051428Y-188778619D01*
X141051428Y-188778619D02*
X140956190Y-188778619D01*
X140956190Y-188778619D02*
X140860952Y-188731000D01*
X140860952Y-188731000D02*
X140813333Y-188683380D01*
X140813333Y-188683380D02*
X140765714Y-188588142D01*
X140765714Y-188588142D02*
X140718095Y-188397666D01*
X140718095Y-188397666D02*
X140718095Y-188159571D01*
X140718095Y-188159571D02*
X140765714Y-187969095D01*
X140765714Y-187969095D02*
X140813333Y-187873857D01*
X140813333Y-187873857D02*
X140860952Y-187826238D01*
X140860952Y-187826238D02*
X140956190Y-187778619D01*
X142146666Y-188111952D02*
X142146666Y-188778619D01*
X141718095Y-188111952D02*
X141718095Y-188635761D01*
X141718095Y-188635761D02*
X141765714Y-188731000D01*
X141765714Y-188731000D02*
X141860952Y-188778619D01*
X141860952Y-188778619D02*
X142003809Y-188778619D01*
X142003809Y-188778619D02*
X142099047Y-188731000D01*
X142099047Y-188731000D02*
X142146666Y-188683380D01*
X142480000Y-188111952D02*
X142860952Y-188111952D01*
X142622857Y-188778619D02*
X142622857Y-187921476D01*
X142622857Y-187921476D02*
X142670476Y-187826238D01*
X142670476Y-187826238D02*
X142765714Y-187778619D01*
X142765714Y-187778619D02*
X142860952Y-187778619D01*
X144432381Y-187778619D02*
X143956191Y-187778619D01*
X143956191Y-187778619D02*
X143908572Y-188254809D01*
X143908572Y-188254809D02*
X143956191Y-188207190D01*
X143956191Y-188207190D02*
X144051429Y-188159571D01*
X144051429Y-188159571D02*
X144289524Y-188159571D01*
X144289524Y-188159571D02*
X144384762Y-188207190D01*
X144384762Y-188207190D02*
X144432381Y-188254809D01*
X144432381Y-188254809D02*
X144480000Y-188350047D01*
X144480000Y-188350047D02*
X144480000Y-188588142D01*
X144480000Y-188588142D02*
X144432381Y-188683380D01*
X144432381Y-188683380D02*
X144384762Y-188731000D01*
X144384762Y-188731000D02*
X144289524Y-188778619D01*
X144289524Y-188778619D02*
X144051429Y-188778619D01*
X144051429Y-188778619D02*
X143956191Y-188731000D01*
X143956191Y-188731000D02*
X143908572Y-188683380D01*
X145099048Y-187778619D02*
X145194286Y-187778619D01*
X145194286Y-187778619D02*
X145289524Y-187826238D01*
X145289524Y-187826238D02*
X145337143Y-187873857D01*
X145337143Y-187873857D02*
X145384762Y-187969095D01*
X145384762Y-187969095D02*
X145432381Y-188159571D01*
X145432381Y-188159571D02*
X145432381Y-188397666D01*
X145432381Y-188397666D02*
X145384762Y-188588142D01*
X145384762Y-188588142D02*
X145337143Y-188683380D01*
X145337143Y-188683380D02*
X145289524Y-188731000D01*
X145289524Y-188731000D02*
X145194286Y-188778619D01*
X145194286Y-188778619D02*
X145099048Y-188778619D01*
X145099048Y-188778619D02*
X145003810Y-188731000D01*
X145003810Y-188731000D02*
X144956191Y-188683380D01*
X144956191Y-188683380D02*
X144908572Y-188588142D01*
X144908572Y-188588142D02*
X144860953Y-188397666D01*
X144860953Y-188397666D02*
X144860953Y-188159571D01*
X144860953Y-188159571D02*
X144908572Y-187969095D01*
X144908572Y-187969095D02*
X144956191Y-187873857D01*
X144956191Y-187873857D02*
X145003810Y-187826238D01*
X145003810Y-187826238D02*
X145099048Y-187778619D01*
X145765715Y-188111952D02*
X146003810Y-188778619D01*
X146003810Y-188778619D02*
X146241905Y-188111952D01*
%TO.C,VR1*%
X167955476Y-17525119D02*
X168288809Y-18525119D01*
X168288809Y-18525119D02*
X168622142Y-17525119D01*
X169526904Y-18525119D02*
X169193571Y-18048928D01*
X168955476Y-18525119D02*
X168955476Y-17525119D01*
X168955476Y-17525119D02*
X169336428Y-17525119D01*
X169336428Y-17525119D02*
X169431666Y-17572738D01*
X169431666Y-17572738D02*
X169479285Y-17620357D01*
X169479285Y-17620357D02*
X169526904Y-17715595D01*
X169526904Y-17715595D02*
X169526904Y-17858452D01*
X169526904Y-17858452D02*
X169479285Y-17953690D01*
X169479285Y-17953690D02*
X169431666Y-18001309D01*
X169431666Y-18001309D02*
X169336428Y-18048928D01*
X169336428Y-18048928D02*
X168955476Y-18048928D01*
X170479285Y-18525119D02*
X169907857Y-18525119D01*
X170193571Y-18525119D02*
X170193571Y-17525119D01*
X170193571Y-17525119D02*
X170098333Y-17667976D01*
X170098333Y-17667976D02*
X170003095Y-17763214D01*
X170003095Y-17763214D02*
X169907857Y-17810833D01*
%TO.C,U2*%
X369290733Y-83448666D02*
X369290733Y-84582000D01*
X369290733Y-84582000D02*
X369357400Y-84715333D01*
X369357400Y-84715333D02*
X369424066Y-84782000D01*
X369424066Y-84782000D02*
X369557400Y-84848666D01*
X369557400Y-84848666D02*
X369824066Y-84848666D01*
X369824066Y-84848666D02*
X369957400Y-84782000D01*
X369957400Y-84782000D02*
X370024066Y-84715333D01*
X370024066Y-84715333D02*
X370090733Y-84582000D01*
X370090733Y-84582000D02*
X370090733Y-83448666D01*
X370690733Y-83582000D02*
X370757400Y-83515333D01*
X370757400Y-83515333D02*
X370890733Y-83448666D01*
X370890733Y-83448666D02*
X371224067Y-83448666D01*
X371224067Y-83448666D02*
X371357400Y-83515333D01*
X371357400Y-83515333D02*
X371424067Y-83582000D01*
X371424067Y-83582000D02*
X371490733Y-83715333D01*
X371490733Y-83715333D02*
X371490733Y-83848666D01*
X371490733Y-83848666D02*
X371424067Y-84048666D01*
X371424067Y-84048666D02*
X370624067Y-84848666D01*
X370624067Y-84848666D02*
X371490733Y-84848666D01*
X359013667Y-83121466D02*
X359013667Y-81721466D01*
X359013667Y-81721466D02*
X359547000Y-81721466D01*
X359547000Y-81721466D02*
X359680334Y-81788133D01*
X359680334Y-81788133D02*
X359747000Y-81854800D01*
X359747000Y-81854800D02*
X359813667Y-81988133D01*
X359813667Y-81988133D02*
X359813667Y-82188133D01*
X359813667Y-82188133D02*
X359747000Y-82321466D01*
X359747000Y-82321466D02*
X359680334Y-82388133D01*
X359680334Y-82388133D02*
X359547000Y-82454800D01*
X359547000Y-82454800D02*
X359013667Y-82454800D01*
X361213667Y-82988133D02*
X361147000Y-83054800D01*
X361147000Y-83054800D02*
X360947000Y-83121466D01*
X360947000Y-83121466D02*
X360813667Y-83121466D01*
X360813667Y-83121466D02*
X360613667Y-83054800D01*
X360613667Y-83054800D02*
X360480334Y-82921466D01*
X360480334Y-82921466D02*
X360413667Y-82788133D01*
X360413667Y-82788133D02*
X360347000Y-82521466D01*
X360347000Y-82521466D02*
X360347000Y-82321466D01*
X360347000Y-82321466D02*
X360413667Y-82054800D01*
X360413667Y-82054800D02*
X360480334Y-81921466D01*
X360480334Y-81921466D02*
X360613667Y-81788133D01*
X360613667Y-81788133D02*
X360813667Y-81721466D01*
X360813667Y-81721466D02*
X360947000Y-81721466D01*
X360947000Y-81721466D02*
X361147000Y-81788133D01*
X361147000Y-81788133D02*
X361213667Y-81854800D01*
X362280334Y-82388133D02*
X361813667Y-82388133D01*
X361813667Y-83121466D02*
X361813667Y-81721466D01*
X361813667Y-81721466D02*
X362480334Y-81721466D01*
X363213667Y-82321466D02*
X363080334Y-82254800D01*
X363080334Y-82254800D02*
X363013667Y-82188133D01*
X363013667Y-82188133D02*
X362947000Y-82054800D01*
X362947000Y-82054800D02*
X362947000Y-81988133D01*
X362947000Y-81988133D02*
X363013667Y-81854800D01*
X363013667Y-81854800D02*
X363080334Y-81788133D01*
X363080334Y-81788133D02*
X363213667Y-81721466D01*
X363213667Y-81721466D02*
X363480334Y-81721466D01*
X363480334Y-81721466D02*
X363613667Y-81788133D01*
X363613667Y-81788133D02*
X363680334Y-81854800D01*
X363680334Y-81854800D02*
X363747000Y-81988133D01*
X363747000Y-81988133D02*
X363747000Y-82054800D01*
X363747000Y-82054800D02*
X363680334Y-82188133D01*
X363680334Y-82188133D02*
X363613667Y-82254800D01*
X363613667Y-82254800D02*
X363480334Y-82321466D01*
X363480334Y-82321466D02*
X363213667Y-82321466D01*
X363213667Y-82321466D02*
X363080334Y-82388133D01*
X363080334Y-82388133D02*
X363013667Y-82454800D01*
X363013667Y-82454800D02*
X362947000Y-82588133D01*
X362947000Y-82588133D02*
X362947000Y-82854800D01*
X362947000Y-82854800D02*
X363013667Y-82988133D01*
X363013667Y-82988133D02*
X363080334Y-83054800D01*
X363080334Y-83054800D02*
X363213667Y-83121466D01*
X363213667Y-83121466D02*
X363480334Y-83121466D01*
X363480334Y-83121466D02*
X363613667Y-83054800D01*
X363613667Y-83054800D02*
X363680334Y-82988133D01*
X363680334Y-82988133D02*
X363747000Y-82854800D01*
X363747000Y-82854800D02*
X363747000Y-82588133D01*
X363747000Y-82588133D02*
X363680334Y-82454800D01*
X363680334Y-82454800D02*
X363613667Y-82388133D01*
X363613667Y-82388133D02*
X363480334Y-82321466D01*
X365013667Y-81721466D02*
X364347000Y-81721466D01*
X364347000Y-81721466D02*
X364280333Y-82388133D01*
X364280333Y-82388133D02*
X364347000Y-82321466D01*
X364347000Y-82321466D02*
X364480333Y-82254800D01*
X364480333Y-82254800D02*
X364813667Y-82254800D01*
X364813667Y-82254800D02*
X364947000Y-82321466D01*
X364947000Y-82321466D02*
X365013667Y-82388133D01*
X365013667Y-82388133D02*
X365080333Y-82521466D01*
X365080333Y-82521466D02*
X365080333Y-82854800D01*
X365080333Y-82854800D02*
X365013667Y-82988133D01*
X365013667Y-82988133D02*
X364947000Y-83054800D01*
X364947000Y-83054800D02*
X364813667Y-83121466D01*
X364813667Y-83121466D02*
X364480333Y-83121466D01*
X364480333Y-83121466D02*
X364347000Y-83054800D01*
X364347000Y-83054800D02*
X364280333Y-82988133D01*
X365547000Y-81721466D02*
X366480333Y-81721466D01*
X366480333Y-81721466D02*
X365880333Y-83121466D01*
X367613666Y-82188133D02*
X367613666Y-83121466D01*
X367280333Y-81654800D02*
X366946999Y-82654800D01*
X366946999Y-82654800D02*
X367813666Y-82654800D01*
%TO.C,D3*%
X145058619Y-70588094D02*
X144058619Y-70588094D01*
X144058619Y-70588094D02*
X144058619Y-70349999D01*
X144058619Y-70349999D02*
X144106238Y-70207142D01*
X144106238Y-70207142D02*
X144201476Y-70111904D01*
X144201476Y-70111904D02*
X144296714Y-70064285D01*
X144296714Y-70064285D02*
X144487190Y-70016666D01*
X144487190Y-70016666D02*
X144630047Y-70016666D01*
X144630047Y-70016666D02*
X144820523Y-70064285D01*
X144820523Y-70064285D02*
X144915761Y-70111904D01*
X144915761Y-70111904D02*
X145011000Y-70207142D01*
X145011000Y-70207142D02*
X145058619Y-70349999D01*
X145058619Y-70349999D02*
X145058619Y-70588094D01*
X144058619Y-69683332D02*
X144058619Y-69064285D01*
X144058619Y-69064285D02*
X144439571Y-69397618D01*
X144439571Y-69397618D02*
X144439571Y-69254761D01*
X144439571Y-69254761D02*
X144487190Y-69159523D01*
X144487190Y-69159523D02*
X144534809Y-69111904D01*
X144534809Y-69111904D02*
X144630047Y-69064285D01*
X144630047Y-69064285D02*
X144868142Y-69064285D01*
X144868142Y-69064285D02*
X144963380Y-69111904D01*
X144963380Y-69111904D02*
X145011000Y-69159523D01*
X145011000Y-69159523D02*
X145058619Y-69254761D01*
X145058619Y-69254761D02*
X145058619Y-69540475D01*
X145058619Y-69540475D02*
X145011000Y-69635713D01*
X145011000Y-69635713D02*
X144963380Y-69683332D01*
X145428619Y-75191904D02*
X144428619Y-75191904D01*
X145428619Y-74620476D02*
X144857190Y-75049047D01*
X144428619Y-74620476D02*
X145000047Y-75191904D01*
%TO.C,C4*%
X145883333Y-239279380D02*
X145835714Y-239327000D01*
X145835714Y-239327000D02*
X145692857Y-239374619D01*
X145692857Y-239374619D02*
X145597619Y-239374619D01*
X145597619Y-239374619D02*
X145454762Y-239327000D01*
X145454762Y-239327000D02*
X145359524Y-239231761D01*
X145359524Y-239231761D02*
X145311905Y-239136523D01*
X145311905Y-239136523D02*
X145264286Y-238946047D01*
X145264286Y-238946047D02*
X145264286Y-238803190D01*
X145264286Y-238803190D02*
X145311905Y-238612714D01*
X145311905Y-238612714D02*
X145359524Y-238517476D01*
X145359524Y-238517476D02*
X145454762Y-238422238D01*
X145454762Y-238422238D02*
X145597619Y-238374619D01*
X145597619Y-238374619D02*
X145692857Y-238374619D01*
X145692857Y-238374619D02*
X145835714Y-238422238D01*
X145835714Y-238422238D02*
X145883333Y-238469857D01*
X146740476Y-238707952D02*
X146740476Y-239374619D01*
X146502381Y-238327000D02*
X146264286Y-239041285D01*
X146264286Y-239041285D02*
X146883333Y-239041285D01*
X143407142Y-232974619D02*
X142835714Y-232974619D01*
X143121428Y-232974619D02*
X143121428Y-231974619D01*
X143121428Y-231974619D02*
X143026190Y-232117476D01*
X143026190Y-232117476D02*
X142930952Y-232212714D01*
X142930952Y-232212714D02*
X142835714Y-232260333D01*
X144026190Y-231974619D02*
X144121428Y-231974619D01*
X144121428Y-231974619D02*
X144216666Y-232022238D01*
X144216666Y-232022238D02*
X144264285Y-232069857D01*
X144264285Y-232069857D02*
X144311904Y-232165095D01*
X144311904Y-232165095D02*
X144359523Y-232355571D01*
X144359523Y-232355571D02*
X144359523Y-232593666D01*
X144359523Y-232593666D02*
X144311904Y-232784142D01*
X144311904Y-232784142D02*
X144264285Y-232879380D01*
X144264285Y-232879380D02*
X144216666Y-232927000D01*
X144216666Y-232927000D02*
X144121428Y-232974619D01*
X144121428Y-232974619D02*
X144026190Y-232974619D01*
X144026190Y-232974619D02*
X143930952Y-232927000D01*
X143930952Y-232927000D02*
X143883333Y-232879380D01*
X143883333Y-232879380D02*
X143835714Y-232784142D01*
X143835714Y-232784142D02*
X143788095Y-232593666D01*
X143788095Y-232593666D02*
X143788095Y-232355571D01*
X143788095Y-232355571D02*
X143835714Y-232165095D01*
X143835714Y-232165095D02*
X143883333Y-232069857D01*
X143883333Y-232069857D02*
X143930952Y-232022238D01*
X143930952Y-232022238D02*
X144026190Y-231974619D01*
X145216666Y-232307952D02*
X145216666Y-232974619D01*
X144788095Y-232307952D02*
X144788095Y-232831761D01*
X144788095Y-232831761D02*
X144835714Y-232927000D01*
X144835714Y-232927000D02*
X144930952Y-232974619D01*
X144930952Y-232974619D02*
X145073809Y-232974619D01*
X145073809Y-232974619D02*
X145169047Y-232927000D01*
X145169047Y-232927000D02*
X145216666Y-232879380D01*
X145550000Y-232307952D02*
X145930952Y-232307952D01*
X145692857Y-232974619D02*
X145692857Y-232117476D01*
X145692857Y-232117476D02*
X145740476Y-232022238D01*
X145740476Y-232022238D02*
X145835714Y-231974619D01*
X145835714Y-231974619D02*
X145930952Y-231974619D01*
X147502381Y-231974619D02*
X147026191Y-231974619D01*
X147026191Y-231974619D02*
X146978572Y-232450809D01*
X146978572Y-232450809D02*
X147026191Y-232403190D01*
X147026191Y-232403190D02*
X147121429Y-232355571D01*
X147121429Y-232355571D02*
X147359524Y-232355571D01*
X147359524Y-232355571D02*
X147454762Y-232403190D01*
X147454762Y-232403190D02*
X147502381Y-232450809D01*
X147502381Y-232450809D02*
X147550000Y-232546047D01*
X147550000Y-232546047D02*
X147550000Y-232784142D01*
X147550000Y-232784142D02*
X147502381Y-232879380D01*
X147502381Y-232879380D02*
X147454762Y-232927000D01*
X147454762Y-232927000D02*
X147359524Y-232974619D01*
X147359524Y-232974619D02*
X147121429Y-232974619D01*
X147121429Y-232974619D02*
X147026191Y-232927000D01*
X147026191Y-232927000D02*
X146978572Y-232879380D01*
X148169048Y-231974619D02*
X148264286Y-231974619D01*
X148264286Y-231974619D02*
X148359524Y-232022238D01*
X148359524Y-232022238D02*
X148407143Y-232069857D01*
X148407143Y-232069857D02*
X148454762Y-232165095D01*
X148454762Y-232165095D02*
X148502381Y-232355571D01*
X148502381Y-232355571D02*
X148502381Y-232593666D01*
X148502381Y-232593666D02*
X148454762Y-232784142D01*
X148454762Y-232784142D02*
X148407143Y-232879380D01*
X148407143Y-232879380D02*
X148359524Y-232927000D01*
X148359524Y-232927000D02*
X148264286Y-232974619D01*
X148264286Y-232974619D02*
X148169048Y-232974619D01*
X148169048Y-232974619D02*
X148073810Y-232927000D01*
X148073810Y-232927000D02*
X148026191Y-232879380D01*
X148026191Y-232879380D02*
X147978572Y-232784142D01*
X147978572Y-232784142D02*
X147930953Y-232593666D01*
X147930953Y-232593666D02*
X147930953Y-232355571D01*
X147930953Y-232355571D02*
X147978572Y-232165095D01*
X147978572Y-232165095D02*
X148026191Y-232069857D01*
X148026191Y-232069857D02*
X148073810Y-232022238D01*
X148073810Y-232022238D02*
X148169048Y-231974619D01*
X148835715Y-232307952D02*
X149073810Y-232974619D01*
X149073810Y-232974619D02*
X149311905Y-232307952D01*
%TO.C,J2*%
X282622666Y-169031619D02*
X282622666Y-169745904D01*
X282622666Y-169745904D02*
X282575047Y-169888761D01*
X282575047Y-169888761D02*
X282479809Y-169984000D01*
X282479809Y-169984000D02*
X282336952Y-170031619D01*
X282336952Y-170031619D02*
X282241714Y-170031619D01*
X283051238Y-169126857D02*
X283098857Y-169079238D01*
X283098857Y-169079238D02*
X283194095Y-169031619D01*
X283194095Y-169031619D02*
X283432190Y-169031619D01*
X283432190Y-169031619D02*
X283527428Y-169079238D01*
X283527428Y-169079238D02*
X283575047Y-169126857D01*
X283575047Y-169126857D02*
X283622666Y-169222095D01*
X283622666Y-169222095D02*
X283622666Y-169317333D01*
X283622666Y-169317333D02*
X283575047Y-169460190D01*
X283575047Y-169460190D02*
X283003619Y-170031619D01*
X283003619Y-170031619D02*
X283622666Y-170031619D01*
X280027428Y-173920666D02*
X280789333Y-173920666D01*
X280408380Y-174301619D02*
X280408380Y-173539714D01*
X282027428Y-174301619D02*
X282027428Y-173634952D01*
X282027428Y-173730190D02*
X282075047Y-173682571D01*
X282075047Y-173682571D02*
X282170285Y-173634952D01*
X282170285Y-173634952D02*
X282313142Y-173634952D01*
X282313142Y-173634952D02*
X282408380Y-173682571D01*
X282408380Y-173682571D02*
X282455999Y-173777809D01*
X282455999Y-173777809D02*
X282455999Y-174301619D01*
X282455999Y-173777809D02*
X282503618Y-173682571D01*
X282503618Y-173682571D02*
X282598856Y-173634952D01*
X282598856Y-173634952D02*
X282741713Y-173634952D01*
X282741713Y-173634952D02*
X282836952Y-173682571D01*
X282836952Y-173682571D02*
X282884571Y-173777809D01*
X282884571Y-173777809D02*
X282884571Y-174301619D01*
X283503618Y-174301619D02*
X283408380Y-174254000D01*
X283408380Y-174254000D02*
X283360761Y-174206380D01*
X283360761Y-174206380D02*
X283313142Y-174111142D01*
X283313142Y-174111142D02*
X283313142Y-173825428D01*
X283313142Y-173825428D02*
X283360761Y-173730190D01*
X283360761Y-173730190D02*
X283408380Y-173682571D01*
X283408380Y-173682571D02*
X283503618Y-173634952D01*
X283503618Y-173634952D02*
X283646475Y-173634952D01*
X283646475Y-173634952D02*
X283741713Y-173682571D01*
X283741713Y-173682571D02*
X283789332Y-173730190D01*
X283789332Y-173730190D02*
X283836951Y-173825428D01*
X283836951Y-173825428D02*
X283836951Y-174111142D01*
X283836951Y-174111142D02*
X283789332Y-174206380D01*
X283789332Y-174206380D02*
X283741713Y-174254000D01*
X283741713Y-174254000D02*
X283646475Y-174301619D01*
X283646475Y-174301619D02*
X283503618Y-174301619D01*
X284122666Y-173634952D02*
X284503618Y-173634952D01*
X284265523Y-173301619D02*
X284265523Y-174158761D01*
X284265523Y-174158761D02*
X284313142Y-174254000D01*
X284313142Y-174254000D02*
X284408380Y-174301619D01*
X284408380Y-174301619D02*
X284503618Y-174301619D01*
X284979809Y-174301619D02*
X284884571Y-174254000D01*
X284884571Y-174254000D02*
X284836952Y-174206380D01*
X284836952Y-174206380D02*
X284789333Y-174111142D01*
X284789333Y-174111142D02*
X284789333Y-173825428D01*
X284789333Y-173825428D02*
X284836952Y-173730190D01*
X284836952Y-173730190D02*
X284884571Y-173682571D01*
X284884571Y-173682571D02*
X284979809Y-173634952D01*
X284979809Y-173634952D02*
X285122666Y-173634952D01*
X285122666Y-173634952D02*
X285217904Y-173682571D01*
X285217904Y-173682571D02*
X285265523Y-173730190D01*
X285265523Y-173730190D02*
X285313142Y-173825428D01*
X285313142Y-173825428D02*
X285313142Y-174111142D01*
X285313142Y-174111142D02*
X285265523Y-174206380D01*
X285265523Y-174206380D02*
X285217904Y-174254000D01*
X285217904Y-174254000D02*
X285122666Y-174301619D01*
X285122666Y-174301619D02*
X284979809Y-174301619D01*
X285741714Y-174301619D02*
X285741714Y-173634952D01*
X285741714Y-173825428D02*
X285789333Y-173730190D01*
X285789333Y-173730190D02*
X285836952Y-173682571D01*
X285836952Y-173682571D02*
X285932190Y-173634952D01*
X285932190Y-173634952D02*
X286027428Y-173634952D01*
%TO.C,U3*%
X305817796Y-94797869D02*
X305817796Y-95607392D01*
X305817796Y-95607392D02*
X305865415Y-95702630D01*
X305865415Y-95702630D02*
X305913034Y-95750250D01*
X305913034Y-95750250D02*
X306008272Y-95797869D01*
X306008272Y-95797869D02*
X306198748Y-95797869D01*
X306198748Y-95797869D02*
X306293986Y-95750250D01*
X306293986Y-95750250D02*
X306341605Y-95702630D01*
X306341605Y-95702630D02*
X306389224Y-95607392D01*
X306389224Y-95607392D02*
X306389224Y-94797869D01*
X306770177Y-94797869D02*
X307389224Y-94797869D01*
X307389224Y-94797869D02*
X307055891Y-95178821D01*
X307055891Y-95178821D02*
X307198748Y-95178821D01*
X307198748Y-95178821D02*
X307293986Y-95226440D01*
X307293986Y-95226440D02*
X307341605Y-95274059D01*
X307341605Y-95274059D02*
X307389224Y-95369297D01*
X307389224Y-95369297D02*
X307389224Y-95607392D01*
X307389224Y-95607392D02*
X307341605Y-95702630D01*
X307341605Y-95702630D02*
X307293986Y-95750250D01*
X307293986Y-95750250D02*
X307198748Y-95797869D01*
X307198748Y-95797869D02*
X306913034Y-95797869D01*
X306913034Y-95797869D02*
X306817796Y-95750250D01*
X306817796Y-95750250D02*
X306770177Y-95702630D01*
D11*
X315615415Y-97664529D02*
X315651843Y-97624053D01*
X315651843Y-97624053D02*
X315724701Y-97583577D01*
X315724701Y-97583577D02*
X315906843Y-97583577D01*
X315906843Y-97583577D02*
X315979701Y-97624053D01*
X315979701Y-97624053D02*
X316016129Y-97664529D01*
X316016129Y-97664529D02*
X316052558Y-97745481D01*
X316052558Y-97745481D02*
X316052558Y-97826434D01*
X316052558Y-97826434D02*
X316016129Y-97947862D01*
X316016129Y-97947862D02*
X315578986Y-98433577D01*
X315578986Y-98433577D02*
X316052558Y-98433577D01*
X316307557Y-97583577D02*
X316781129Y-97583577D01*
X316781129Y-97583577D02*
X316526129Y-97907386D01*
X316526129Y-97907386D02*
X316635414Y-97907386D01*
X316635414Y-97907386D02*
X316708272Y-97947862D01*
X316708272Y-97947862D02*
X316744700Y-97988339D01*
X316744700Y-97988339D02*
X316781129Y-98069291D01*
X316781129Y-98069291D02*
X316781129Y-98271672D01*
X316781129Y-98271672D02*
X316744700Y-98352624D01*
X316744700Y-98352624D02*
X316708272Y-98393101D01*
X316708272Y-98393101D02*
X316635414Y-98433577D01*
X316635414Y-98433577D02*
X316416843Y-98433577D01*
X316416843Y-98433577D02*
X316343986Y-98393101D01*
X316343986Y-98393101D02*
X316307557Y-98352624D01*
X316678201Y-123101810D02*
X316678201Y-123668477D01*
X316496058Y-122778001D02*
X316313915Y-123385143D01*
X316313915Y-123385143D02*
X316787486Y-123385143D01*
X296311415Y-120397529D02*
X296347843Y-120357053D01*
X296347843Y-120357053D02*
X296420701Y-120316577D01*
X296420701Y-120316577D02*
X296602843Y-120316577D01*
X296602843Y-120316577D02*
X296675701Y-120357053D01*
X296675701Y-120357053D02*
X296712129Y-120397529D01*
X296712129Y-120397529D02*
X296748558Y-120478481D01*
X296748558Y-120478481D02*
X296748558Y-120559434D01*
X296748558Y-120559434D02*
X296712129Y-120680862D01*
X296712129Y-120680862D02*
X296274986Y-121166577D01*
X296274986Y-121166577D02*
X296748558Y-121166577D01*
X297003557Y-120316577D02*
X297513557Y-120316577D01*
X297513557Y-120316577D02*
X297185700Y-121166577D01*
X315390486Y-106015477D02*
X315135486Y-105610715D01*
X314953343Y-106015477D02*
X314953343Y-105165477D01*
X314953343Y-105165477D02*
X315244772Y-105165477D01*
X315244772Y-105165477D02*
X315317629Y-105205953D01*
X315317629Y-105205953D02*
X315354058Y-105246429D01*
X315354058Y-105246429D02*
X315390486Y-105327381D01*
X315390486Y-105327381D02*
X315390486Y-105448810D01*
X315390486Y-105448810D02*
X315354058Y-105529762D01*
X315354058Y-105529762D02*
X315317629Y-105570239D01*
X315317629Y-105570239D02*
X315244772Y-105610715D01*
X315244772Y-105610715D02*
X314953343Y-105610715D01*
X315645486Y-105165477D02*
X316155486Y-106015477D01*
X316155486Y-105165477D02*
X315645486Y-106015477D01*
X316592629Y-105165477D02*
X316665486Y-105165477D01*
X316665486Y-105165477D02*
X316738343Y-105205953D01*
X316738343Y-105205953D02*
X316774772Y-105246429D01*
X316774772Y-105246429D02*
X316811200Y-105327381D01*
X316811200Y-105327381D02*
X316847629Y-105489286D01*
X316847629Y-105489286D02*
X316847629Y-105691667D01*
X316847629Y-105691667D02*
X316811200Y-105853572D01*
X316811200Y-105853572D02*
X316774772Y-105934524D01*
X316774772Y-105934524D02*
X316738343Y-105975001D01*
X316738343Y-105975001D02*
X316665486Y-106015477D01*
X316665486Y-106015477D02*
X316592629Y-106015477D01*
X316592629Y-106015477D02*
X316519772Y-105975001D01*
X316519772Y-105975001D02*
X316483343Y-105934524D01*
X316483343Y-105934524D02*
X316446914Y-105853572D01*
X316446914Y-105853572D02*
X316410486Y-105691667D01*
X316410486Y-105691667D02*
X316410486Y-105489286D01*
X316410486Y-105489286D02*
X316446914Y-105327381D01*
X316446914Y-105327381D02*
X316483343Y-105246429D01*
X316483343Y-105246429D02*
X316519772Y-105205953D01*
X316519772Y-105205953D02*
X316592629Y-105165477D01*
X296748558Y-128849577D02*
X296311415Y-128849577D01*
X296529986Y-128849577D02*
X296529986Y-127999577D01*
X296529986Y-127999577D02*
X296457129Y-128121005D01*
X296457129Y-128121005D02*
X296384272Y-128201958D01*
X296384272Y-128201958D02*
X296311415Y-128242434D01*
X297003557Y-127999577D02*
X297477129Y-127999577D01*
X297477129Y-127999577D02*
X297222129Y-128323386D01*
X297222129Y-128323386D02*
X297331414Y-128323386D01*
X297331414Y-128323386D02*
X297404272Y-128363862D01*
X297404272Y-128363862D02*
X297440700Y-128404339D01*
X297440700Y-128404339D02*
X297477129Y-128485291D01*
X297477129Y-128485291D02*
X297477129Y-128687672D01*
X297477129Y-128687672D02*
X297440700Y-128768624D01*
X297440700Y-128768624D02*
X297404272Y-128809101D01*
X297404272Y-128809101D02*
X297331414Y-128849577D01*
X297331414Y-128849577D02*
X297112843Y-128849577D01*
X297112843Y-128849577D02*
X297039986Y-128809101D01*
X297039986Y-128809101D02*
X297003557Y-128768624D01*
X296748558Y-126373577D02*
X296311415Y-126373577D01*
X296529986Y-126373577D02*
X296529986Y-125523577D01*
X296529986Y-125523577D02*
X296457129Y-125645005D01*
X296457129Y-125645005D02*
X296384272Y-125725958D01*
X296384272Y-125725958D02*
X296311415Y-125766434D01*
X297039986Y-125604529D02*
X297076414Y-125564053D01*
X297076414Y-125564053D02*
X297149272Y-125523577D01*
X297149272Y-125523577D02*
X297331414Y-125523577D01*
X297331414Y-125523577D02*
X297404272Y-125564053D01*
X297404272Y-125564053D02*
X297440700Y-125604529D01*
X297440700Y-125604529D02*
X297477129Y-125685481D01*
X297477129Y-125685481D02*
X297477129Y-125766434D01*
X297477129Y-125766434D02*
X297440700Y-125887862D01*
X297440700Y-125887862D02*
X297003557Y-126373577D01*
X297003557Y-126373577D02*
X297477129Y-126373577D01*
X296274986Y-112696577D02*
X296748558Y-112696577D01*
X296748558Y-112696577D02*
X296493558Y-113020386D01*
X296493558Y-113020386D02*
X296602843Y-113020386D01*
X296602843Y-113020386D02*
X296675701Y-113060862D01*
X296675701Y-113060862D02*
X296712129Y-113101339D01*
X296712129Y-113101339D02*
X296748558Y-113182291D01*
X296748558Y-113182291D02*
X296748558Y-113384672D01*
X296748558Y-113384672D02*
X296712129Y-113465624D01*
X296712129Y-113465624D02*
X296675701Y-113506101D01*
X296675701Y-113506101D02*
X296602843Y-113546577D01*
X296602843Y-113546577D02*
X296384272Y-113546577D01*
X296384272Y-113546577D02*
X296311415Y-113506101D01*
X296311415Y-113506101D02*
X296274986Y-113465624D01*
X297003557Y-112696577D02*
X297477129Y-112696577D01*
X297477129Y-112696577D02*
X297222129Y-113020386D01*
X297222129Y-113020386D02*
X297331414Y-113020386D01*
X297331414Y-113020386D02*
X297404272Y-113060862D01*
X297404272Y-113060862D02*
X297440700Y-113101339D01*
X297440700Y-113101339D02*
X297477129Y-113182291D01*
X297477129Y-113182291D02*
X297477129Y-113384672D01*
X297477129Y-113384672D02*
X297440700Y-113465624D01*
X297440700Y-113465624D02*
X297404272Y-113506101D01*
X297404272Y-113506101D02*
X297331414Y-113546577D01*
X297331414Y-113546577D02*
X297112843Y-113546577D01*
X297112843Y-113546577D02*
X297039986Y-113506101D01*
X297039986Y-113506101D02*
X297003557Y-113465624D01*
D10*
X306312153Y-126734774D02*
X306978820Y-126734774D01*
X306312153Y-127163345D02*
X306835962Y-127163345D01*
X306835962Y-127163345D02*
X306931201Y-127115726D01*
X306931201Y-127115726D02*
X306978820Y-127020488D01*
X306978820Y-127020488D02*
X306978820Y-126877631D01*
X306978820Y-126877631D02*
X306931201Y-126782393D01*
X306931201Y-126782393D02*
X306883581Y-126734774D01*
X306978820Y-126258583D02*
X305978820Y-126258583D01*
X305978820Y-126258583D02*
X305978820Y-125877631D01*
X305978820Y-125877631D02*
X306026439Y-125782393D01*
X306026439Y-125782393D02*
X306074058Y-125734774D01*
X306074058Y-125734774D02*
X306169296Y-125687155D01*
X306169296Y-125687155D02*
X306312153Y-125687155D01*
X306312153Y-125687155D02*
X306407391Y-125734774D01*
X306407391Y-125734774D02*
X306455010Y-125782393D01*
X306455010Y-125782393D02*
X306502629Y-125877631D01*
X306502629Y-125877631D02*
X306502629Y-126258583D01*
X306931201Y-124877631D02*
X306978820Y-124972869D01*
X306978820Y-124972869D02*
X306978820Y-125163345D01*
X306978820Y-125163345D02*
X306931201Y-125258583D01*
X306931201Y-125258583D02*
X306835962Y-125306202D01*
X306835962Y-125306202D02*
X306455010Y-125306202D01*
X306455010Y-125306202D02*
X306359772Y-125258583D01*
X306359772Y-125258583D02*
X306312153Y-125163345D01*
X306312153Y-125163345D02*
X306312153Y-124972869D01*
X306312153Y-124972869D02*
X306359772Y-124877631D01*
X306359772Y-124877631D02*
X306455010Y-124830012D01*
X306455010Y-124830012D02*
X306550248Y-124830012D01*
X306550248Y-124830012D02*
X306645486Y-125306202D01*
X306931201Y-124449059D02*
X306978820Y-124353821D01*
X306978820Y-124353821D02*
X306978820Y-124163345D01*
X306978820Y-124163345D02*
X306931201Y-124068107D01*
X306931201Y-124068107D02*
X306835962Y-124020488D01*
X306835962Y-124020488D02*
X306788343Y-124020488D01*
X306788343Y-124020488D02*
X306693105Y-124068107D01*
X306693105Y-124068107D02*
X306645486Y-124163345D01*
X306645486Y-124163345D02*
X306645486Y-124306202D01*
X306645486Y-124306202D02*
X306597867Y-124401440D01*
X306597867Y-124401440D02*
X306502629Y-124449059D01*
X306502629Y-124449059D02*
X306455010Y-124449059D01*
X306455010Y-124449059D02*
X306359772Y-124401440D01*
X306359772Y-124401440D02*
X306312153Y-124306202D01*
X306312153Y-124306202D02*
X306312153Y-124163345D01*
X306312153Y-124163345D02*
X306359772Y-124068107D01*
X306312153Y-123687154D02*
X306978820Y-123449059D01*
X306312153Y-123210964D02*
X306978820Y-123449059D01*
X306978820Y-123449059D02*
X307216915Y-123544297D01*
X307216915Y-123544297D02*
X307264534Y-123591916D01*
X307264534Y-123591916D02*
X307312153Y-123687154D01*
X306455010Y-122068106D02*
X306455010Y-121734773D01*
X306978820Y-121591916D02*
X306978820Y-122068106D01*
X306978820Y-122068106D02*
X305978820Y-122068106D01*
X305978820Y-122068106D02*
X305978820Y-121591916D01*
X306931201Y-121210963D02*
X306978820Y-121068106D01*
X306978820Y-121068106D02*
X306978820Y-120830011D01*
X306978820Y-120830011D02*
X306931201Y-120734773D01*
X306931201Y-120734773D02*
X306883581Y-120687154D01*
X306883581Y-120687154D02*
X306788343Y-120639535D01*
X306788343Y-120639535D02*
X306693105Y-120639535D01*
X306693105Y-120639535D02*
X306597867Y-120687154D01*
X306597867Y-120687154D02*
X306550248Y-120734773D01*
X306550248Y-120734773D02*
X306502629Y-120830011D01*
X306502629Y-120830011D02*
X306455010Y-121020487D01*
X306455010Y-121020487D02*
X306407391Y-121115725D01*
X306407391Y-121115725D02*
X306359772Y-121163344D01*
X306359772Y-121163344D02*
X306264534Y-121210963D01*
X306264534Y-121210963D02*
X306169296Y-121210963D01*
X306169296Y-121210963D02*
X306074058Y-121163344D01*
X306074058Y-121163344D02*
X306026439Y-121115725D01*
X306026439Y-121115725D02*
X305978820Y-121020487D01*
X305978820Y-121020487D02*
X305978820Y-120782392D01*
X305978820Y-120782392D02*
X306026439Y-120639535D01*
X306978820Y-120210963D02*
X305978820Y-120210963D01*
X305978820Y-120210963D02*
X305978820Y-119830011D01*
X305978820Y-119830011D02*
X306026439Y-119734773D01*
X306026439Y-119734773D02*
X306074058Y-119687154D01*
X306074058Y-119687154D02*
X306169296Y-119639535D01*
X306169296Y-119639535D02*
X306312153Y-119639535D01*
X306312153Y-119639535D02*
X306407391Y-119687154D01*
X306407391Y-119687154D02*
X306455010Y-119734773D01*
X306455010Y-119734773D02*
X306502629Y-119830011D01*
X306502629Y-119830011D02*
X306502629Y-120210963D01*
X305978820Y-119306201D02*
X305978820Y-118687154D01*
X305978820Y-118687154D02*
X306359772Y-119020487D01*
X306359772Y-119020487D02*
X306359772Y-118877630D01*
X306359772Y-118877630D02*
X306407391Y-118782392D01*
X306407391Y-118782392D02*
X306455010Y-118734773D01*
X306455010Y-118734773D02*
X306550248Y-118687154D01*
X306550248Y-118687154D02*
X306788343Y-118687154D01*
X306788343Y-118687154D02*
X306883581Y-118734773D01*
X306883581Y-118734773D02*
X306931201Y-118782392D01*
X306931201Y-118782392D02*
X306978820Y-118877630D01*
X306978820Y-118877630D02*
X306978820Y-119163344D01*
X306978820Y-119163344D02*
X306931201Y-119258582D01*
X306931201Y-119258582D02*
X306883581Y-119306201D01*
X306074058Y-118306201D02*
X306026439Y-118258582D01*
X306026439Y-118258582D02*
X305978820Y-118163344D01*
X305978820Y-118163344D02*
X305978820Y-117925249D01*
X305978820Y-117925249D02*
X306026439Y-117830011D01*
X306026439Y-117830011D02*
X306074058Y-117782392D01*
X306074058Y-117782392D02*
X306169296Y-117734773D01*
X306169296Y-117734773D02*
X306264534Y-117734773D01*
X306264534Y-117734773D02*
X306407391Y-117782392D01*
X306407391Y-117782392D02*
X306978820Y-118353820D01*
X306978820Y-118353820D02*
X306978820Y-117734773D01*
X305978820Y-116639534D02*
X306978820Y-116401439D01*
X306978820Y-116401439D02*
X306264534Y-116210963D01*
X306264534Y-116210963D02*
X306978820Y-116020487D01*
X306978820Y-116020487D02*
X305978820Y-115782392D01*
X306978820Y-115401439D02*
X306312153Y-115401439D01*
X306502629Y-115401439D02*
X306407391Y-115353820D01*
X306407391Y-115353820D02*
X306359772Y-115306201D01*
X306359772Y-115306201D02*
X306312153Y-115210963D01*
X306312153Y-115210963D02*
X306312153Y-115115725D01*
X306978820Y-114639534D02*
X306931201Y-114734772D01*
X306931201Y-114734772D02*
X306883581Y-114782391D01*
X306883581Y-114782391D02*
X306788343Y-114830010D01*
X306788343Y-114830010D02*
X306502629Y-114830010D01*
X306502629Y-114830010D02*
X306407391Y-114782391D01*
X306407391Y-114782391D02*
X306359772Y-114734772D01*
X306359772Y-114734772D02*
X306312153Y-114639534D01*
X306312153Y-114639534D02*
X306312153Y-114496677D01*
X306312153Y-114496677D02*
X306359772Y-114401439D01*
X306359772Y-114401439D02*
X306407391Y-114353820D01*
X306407391Y-114353820D02*
X306502629Y-114306201D01*
X306502629Y-114306201D02*
X306788343Y-114306201D01*
X306788343Y-114306201D02*
X306883581Y-114353820D01*
X306883581Y-114353820D02*
X306931201Y-114401439D01*
X306931201Y-114401439D02*
X306978820Y-114496677D01*
X306978820Y-114496677D02*
X306978820Y-114639534D01*
X306978820Y-113734772D02*
X306931201Y-113830010D01*
X306931201Y-113830010D02*
X306883581Y-113877629D01*
X306883581Y-113877629D02*
X306788343Y-113925248D01*
X306788343Y-113925248D02*
X306502629Y-113925248D01*
X306502629Y-113925248D02*
X306407391Y-113877629D01*
X306407391Y-113877629D02*
X306359772Y-113830010D01*
X306359772Y-113830010D02*
X306312153Y-113734772D01*
X306312153Y-113734772D02*
X306312153Y-113591915D01*
X306312153Y-113591915D02*
X306359772Y-113496677D01*
X306359772Y-113496677D02*
X306407391Y-113449058D01*
X306407391Y-113449058D02*
X306502629Y-113401439D01*
X306502629Y-113401439D02*
X306788343Y-113401439D01*
X306788343Y-113401439D02*
X306883581Y-113449058D01*
X306883581Y-113449058D02*
X306931201Y-113496677D01*
X306931201Y-113496677D02*
X306978820Y-113591915D01*
X306978820Y-113591915D02*
X306978820Y-113734772D01*
X306978820Y-112972867D02*
X306312153Y-112972867D01*
X306407391Y-112972867D02*
X306359772Y-112925248D01*
X306359772Y-112925248D02*
X306312153Y-112830010D01*
X306312153Y-112830010D02*
X306312153Y-112687153D01*
X306312153Y-112687153D02*
X306359772Y-112591915D01*
X306359772Y-112591915D02*
X306455010Y-112544296D01*
X306455010Y-112544296D02*
X306978820Y-112544296D01*
X306455010Y-112544296D02*
X306359772Y-112496677D01*
X306359772Y-112496677D02*
X306312153Y-112401439D01*
X306312153Y-112401439D02*
X306312153Y-112258582D01*
X306312153Y-112258582D02*
X306359772Y-112163343D01*
X306359772Y-112163343D02*
X306455010Y-112115724D01*
X306455010Y-112115724D02*
X306978820Y-112115724D01*
X306978820Y-110877629D02*
X305978820Y-110877629D01*
X305978820Y-110877629D02*
X305978820Y-110639534D01*
X305978820Y-110639534D02*
X306026439Y-110496677D01*
X306026439Y-110496677D02*
X306121677Y-110401439D01*
X306121677Y-110401439D02*
X306216915Y-110353820D01*
X306216915Y-110353820D02*
X306407391Y-110306201D01*
X306407391Y-110306201D02*
X306550248Y-110306201D01*
X306550248Y-110306201D02*
X306740724Y-110353820D01*
X306740724Y-110353820D02*
X306835962Y-110401439D01*
X306835962Y-110401439D02*
X306931201Y-110496677D01*
X306931201Y-110496677D02*
X306978820Y-110639534D01*
X306978820Y-110639534D02*
X306978820Y-110877629D01*
X306931201Y-109496677D02*
X306978820Y-109591915D01*
X306978820Y-109591915D02*
X306978820Y-109782391D01*
X306978820Y-109782391D02*
X306931201Y-109877629D01*
X306931201Y-109877629D02*
X306835962Y-109925248D01*
X306835962Y-109925248D02*
X306455010Y-109925248D01*
X306455010Y-109925248D02*
X306359772Y-109877629D01*
X306359772Y-109877629D02*
X306312153Y-109782391D01*
X306312153Y-109782391D02*
X306312153Y-109591915D01*
X306312153Y-109591915D02*
X306359772Y-109496677D01*
X306359772Y-109496677D02*
X306455010Y-109449058D01*
X306455010Y-109449058D02*
X306550248Y-109449058D01*
X306550248Y-109449058D02*
X306645486Y-109925248D01*
X306312153Y-109115724D02*
X306978820Y-108877629D01*
X306978820Y-108877629D02*
X306312153Y-108639534D01*
X306978820Y-108258581D02*
X305978820Y-108258581D01*
X306978820Y-107687153D02*
X306407391Y-108115724D01*
X305978820Y-107687153D02*
X306550248Y-108258581D01*
X306978820Y-107258581D02*
X306312153Y-107258581D01*
X305978820Y-107258581D02*
X306026439Y-107306200D01*
X306026439Y-107306200D02*
X306074058Y-107258581D01*
X306074058Y-107258581D02*
X306026439Y-107210962D01*
X306026439Y-107210962D02*
X305978820Y-107258581D01*
X305978820Y-107258581D02*
X306074058Y-107258581D01*
X306312153Y-106925248D02*
X306312153Y-106544296D01*
X305978820Y-106782391D02*
X306835962Y-106782391D01*
X306835962Y-106782391D02*
X306931201Y-106734772D01*
X306931201Y-106734772D02*
X306978820Y-106639534D01*
X306978820Y-106639534D02*
X306978820Y-106544296D01*
D11*
X316496058Y-125358477D02*
X316568915Y-125358477D01*
X316568915Y-125358477D02*
X316641772Y-125398953D01*
X316641772Y-125398953D02*
X316678201Y-125439429D01*
X316678201Y-125439429D02*
X316714629Y-125520381D01*
X316714629Y-125520381D02*
X316751058Y-125682286D01*
X316751058Y-125682286D02*
X316751058Y-125884667D01*
X316751058Y-125884667D02*
X316714629Y-126046572D01*
X316714629Y-126046572D02*
X316678201Y-126127524D01*
X316678201Y-126127524D02*
X316641772Y-126168001D01*
X316641772Y-126168001D02*
X316568915Y-126208477D01*
X316568915Y-126208477D02*
X316496058Y-126208477D01*
X316496058Y-126208477D02*
X316423201Y-126168001D01*
X316423201Y-126168001D02*
X316386772Y-126127524D01*
X316386772Y-126127524D02*
X316350343Y-126046572D01*
X316350343Y-126046572D02*
X316313915Y-125884667D01*
X316313915Y-125884667D02*
X316313915Y-125682286D01*
X316313915Y-125682286D02*
X316350343Y-125520381D01*
X316350343Y-125520381D02*
X316386772Y-125439429D01*
X316386772Y-125439429D02*
X316423201Y-125398953D01*
X316423201Y-125398953D02*
X316496058Y-125358477D01*
X296712129Y-133080577D02*
X296347843Y-133080577D01*
X296347843Y-133080577D02*
X296311415Y-133485339D01*
X296311415Y-133485339D02*
X296347843Y-133444862D01*
X296347843Y-133444862D02*
X296420701Y-133404386D01*
X296420701Y-133404386D02*
X296602843Y-133404386D01*
X296602843Y-133404386D02*
X296675701Y-133444862D01*
X296675701Y-133444862D02*
X296712129Y-133485339D01*
X296712129Y-133485339D02*
X296748558Y-133566291D01*
X296748558Y-133566291D02*
X296748558Y-133768672D01*
X296748558Y-133768672D02*
X296712129Y-133849624D01*
X296712129Y-133849624D02*
X296675701Y-133890101D01*
X296675701Y-133890101D02*
X296602843Y-133930577D01*
X296602843Y-133930577D02*
X296420701Y-133930577D01*
X296420701Y-133930577D02*
X296347843Y-133890101D01*
X296347843Y-133890101D02*
X296311415Y-133849624D01*
X296967129Y-133080577D02*
X297222129Y-133930577D01*
X297222129Y-133930577D02*
X297477129Y-133080577D01*
X296274986Y-102536577D02*
X296748558Y-102536577D01*
X296748558Y-102536577D02*
X296493558Y-102860386D01*
X296493558Y-102860386D02*
X296602843Y-102860386D01*
X296602843Y-102860386D02*
X296675701Y-102900862D01*
X296675701Y-102900862D02*
X296712129Y-102941339D01*
X296712129Y-102941339D02*
X296748558Y-103022291D01*
X296748558Y-103022291D02*
X296748558Y-103224672D01*
X296748558Y-103224672D02*
X296712129Y-103305624D01*
X296712129Y-103305624D02*
X296675701Y-103346101D01*
X296675701Y-103346101D02*
X296602843Y-103386577D01*
X296602843Y-103386577D02*
X296384272Y-103386577D01*
X296384272Y-103386577D02*
X296311415Y-103346101D01*
X296311415Y-103346101D02*
X296274986Y-103305624D01*
X297112843Y-103386577D02*
X297258557Y-103386577D01*
X297258557Y-103386577D02*
X297331414Y-103346101D01*
X297331414Y-103346101D02*
X297367843Y-103305624D01*
X297367843Y-103305624D02*
X297440700Y-103184196D01*
X297440700Y-103184196D02*
X297477129Y-103022291D01*
X297477129Y-103022291D02*
X297477129Y-102698481D01*
X297477129Y-102698481D02*
X297440700Y-102617529D01*
X297440700Y-102617529D02*
X297404272Y-102577053D01*
X297404272Y-102577053D02*
X297331414Y-102536577D01*
X297331414Y-102536577D02*
X297185700Y-102536577D01*
X297185700Y-102536577D02*
X297112843Y-102577053D01*
X297112843Y-102577053D02*
X297076414Y-102617529D01*
X297076414Y-102617529D02*
X297039986Y-102698481D01*
X297039986Y-102698481D02*
X297039986Y-102900862D01*
X297039986Y-102900862D02*
X297076414Y-102981815D01*
X297076414Y-102981815D02*
X297112843Y-103022291D01*
X297112843Y-103022291D02*
X297185700Y-103062767D01*
X297185700Y-103062767D02*
X297331414Y-103062767D01*
X297331414Y-103062767D02*
X297404272Y-103022291D01*
X297404272Y-103022291D02*
X297440700Y-102981815D01*
X297440700Y-102981815D02*
X297477129Y-102900862D01*
X296311415Y-115444529D02*
X296347843Y-115404053D01*
X296347843Y-115404053D02*
X296420701Y-115363577D01*
X296420701Y-115363577D02*
X296602843Y-115363577D01*
X296602843Y-115363577D02*
X296675701Y-115404053D01*
X296675701Y-115404053D02*
X296712129Y-115444529D01*
X296712129Y-115444529D02*
X296748558Y-115525481D01*
X296748558Y-115525481D02*
X296748558Y-115606434D01*
X296748558Y-115606434D02*
X296712129Y-115727862D01*
X296712129Y-115727862D02*
X296274986Y-116213577D01*
X296274986Y-116213577D02*
X296748558Y-116213577D01*
X297440700Y-115363577D02*
X297076414Y-115363577D01*
X297076414Y-115363577D02*
X297039986Y-115768339D01*
X297039986Y-115768339D02*
X297076414Y-115727862D01*
X297076414Y-115727862D02*
X297149272Y-115687386D01*
X297149272Y-115687386D02*
X297331414Y-115687386D01*
X297331414Y-115687386D02*
X297404272Y-115727862D01*
X297404272Y-115727862D02*
X297440700Y-115768339D01*
X297440700Y-115768339D02*
X297477129Y-115849291D01*
X297477129Y-115849291D02*
X297477129Y-116051672D01*
X297477129Y-116051672D02*
X297440700Y-116132624D01*
X297440700Y-116132624D02*
X297404272Y-116173101D01*
X297404272Y-116173101D02*
X297331414Y-116213577D01*
X297331414Y-116213577D02*
X297149272Y-116213577D01*
X297149272Y-116213577D02*
X297076414Y-116173101D01*
X297076414Y-116173101D02*
X297039986Y-116132624D01*
X296748558Y-123833577D02*
X296311415Y-123833577D01*
X296529986Y-123833577D02*
X296529986Y-122983577D01*
X296529986Y-122983577D02*
X296457129Y-123105005D01*
X296457129Y-123105005D02*
X296384272Y-123185958D01*
X296384272Y-123185958D02*
X296311415Y-123226434D01*
X297404272Y-123266910D02*
X297404272Y-123833577D01*
X297222129Y-122943101D02*
X297039986Y-123550243D01*
X297039986Y-123550243D02*
X297513557Y-123550243D01*
X316313915Y-128106429D02*
X316350343Y-128065953D01*
X316350343Y-128065953D02*
X316423201Y-128025477D01*
X316423201Y-128025477D02*
X316605343Y-128025477D01*
X316605343Y-128025477D02*
X316678201Y-128065953D01*
X316678201Y-128065953D02*
X316714629Y-128106429D01*
X316714629Y-128106429D02*
X316751058Y-128187381D01*
X316751058Y-128187381D02*
X316751058Y-128268334D01*
X316751058Y-128268334D02*
X316714629Y-128389762D01*
X316714629Y-128389762D02*
X316277486Y-128875477D01*
X316277486Y-128875477D02*
X316751058Y-128875477D01*
X315227058Y-135685953D02*
X315154201Y-135645477D01*
X315154201Y-135645477D02*
X315044915Y-135645477D01*
X315044915Y-135645477D02*
X314935629Y-135685953D01*
X314935629Y-135685953D02*
X314862772Y-135766905D01*
X314862772Y-135766905D02*
X314826343Y-135847858D01*
X314826343Y-135847858D02*
X314789915Y-136009762D01*
X314789915Y-136009762D02*
X314789915Y-136131191D01*
X314789915Y-136131191D02*
X314826343Y-136293096D01*
X314826343Y-136293096D02*
X314862772Y-136374048D01*
X314862772Y-136374048D02*
X314935629Y-136455001D01*
X314935629Y-136455001D02*
X315044915Y-136495477D01*
X315044915Y-136495477D02*
X315117772Y-136495477D01*
X315117772Y-136495477D02*
X315227058Y-136455001D01*
X315227058Y-136455001D02*
X315263486Y-136414524D01*
X315263486Y-136414524D02*
X315263486Y-136131191D01*
X315263486Y-136131191D02*
X315117772Y-136131191D01*
X315591343Y-136495477D02*
X315591343Y-135645477D01*
X315591343Y-135645477D02*
X316028486Y-136495477D01*
X316028486Y-136495477D02*
X316028486Y-135645477D01*
X316392772Y-136495477D02*
X316392772Y-135645477D01*
X316392772Y-135645477D02*
X316574915Y-135645477D01*
X316574915Y-135645477D02*
X316684201Y-135685953D01*
X316684201Y-135685953D02*
X316757058Y-135766905D01*
X316757058Y-135766905D02*
X316793487Y-135847858D01*
X316793487Y-135847858D02*
X316829915Y-136009762D01*
X316829915Y-136009762D02*
X316829915Y-136131191D01*
X316829915Y-136131191D02*
X316793487Y-136293096D01*
X316793487Y-136293096D02*
X316757058Y-136374048D01*
X316757058Y-136374048D02*
X316684201Y-136455001D01*
X316684201Y-136455001D02*
X316574915Y-136495477D01*
X316574915Y-136495477D02*
X316392772Y-136495477D01*
X315007486Y-133105477D02*
X315481058Y-133105477D01*
X315481058Y-133105477D02*
X315226058Y-133429286D01*
X315226058Y-133429286D02*
X315335343Y-133429286D01*
X315335343Y-133429286D02*
X315408201Y-133469762D01*
X315408201Y-133469762D02*
X315444629Y-133510239D01*
X315444629Y-133510239D02*
X315481058Y-133591191D01*
X315481058Y-133591191D02*
X315481058Y-133793572D01*
X315481058Y-133793572D02*
X315444629Y-133874524D01*
X315444629Y-133874524D02*
X315408201Y-133915001D01*
X315408201Y-133915001D02*
X315335343Y-133955477D01*
X315335343Y-133955477D02*
X315116772Y-133955477D01*
X315116772Y-133955477D02*
X315043915Y-133915001D01*
X315043915Y-133915001D02*
X315007486Y-133874524D01*
X315699629Y-133105477D02*
X315954629Y-133955477D01*
X315954629Y-133955477D02*
X316209629Y-133105477D01*
X316391771Y-133105477D02*
X316865343Y-133105477D01*
X316865343Y-133105477D02*
X316610343Y-133429286D01*
X316610343Y-133429286D02*
X316719628Y-133429286D01*
X316719628Y-133429286D02*
X316792486Y-133469762D01*
X316792486Y-133469762D02*
X316828914Y-133510239D01*
X316828914Y-133510239D02*
X316865343Y-133591191D01*
X316865343Y-133591191D02*
X316865343Y-133793572D01*
X316865343Y-133793572D02*
X316828914Y-133874524D01*
X316828914Y-133874524D02*
X316792486Y-133915001D01*
X316792486Y-133915001D02*
X316719628Y-133955477D01*
X316719628Y-133955477D02*
X316501057Y-133955477D01*
X316501057Y-133955477D02*
X316428200Y-133915001D01*
X316428200Y-133915001D02*
X316391771Y-133874524D01*
X296274986Y-110283577D02*
X296748558Y-110283577D01*
X296748558Y-110283577D02*
X296493558Y-110607386D01*
X296493558Y-110607386D02*
X296602843Y-110607386D01*
X296602843Y-110607386D02*
X296675701Y-110647862D01*
X296675701Y-110647862D02*
X296712129Y-110688339D01*
X296712129Y-110688339D02*
X296748558Y-110769291D01*
X296748558Y-110769291D02*
X296748558Y-110971672D01*
X296748558Y-110971672D02*
X296712129Y-111052624D01*
X296712129Y-111052624D02*
X296675701Y-111093101D01*
X296675701Y-111093101D02*
X296602843Y-111133577D01*
X296602843Y-111133577D02*
X296384272Y-111133577D01*
X296384272Y-111133577D02*
X296311415Y-111093101D01*
X296311415Y-111093101D02*
X296274986Y-111052624D01*
X297039986Y-110364529D02*
X297076414Y-110324053D01*
X297076414Y-110324053D02*
X297149272Y-110283577D01*
X297149272Y-110283577D02*
X297331414Y-110283577D01*
X297331414Y-110283577D02*
X297404272Y-110324053D01*
X297404272Y-110324053D02*
X297440700Y-110364529D01*
X297440700Y-110364529D02*
X297477129Y-110445481D01*
X297477129Y-110445481D02*
X297477129Y-110526434D01*
X297477129Y-110526434D02*
X297440700Y-110647862D01*
X297440700Y-110647862D02*
X297003557Y-111133577D01*
X297003557Y-111133577D02*
X297477129Y-111133577D01*
X296347843Y-97861339D02*
X296602843Y-97861339D01*
X296712129Y-98306577D02*
X296347843Y-98306577D01*
X296347843Y-98306577D02*
X296347843Y-97456577D01*
X296347843Y-97456577D02*
X296712129Y-97456577D01*
X297039986Y-98306577D02*
X297039986Y-97456577D01*
X297039986Y-97456577D02*
X297477129Y-98306577D01*
X297477129Y-98306577D02*
X297477129Y-97456577D01*
X316116058Y-121255477D02*
X315678915Y-121255477D01*
X315897486Y-121255477D02*
X315897486Y-120405477D01*
X315897486Y-120405477D02*
X315824629Y-120526905D01*
X315824629Y-120526905D02*
X315751772Y-120607858D01*
X315751772Y-120607858D02*
X315678915Y-120648334D01*
X316771772Y-120405477D02*
X316626057Y-120405477D01*
X316626057Y-120405477D02*
X316553200Y-120445953D01*
X316553200Y-120445953D02*
X316516772Y-120486429D01*
X316516772Y-120486429D02*
X316443914Y-120607858D01*
X316443914Y-120607858D02*
X316407486Y-120769762D01*
X316407486Y-120769762D02*
X316407486Y-121093572D01*
X316407486Y-121093572D02*
X316443914Y-121174524D01*
X316443914Y-121174524D02*
X316480343Y-121215001D01*
X316480343Y-121215001D02*
X316553200Y-121255477D01*
X316553200Y-121255477D02*
X316698914Y-121255477D01*
X316698914Y-121255477D02*
X316771772Y-121215001D01*
X316771772Y-121215001D02*
X316808200Y-121174524D01*
X316808200Y-121174524D02*
X316844629Y-121093572D01*
X316844629Y-121093572D02*
X316844629Y-120891191D01*
X316844629Y-120891191D02*
X316808200Y-120810239D01*
X316808200Y-120810239D02*
X316771772Y-120769762D01*
X316771772Y-120769762D02*
X316698914Y-120729286D01*
X316698914Y-120729286D02*
X316553200Y-120729286D01*
X316553200Y-120729286D02*
X316480343Y-120769762D01*
X316480343Y-120769762D02*
X316443914Y-120810239D01*
X316443914Y-120810239D02*
X316407486Y-120891191D01*
X314971058Y-102625477D02*
X315408201Y-102625477D01*
X315189629Y-103475477D02*
X315189629Y-102625477D01*
X315590343Y-102625477D02*
X316100343Y-103475477D01*
X316100343Y-102625477D02*
X315590343Y-103475477D01*
X316537486Y-102625477D02*
X316610343Y-102625477D01*
X316610343Y-102625477D02*
X316683200Y-102665953D01*
X316683200Y-102665953D02*
X316719629Y-102706429D01*
X316719629Y-102706429D02*
X316756057Y-102787381D01*
X316756057Y-102787381D02*
X316792486Y-102949286D01*
X316792486Y-102949286D02*
X316792486Y-103151667D01*
X316792486Y-103151667D02*
X316756057Y-103313572D01*
X316756057Y-103313572D02*
X316719629Y-103394524D01*
X316719629Y-103394524D02*
X316683200Y-103435001D01*
X316683200Y-103435001D02*
X316610343Y-103475477D01*
X316610343Y-103475477D02*
X316537486Y-103475477D01*
X316537486Y-103475477D02*
X316464629Y-103435001D01*
X316464629Y-103435001D02*
X316428200Y-103394524D01*
X316428200Y-103394524D02*
X316391771Y-103313572D01*
X316391771Y-103313572D02*
X316355343Y-103151667D01*
X316355343Y-103151667D02*
X316355343Y-102949286D01*
X316355343Y-102949286D02*
X316391771Y-102787381D01*
X316391771Y-102787381D02*
X316428200Y-102706429D01*
X316428200Y-102706429D02*
X316464629Y-102665953D01*
X316464629Y-102665953D02*
X316537486Y-102625477D01*
X296274986Y-105076577D02*
X296748558Y-105076577D01*
X296748558Y-105076577D02*
X296493558Y-105400386D01*
X296493558Y-105400386D02*
X296602843Y-105400386D01*
X296602843Y-105400386D02*
X296675701Y-105440862D01*
X296675701Y-105440862D02*
X296712129Y-105481339D01*
X296712129Y-105481339D02*
X296748558Y-105562291D01*
X296748558Y-105562291D02*
X296748558Y-105764672D01*
X296748558Y-105764672D02*
X296712129Y-105845624D01*
X296712129Y-105845624D02*
X296675701Y-105886101D01*
X296675701Y-105886101D02*
X296602843Y-105926577D01*
X296602843Y-105926577D02*
X296384272Y-105926577D01*
X296384272Y-105926577D02*
X296311415Y-105886101D01*
X296311415Y-105886101D02*
X296274986Y-105845624D01*
X297404272Y-105359910D02*
X297404272Y-105926577D01*
X297222129Y-105036101D02*
X297039986Y-105643243D01*
X297039986Y-105643243D02*
X297513557Y-105643243D01*
X296311415Y-117857529D02*
X296347843Y-117817053D01*
X296347843Y-117817053D02*
X296420701Y-117776577D01*
X296420701Y-117776577D02*
X296602843Y-117776577D01*
X296602843Y-117776577D02*
X296675701Y-117817053D01*
X296675701Y-117817053D02*
X296712129Y-117857529D01*
X296712129Y-117857529D02*
X296748558Y-117938481D01*
X296748558Y-117938481D02*
X296748558Y-118019434D01*
X296748558Y-118019434D02*
X296712129Y-118140862D01*
X296712129Y-118140862D02*
X296274986Y-118626577D01*
X296274986Y-118626577D02*
X296748558Y-118626577D01*
X297404272Y-117776577D02*
X297258557Y-117776577D01*
X297258557Y-117776577D02*
X297185700Y-117817053D01*
X297185700Y-117817053D02*
X297149272Y-117857529D01*
X297149272Y-117857529D02*
X297076414Y-117978958D01*
X297076414Y-117978958D02*
X297039986Y-118140862D01*
X297039986Y-118140862D02*
X297039986Y-118464672D01*
X297039986Y-118464672D02*
X297076414Y-118545624D01*
X297076414Y-118545624D02*
X297112843Y-118586101D01*
X297112843Y-118586101D02*
X297185700Y-118626577D01*
X297185700Y-118626577D02*
X297331414Y-118626577D01*
X297331414Y-118626577D02*
X297404272Y-118586101D01*
X297404272Y-118586101D02*
X297440700Y-118545624D01*
X297440700Y-118545624D02*
X297477129Y-118464672D01*
X297477129Y-118464672D02*
X297477129Y-118262291D01*
X297477129Y-118262291D02*
X297440700Y-118181339D01*
X297440700Y-118181339D02*
X297404272Y-118140862D01*
X297404272Y-118140862D02*
X297331414Y-118100386D01*
X297331414Y-118100386D02*
X297185700Y-118100386D01*
X297185700Y-118100386D02*
X297112843Y-118140862D01*
X297112843Y-118140862D02*
X297076414Y-118181339D01*
X297076414Y-118181339D02*
X297039986Y-118262291D01*
X315615415Y-107786429D02*
X315651843Y-107745953D01*
X315651843Y-107745953D02*
X315724701Y-107705477D01*
X315724701Y-107705477D02*
X315906843Y-107705477D01*
X315906843Y-107705477D02*
X315979701Y-107745953D01*
X315979701Y-107745953D02*
X316016129Y-107786429D01*
X316016129Y-107786429D02*
X316052558Y-107867381D01*
X316052558Y-107867381D02*
X316052558Y-107948334D01*
X316052558Y-107948334D02*
X316016129Y-108069762D01*
X316016129Y-108069762D02*
X315578986Y-108555477D01*
X315578986Y-108555477D02*
X316052558Y-108555477D01*
X316781129Y-108555477D02*
X316343986Y-108555477D01*
X316562557Y-108555477D02*
X316562557Y-107705477D01*
X316562557Y-107705477D02*
X316489700Y-107826905D01*
X316489700Y-107826905D02*
X316416843Y-107907858D01*
X316416843Y-107907858D02*
X316343986Y-107948334D01*
X296274986Y-107743577D02*
X296748558Y-107743577D01*
X296748558Y-107743577D02*
X296493558Y-108067386D01*
X296493558Y-108067386D02*
X296602843Y-108067386D01*
X296602843Y-108067386D02*
X296675701Y-108107862D01*
X296675701Y-108107862D02*
X296712129Y-108148339D01*
X296712129Y-108148339D02*
X296748558Y-108229291D01*
X296748558Y-108229291D02*
X296748558Y-108431672D01*
X296748558Y-108431672D02*
X296712129Y-108512624D01*
X296712129Y-108512624D02*
X296675701Y-108553101D01*
X296675701Y-108553101D02*
X296602843Y-108593577D01*
X296602843Y-108593577D02*
X296384272Y-108593577D01*
X296384272Y-108593577D02*
X296311415Y-108553101D01*
X296311415Y-108553101D02*
X296274986Y-108512624D01*
X297440700Y-107743577D02*
X297076414Y-107743577D01*
X297076414Y-107743577D02*
X297039986Y-108148339D01*
X297039986Y-108148339D02*
X297076414Y-108107862D01*
X297076414Y-108107862D02*
X297149272Y-108067386D01*
X297149272Y-108067386D02*
X297331414Y-108067386D01*
X297331414Y-108067386D02*
X297404272Y-108107862D01*
X297404272Y-108107862D02*
X297440700Y-108148339D01*
X297440700Y-108148339D02*
X297477129Y-108229291D01*
X297477129Y-108229291D02*
X297477129Y-108431672D01*
X297477129Y-108431672D02*
X297440700Y-108512624D01*
X297440700Y-108512624D02*
X297404272Y-108553101D01*
X297404272Y-108553101D02*
X297331414Y-108593577D01*
X297331414Y-108593577D02*
X297149272Y-108593577D01*
X297149272Y-108593577D02*
X297076414Y-108553101D01*
X297076414Y-108553101D02*
X297039986Y-108512624D01*
X296338486Y-99996577D02*
X296812058Y-99996577D01*
X296812058Y-99996577D02*
X296557058Y-100320386D01*
X296557058Y-100320386D02*
X296666343Y-100320386D01*
X296666343Y-100320386D02*
X296739201Y-100360862D01*
X296739201Y-100360862D02*
X296775629Y-100401339D01*
X296775629Y-100401339D02*
X296812058Y-100482291D01*
X296812058Y-100482291D02*
X296812058Y-100684672D01*
X296812058Y-100684672D02*
X296775629Y-100765624D01*
X296775629Y-100765624D02*
X296739201Y-100806101D01*
X296739201Y-100806101D02*
X296666343Y-100846577D01*
X296666343Y-100846577D02*
X296447772Y-100846577D01*
X296447772Y-100846577D02*
X296374915Y-100806101D01*
X296374915Y-100806101D02*
X296338486Y-100765624D01*
X297467772Y-99996577D02*
X297322057Y-99996577D01*
X297322057Y-99996577D02*
X297249200Y-100037053D01*
X297249200Y-100037053D02*
X297212772Y-100077529D01*
X297212772Y-100077529D02*
X297139914Y-100198958D01*
X297139914Y-100198958D02*
X297103486Y-100360862D01*
X297103486Y-100360862D02*
X297103486Y-100684672D01*
X297103486Y-100684672D02*
X297139914Y-100765624D01*
X297139914Y-100765624D02*
X297176343Y-100806101D01*
X297176343Y-100806101D02*
X297249200Y-100846577D01*
X297249200Y-100846577D02*
X297394914Y-100846577D01*
X297394914Y-100846577D02*
X297467772Y-100806101D01*
X297467772Y-100806101D02*
X297504200Y-100765624D01*
X297504200Y-100765624D02*
X297540629Y-100684672D01*
X297540629Y-100684672D02*
X297540629Y-100482291D01*
X297540629Y-100482291D02*
X297504200Y-100401339D01*
X297504200Y-100401339D02*
X297467772Y-100360862D01*
X297467772Y-100360862D02*
X297394914Y-100320386D01*
X297394914Y-100320386D02*
X297249200Y-100320386D01*
X297249200Y-100320386D02*
X297176343Y-100360862D01*
X297176343Y-100360862D02*
X297139914Y-100401339D01*
X297139914Y-100401339D02*
X297103486Y-100482291D01*
X296238558Y-130412577D02*
X296493558Y-131262577D01*
X296493558Y-131262577D02*
X296748558Y-130412577D01*
X297003557Y-131262577D02*
X297003557Y-130412577D01*
X297367843Y-131262577D02*
X297367843Y-130412577D01*
X297367843Y-130412577D02*
X297804986Y-131262577D01*
X297804986Y-131262577D02*
X297804986Y-130412577D01*
X315615415Y-100166429D02*
X315651843Y-100125953D01*
X315651843Y-100125953D02*
X315724701Y-100085477D01*
X315724701Y-100085477D02*
X315906843Y-100085477D01*
X315906843Y-100085477D02*
X315979701Y-100125953D01*
X315979701Y-100125953D02*
X316016129Y-100166429D01*
X316016129Y-100166429D02*
X316052558Y-100247381D01*
X316052558Y-100247381D02*
X316052558Y-100328334D01*
X316052558Y-100328334D02*
X316016129Y-100449762D01*
X316016129Y-100449762D02*
X315578986Y-100935477D01*
X315578986Y-100935477D02*
X316052558Y-100935477D01*
X316343986Y-100166429D02*
X316380414Y-100125953D01*
X316380414Y-100125953D02*
X316453272Y-100085477D01*
X316453272Y-100085477D02*
X316635414Y-100085477D01*
X316635414Y-100085477D02*
X316708272Y-100125953D01*
X316708272Y-100125953D02*
X316744700Y-100166429D01*
X316744700Y-100166429D02*
X316781129Y-100247381D01*
X316781129Y-100247381D02*
X316781129Y-100328334D01*
X316781129Y-100328334D02*
X316744700Y-100449762D01*
X316744700Y-100449762D02*
X316307557Y-100935477D01*
X316307557Y-100935477D02*
X316781129Y-100935477D01*
X316714629Y-115325477D02*
X316350343Y-115325477D01*
X316350343Y-115325477D02*
X316313915Y-115730239D01*
X316313915Y-115730239D02*
X316350343Y-115689762D01*
X316350343Y-115689762D02*
X316423201Y-115649286D01*
X316423201Y-115649286D02*
X316605343Y-115649286D01*
X316605343Y-115649286D02*
X316678201Y-115689762D01*
X316678201Y-115689762D02*
X316714629Y-115730239D01*
X316714629Y-115730239D02*
X316751058Y-115811191D01*
X316751058Y-115811191D02*
X316751058Y-116013572D01*
X316751058Y-116013572D02*
X316714629Y-116094524D01*
X316714629Y-116094524D02*
X316678201Y-116135001D01*
X316678201Y-116135001D02*
X316605343Y-116175477D01*
X316605343Y-116175477D02*
X316423201Y-116175477D01*
X316423201Y-116175477D02*
X316350343Y-116135001D01*
X316350343Y-116135001D02*
X316313915Y-116094524D01*
X316052558Y-118715477D02*
X315615415Y-118715477D01*
X315833986Y-118715477D02*
X315833986Y-117865477D01*
X315833986Y-117865477D02*
X315761129Y-117986905D01*
X315761129Y-117986905D02*
X315688272Y-118067858D01*
X315688272Y-118067858D02*
X315615415Y-118108334D01*
X316307557Y-117865477D02*
X316817557Y-117865477D01*
X316817557Y-117865477D02*
X316489700Y-118715477D01*
X296812058Y-135558953D02*
X296739201Y-135518477D01*
X296739201Y-135518477D02*
X296629915Y-135518477D01*
X296629915Y-135518477D02*
X296520629Y-135558953D01*
X296520629Y-135558953D02*
X296447772Y-135639905D01*
X296447772Y-135639905D02*
X296411343Y-135720858D01*
X296411343Y-135720858D02*
X296374915Y-135882762D01*
X296374915Y-135882762D02*
X296374915Y-136004191D01*
X296374915Y-136004191D02*
X296411343Y-136166096D01*
X296411343Y-136166096D02*
X296447772Y-136247048D01*
X296447772Y-136247048D02*
X296520629Y-136328001D01*
X296520629Y-136328001D02*
X296629915Y-136368477D01*
X296629915Y-136368477D02*
X296702772Y-136368477D01*
X296702772Y-136368477D02*
X296812058Y-136328001D01*
X296812058Y-136328001D02*
X296848486Y-136287524D01*
X296848486Y-136287524D02*
X296848486Y-136004191D01*
X296848486Y-136004191D02*
X296702772Y-136004191D01*
X297176343Y-136368477D02*
X297176343Y-135518477D01*
X297176343Y-135518477D02*
X297613486Y-136368477D01*
X297613486Y-136368477D02*
X297613486Y-135518477D01*
X297977772Y-136368477D02*
X297977772Y-135518477D01*
X297977772Y-135518477D02*
X298159915Y-135518477D01*
X298159915Y-135518477D02*
X298269201Y-135558953D01*
X298269201Y-135558953D02*
X298342058Y-135639905D01*
X298342058Y-135639905D02*
X298378487Y-135720858D01*
X298378487Y-135720858D02*
X298414915Y-135882762D01*
X298414915Y-135882762D02*
X298414915Y-136004191D01*
X298414915Y-136004191D02*
X298378487Y-136166096D01*
X298378487Y-136166096D02*
X298342058Y-136247048D01*
X298342058Y-136247048D02*
X298269201Y-136328001D01*
X298269201Y-136328001D02*
X298159915Y-136368477D01*
X298159915Y-136368477D02*
X297977772Y-136368477D01*
X316052558Y-113546577D02*
X315615415Y-113546577D01*
X315833986Y-113546577D02*
X315833986Y-112696577D01*
X315833986Y-112696577D02*
X315761129Y-112818005D01*
X315761129Y-112818005D02*
X315688272Y-112898958D01*
X315688272Y-112898958D02*
X315615415Y-112939434D01*
X316489700Y-113060862D02*
X316416843Y-113020386D01*
X316416843Y-113020386D02*
X316380414Y-112979910D01*
X316380414Y-112979910D02*
X316343986Y-112898958D01*
X316343986Y-112898958D02*
X316343986Y-112858481D01*
X316343986Y-112858481D02*
X316380414Y-112777529D01*
X316380414Y-112777529D02*
X316416843Y-112737053D01*
X316416843Y-112737053D02*
X316489700Y-112696577D01*
X316489700Y-112696577D02*
X316635414Y-112696577D01*
X316635414Y-112696577D02*
X316708272Y-112737053D01*
X316708272Y-112737053D02*
X316744700Y-112777529D01*
X316744700Y-112777529D02*
X316781129Y-112858481D01*
X316781129Y-112858481D02*
X316781129Y-112898958D01*
X316781129Y-112898958D02*
X316744700Y-112979910D01*
X316744700Y-112979910D02*
X316708272Y-113020386D01*
X316708272Y-113020386D02*
X316635414Y-113060862D01*
X316635414Y-113060862D02*
X316489700Y-113060862D01*
X316489700Y-113060862D02*
X316416843Y-113101339D01*
X316416843Y-113101339D02*
X316380414Y-113141815D01*
X316380414Y-113141815D02*
X316343986Y-113222767D01*
X316343986Y-113222767D02*
X316343986Y-113384672D01*
X316343986Y-113384672D02*
X316380414Y-113465624D01*
X316380414Y-113465624D02*
X316416843Y-113506101D01*
X316416843Y-113506101D02*
X316489700Y-113546577D01*
X316489700Y-113546577D02*
X316635414Y-113546577D01*
X316635414Y-113546577D02*
X316708272Y-113506101D01*
X316708272Y-113506101D02*
X316744700Y-113465624D01*
X316744700Y-113465624D02*
X316781129Y-113384672D01*
X316781129Y-113384672D02*
X316781129Y-113222767D01*
X316781129Y-113222767D02*
X316744700Y-113141815D01*
X316744700Y-113141815D02*
X316708272Y-113101339D01*
X316708272Y-113101339D02*
X316635414Y-113060862D01*
X316052558Y-131453577D02*
X315615415Y-131453577D01*
X315833986Y-131453577D02*
X315833986Y-130603577D01*
X315833986Y-130603577D02*
X315761129Y-130725005D01*
X315761129Y-130725005D02*
X315688272Y-130805958D01*
X315688272Y-130805958D02*
X315615415Y-130846434D01*
X316744700Y-130603577D02*
X316380414Y-130603577D01*
X316380414Y-130603577D02*
X316343986Y-131008339D01*
X316343986Y-131008339D02*
X316380414Y-130967862D01*
X316380414Y-130967862D02*
X316453272Y-130927386D01*
X316453272Y-130927386D02*
X316635414Y-130927386D01*
X316635414Y-130927386D02*
X316708272Y-130967862D01*
X316708272Y-130967862D02*
X316744700Y-131008339D01*
X316744700Y-131008339D02*
X316781129Y-131089291D01*
X316781129Y-131089291D02*
X316781129Y-131291672D01*
X316781129Y-131291672D02*
X316744700Y-131372624D01*
X316744700Y-131372624D02*
X316708272Y-131413101D01*
X316708272Y-131413101D02*
X316635414Y-131453577D01*
X316635414Y-131453577D02*
X316453272Y-131453577D01*
X316453272Y-131453577D02*
X316380414Y-131413101D01*
X316380414Y-131413101D02*
X316343986Y-131372624D01*
X315989058Y-111095477D02*
X315551915Y-111095477D01*
X315770486Y-111095477D02*
X315770486Y-110245477D01*
X315770486Y-110245477D02*
X315697629Y-110366905D01*
X315697629Y-110366905D02*
X315624772Y-110447858D01*
X315624772Y-110447858D02*
X315551915Y-110488334D01*
X316353343Y-111095477D02*
X316499057Y-111095477D01*
X316499057Y-111095477D02*
X316571914Y-111055001D01*
X316571914Y-111055001D02*
X316608343Y-111014524D01*
X316608343Y-111014524D02*
X316681200Y-110893096D01*
X316681200Y-110893096D02*
X316717629Y-110731191D01*
X316717629Y-110731191D02*
X316717629Y-110407381D01*
X316717629Y-110407381D02*
X316681200Y-110326429D01*
X316681200Y-110326429D02*
X316644772Y-110285953D01*
X316644772Y-110285953D02*
X316571914Y-110245477D01*
X316571914Y-110245477D02*
X316426200Y-110245477D01*
X316426200Y-110245477D02*
X316353343Y-110285953D01*
X316353343Y-110285953D02*
X316316914Y-110326429D01*
X316316914Y-110326429D02*
X316280486Y-110407381D01*
X316280486Y-110407381D02*
X316280486Y-110609762D01*
X316280486Y-110609762D02*
X316316914Y-110690715D01*
X316316914Y-110690715D02*
X316353343Y-110731191D01*
X316353343Y-110731191D02*
X316426200Y-110771667D01*
X316426200Y-110771667D02*
X316571914Y-110771667D01*
X316571914Y-110771667D02*
X316644772Y-110731191D01*
X316644772Y-110731191D02*
X316681200Y-110690715D01*
X316681200Y-110690715D02*
X316717629Y-110609762D01*
D10*
%TO.C,Q1*%
X309784761Y-176575857D02*
X309689523Y-176528238D01*
X309689523Y-176528238D02*
X309594285Y-176433000D01*
X309594285Y-176433000D02*
X309451428Y-176290142D01*
X309451428Y-176290142D02*
X309356190Y-176242523D01*
X309356190Y-176242523D02*
X309260952Y-176242523D01*
X309308571Y-176480619D02*
X309213333Y-176433000D01*
X309213333Y-176433000D02*
X309118095Y-176337761D01*
X309118095Y-176337761D02*
X309070476Y-176147285D01*
X309070476Y-176147285D02*
X309070476Y-175813952D01*
X309070476Y-175813952D02*
X309118095Y-175623476D01*
X309118095Y-175623476D02*
X309213333Y-175528238D01*
X309213333Y-175528238D02*
X309308571Y-175480619D01*
X309308571Y-175480619D02*
X309499047Y-175480619D01*
X309499047Y-175480619D02*
X309594285Y-175528238D01*
X309594285Y-175528238D02*
X309689523Y-175623476D01*
X309689523Y-175623476D02*
X309737142Y-175813952D01*
X309737142Y-175813952D02*
X309737142Y-176147285D01*
X309737142Y-176147285D02*
X309689523Y-176337761D01*
X309689523Y-176337761D02*
X309594285Y-176433000D01*
X309594285Y-176433000D02*
X309499047Y-176480619D01*
X309499047Y-176480619D02*
X309308571Y-176480619D01*
X310689523Y-176480619D02*
X310118095Y-176480619D01*
X310403809Y-176480619D02*
X310403809Y-175480619D01*
X310403809Y-175480619D02*
X310308571Y-175623476D01*
X310308571Y-175623476D02*
X310213333Y-175718714D01*
X310213333Y-175718714D02*
X310118095Y-175766333D01*
X308022857Y-182306809D02*
X308165714Y-182354428D01*
X308165714Y-182354428D02*
X308213333Y-182402047D01*
X308213333Y-182402047D02*
X308260952Y-182497285D01*
X308260952Y-182497285D02*
X308260952Y-182640142D01*
X308260952Y-182640142D02*
X308213333Y-182735380D01*
X308213333Y-182735380D02*
X308165714Y-182783000D01*
X308165714Y-182783000D02*
X308070476Y-182830619D01*
X308070476Y-182830619D02*
X307689524Y-182830619D01*
X307689524Y-182830619D02*
X307689524Y-181830619D01*
X307689524Y-181830619D02*
X308022857Y-181830619D01*
X308022857Y-181830619D02*
X308118095Y-181878238D01*
X308118095Y-181878238D02*
X308165714Y-181925857D01*
X308165714Y-181925857D02*
X308213333Y-182021095D01*
X308213333Y-182021095D02*
X308213333Y-182116333D01*
X308213333Y-182116333D02*
X308165714Y-182211571D01*
X308165714Y-182211571D02*
X308118095Y-182259190D01*
X308118095Y-182259190D02*
X308022857Y-182306809D01*
X308022857Y-182306809D02*
X307689524Y-182306809D01*
X309260952Y-182735380D02*
X309213333Y-182783000D01*
X309213333Y-182783000D02*
X309070476Y-182830619D01*
X309070476Y-182830619D02*
X308975238Y-182830619D01*
X308975238Y-182830619D02*
X308832381Y-182783000D01*
X308832381Y-182783000D02*
X308737143Y-182687761D01*
X308737143Y-182687761D02*
X308689524Y-182592523D01*
X308689524Y-182592523D02*
X308641905Y-182402047D01*
X308641905Y-182402047D02*
X308641905Y-182259190D01*
X308641905Y-182259190D02*
X308689524Y-182068714D01*
X308689524Y-182068714D02*
X308737143Y-181973476D01*
X308737143Y-181973476D02*
X308832381Y-181878238D01*
X308832381Y-181878238D02*
X308975238Y-181830619D01*
X308975238Y-181830619D02*
X309070476Y-181830619D01*
X309070476Y-181830619D02*
X309213333Y-181878238D01*
X309213333Y-181878238D02*
X309260952Y-181925857D01*
X309594286Y-181830619D02*
X310213333Y-181830619D01*
X310213333Y-181830619D02*
X309880000Y-182211571D01*
X309880000Y-182211571D02*
X310022857Y-182211571D01*
X310022857Y-182211571D02*
X310118095Y-182259190D01*
X310118095Y-182259190D02*
X310165714Y-182306809D01*
X310165714Y-182306809D02*
X310213333Y-182402047D01*
X310213333Y-182402047D02*
X310213333Y-182640142D01*
X310213333Y-182640142D02*
X310165714Y-182735380D01*
X310165714Y-182735380D02*
X310118095Y-182783000D01*
X310118095Y-182783000D02*
X310022857Y-182830619D01*
X310022857Y-182830619D02*
X309737143Y-182830619D01*
X309737143Y-182830619D02*
X309641905Y-182783000D01*
X309641905Y-182783000D02*
X309594286Y-182735380D01*
X310546667Y-181830619D02*
X311165714Y-181830619D01*
X311165714Y-181830619D02*
X310832381Y-182211571D01*
X310832381Y-182211571D02*
X310975238Y-182211571D01*
X310975238Y-182211571D02*
X311070476Y-182259190D01*
X311070476Y-182259190D02*
X311118095Y-182306809D01*
X311118095Y-182306809D02*
X311165714Y-182402047D01*
X311165714Y-182402047D02*
X311165714Y-182640142D01*
X311165714Y-182640142D02*
X311118095Y-182735380D01*
X311118095Y-182735380D02*
X311070476Y-182783000D01*
X311070476Y-182783000D02*
X310975238Y-182830619D01*
X310975238Y-182830619D02*
X310689524Y-182830619D01*
X310689524Y-182830619D02*
X310594286Y-182783000D01*
X310594286Y-182783000D02*
X310546667Y-182735380D01*
X311499048Y-181830619D02*
X312165714Y-181830619D01*
X312165714Y-181830619D02*
X311737143Y-182830619D01*
%TO.C,RV1*%
X360338761Y-111088619D02*
X360005428Y-110612428D01*
X359767333Y-111088619D02*
X359767333Y-110088619D01*
X359767333Y-110088619D02*
X360148285Y-110088619D01*
X360148285Y-110088619D02*
X360243523Y-110136238D01*
X360243523Y-110136238D02*
X360291142Y-110183857D01*
X360291142Y-110183857D02*
X360338761Y-110279095D01*
X360338761Y-110279095D02*
X360338761Y-110421952D01*
X360338761Y-110421952D02*
X360291142Y-110517190D01*
X360291142Y-110517190D02*
X360243523Y-110564809D01*
X360243523Y-110564809D02*
X360148285Y-110612428D01*
X360148285Y-110612428D02*
X359767333Y-110612428D01*
X360624476Y-110088619D02*
X360957809Y-111088619D01*
X360957809Y-111088619D02*
X361291142Y-110088619D01*
X362148285Y-111088619D02*
X361576857Y-111088619D01*
X361862571Y-111088619D02*
X361862571Y-110088619D01*
X361862571Y-110088619D02*
X361767333Y-110231476D01*
X361767333Y-110231476D02*
X361672095Y-110326714D01*
X361672095Y-110326714D02*
X361576857Y-110374333D01*
%TO.C,D5*%
X165238619Y-39600094D02*
X164238619Y-39600094D01*
X164238619Y-39600094D02*
X164238619Y-39361999D01*
X164238619Y-39361999D02*
X164286238Y-39219142D01*
X164286238Y-39219142D02*
X164381476Y-39123904D01*
X164381476Y-39123904D02*
X164476714Y-39076285D01*
X164476714Y-39076285D02*
X164667190Y-39028666D01*
X164667190Y-39028666D02*
X164810047Y-39028666D01*
X164810047Y-39028666D02*
X165000523Y-39076285D01*
X165000523Y-39076285D02*
X165095761Y-39123904D01*
X165095761Y-39123904D02*
X165191000Y-39219142D01*
X165191000Y-39219142D02*
X165238619Y-39361999D01*
X165238619Y-39361999D02*
X165238619Y-39600094D01*
X164238619Y-38123904D02*
X164238619Y-38600094D01*
X164238619Y-38600094D02*
X164714809Y-38647713D01*
X164714809Y-38647713D02*
X164667190Y-38600094D01*
X164667190Y-38600094D02*
X164619571Y-38504856D01*
X164619571Y-38504856D02*
X164619571Y-38266761D01*
X164619571Y-38266761D02*
X164667190Y-38171523D01*
X164667190Y-38171523D02*
X164714809Y-38123904D01*
X164714809Y-38123904D02*
X164810047Y-38076285D01*
X164810047Y-38076285D02*
X165048142Y-38076285D01*
X165048142Y-38076285D02*
X165143380Y-38123904D01*
X165143380Y-38123904D02*
X165191000Y-38171523D01*
X165191000Y-38171523D02*
X165238619Y-38266761D01*
X165238619Y-38266761D02*
X165238619Y-38504856D01*
X165238619Y-38504856D02*
X165191000Y-38600094D01*
X165191000Y-38600094D02*
X165143380Y-38647713D01*
X164868619Y-34043904D02*
X163868619Y-34043904D01*
X164868619Y-33472476D02*
X164297190Y-33901047D01*
X163868619Y-33472476D02*
X164440047Y-34043904D01*
%TO.C,R7*%
X238339333Y-129098619D02*
X238006000Y-128622428D01*
X237767905Y-129098619D02*
X237767905Y-128098619D01*
X237767905Y-128098619D02*
X238148857Y-128098619D01*
X238148857Y-128098619D02*
X238244095Y-128146238D01*
X238244095Y-128146238D02*
X238291714Y-128193857D01*
X238291714Y-128193857D02*
X238339333Y-128289095D01*
X238339333Y-128289095D02*
X238339333Y-128431952D01*
X238339333Y-128431952D02*
X238291714Y-128527190D01*
X238291714Y-128527190D02*
X238244095Y-128574809D01*
X238244095Y-128574809D02*
X238148857Y-128622428D01*
X238148857Y-128622428D02*
X237767905Y-128622428D01*
X238672667Y-128098619D02*
X239339333Y-128098619D01*
X239339333Y-128098619D02*
X238910762Y-129098619D01*
X237910761Y-132938619D02*
X237339333Y-132938619D01*
X237625047Y-132938619D02*
X237625047Y-131938619D01*
X237625047Y-131938619D02*
X237529809Y-132081476D01*
X237529809Y-132081476D02*
X237434571Y-132176714D01*
X237434571Y-132176714D02*
X237339333Y-132224333D01*
X238815523Y-131938619D02*
X238339333Y-131938619D01*
X238339333Y-131938619D02*
X238291714Y-132414809D01*
X238291714Y-132414809D02*
X238339333Y-132367190D01*
X238339333Y-132367190D02*
X238434571Y-132319571D01*
X238434571Y-132319571D02*
X238672666Y-132319571D01*
X238672666Y-132319571D02*
X238767904Y-132367190D01*
X238767904Y-132367190D02*
X238815523Y-132414809D01*
X238815523Y-132414809D02*
X238863142Y-132510047D01*
X238863142Y-132510047D02*
X238863142Y-132748142D01*
X238863142Y-132748142D02*
X238815523Y-132843380D01*
X238815523Y-132843380D02*
X238767904Y-132891000D01*
X238767904Y-132891000D02*
X238672666Y-132938619D01*
X238672666Y-132938619D02*
X238434571Y-132938619D01*
X238434571Y-132938619D02*
X238339333Y-132891000D01*
X238339333Y-132891000D02*
X238291714Y-132843380D01*
X239291714Y-132938619D02*
X239291714Y-131938619D01*
X239386952Y-132557666D02*
X239672666Y-132938619D01*
X239672666Y-132271952D02*
X239291714Y-132652904D01*
%TO.C,BT4*%
X57166285Y-233040809D02*
X57309142Y-233088428D01*
X57309142Y-233088428D02*
X57356761Y-233136047D01*
X57356761Y-233136047D02*
X57404380Y-233231285D01*
X57404380Y-233231285D02*
X57404380Y-233374142D01*
X57404380Y-233374142D02*
X57356761Y-233469380D01*
X57356761Y-233469380D02*
X57309142Y-233517000D01*
X57309142Y-233517000D02*
X57213904Y-233564619D01*
X57213904Y-233564619D02*
X56832952Y-233564619D01*
X56832952Y-233564619D02*
X56832952Y-232564619D01*
X56832952Y-232564619D02*
X57166285Y-232564619D01*
X57166285Y-232564619D02*
X57261523Y-232612238D01*
X57261523Y-232612238D02*
X57309142Y-232659857D01*
X57309142Y-232659857D02*
X57356761Y-232755095D01*
X57356761Y-232755095D02*
X57356761Y-232850333D01*
X57356761Y-232850333D02*
X57309142Y-232945571D01*
X57309142Y-232945571D02*
X57261523Y-232993190D01*
X57261523Y-232993190D02*
X57166285Y-233040809D01*
X57166285Y-233040809D02*
X56832952Y-233040809D01*
X57690095Y-232564619D02*
X58261523Y-232564619D01*
X57975809Y-233564619D02*
X57975809Y-232564619D01*
X59023428Y-232897952D02*
X59023428Y-233564619D01*
X58785333Y-232517000D02*
X58547238Y-233231285D01*
X58547238Y-233231285D02*
X59166285Y-233231285D01*
%TO.C,D4*%
X150506619Y-40108094D02*
X149506619Y-40108094D01*
X149506619Y-40108094D02*
X149506619Y-39869999D01*
X149506619Y-39869999D02*
X149554238Y-39727142D01*
X149554238Y-39727142D02*
X149649476Y-39631904D01*
X149649476Y-39631904D02*
X149744714Y-39584285D01*
X149744714Y-39584285D02*
X149935190Y-39536666D01*
X149935190Y-39536666D02*
X150078047Y-39536666D01*
X150078047Y-39536666D02*
X150268523Y-39584285D01*
X150268523Y-39584285D02*
X150363761Y-39631904D01*
X150363761Y-39631904D02*
X150459000Y-39727142D01*
X150459000Y-39727142D02*
X150506619Y-39869999D01*
X150506619Y-39869999D02*
X150506619Y-40108094D01*
X149839952Y-38679523D02*
X150506619Y-38679523D01*
X149459000Y-38917618D02*
X150173285Y-39155713D01*
X150173285Y-39155713D02*
X150173285Y-38536666D01*
X150136619Y-34551904D02*
X149136619Y-34551904D01*
X150136619Y-33980476D02*
X149565190Y-34409047D01*
X149136619Y-33980476D02*
X149708047Y-34551904D01*
%TO.C,BT1*%
X57166285Y-164910809D02*
X57309142Y-164958428D01*
X57309142Y-164958428D02*
X57356761Y-165006047D01*
X57356761Y-165006047D02*
X57404380Y-165101285D01*
X57404380Y-165101285D02*
X57404380Y-165244142D01*
X57404380Y-165244142D02*
X57356761Y-165339380D01*
X57356761Y-165339380D02*
X57309142Y-165387000D01*
X57309142Y-165387000D02*
X57213904Y-165434619D01*
X57213904Y-165434619D02*
X56832952Y-165434619D01*
X56832952Y-165434619D02*
X56832952Y-164434619D01*
X56832952Y-164434619D02*
X57166285Y-164434619D01*
X57166285Y-164434619D02*
X57261523Y-164482238D01*
X57261523Y-164482238D02*
X57309142Y-164529857D01*
X57309142Y-164529857D02*
X57356761Y-164625095D01*
X57356761Y-164625095D02*
X57356761Y-164720333D01*
X57356761Y-164720333D02*
X57309142Y-164815571D01*
X57309142Y-164815571D02*
X57261523Y-164863190D01*
X57261523Y-164863190D02*
X57166285Y-164910809D01*
X57166285Y-164910809D02*
X56832952Y-164910809D01*
X57690095Y-164434619D02*
X58261523Y-164434619D01*
X57975809Y-165434619D02*
X57975809Y-164434619D01*
X59118666Y-165434619D02*
X58547238Y-165434619D01*
X58832952Y-165434619D02*
X58832952Y-164434619D01*
X58832952Y-164434619D02*
X58737714Y-164577476D01*
X58737714Y-164577476D02*
X58642476Y-164672714D01*
X58642476Y-164672714D02*
X58547238Y-164720333D01*
X55229523Y-181310619D02*
X54658095Y-181310619D01*
X54943809Y-181310619D02*
X54943809Y-180310619D01*
X54943809Y-180310619D02*
X54848571Y-180453476D01*
X54848571Y-180453476D02*
X54753333Y-180548714D01*
X54753333Y-180548714D02*
X54658095Y-180596333D01*
X55800952Y-180739190D02*
X55705714Y-180691571D01*
X55705714Y-180691571D02*
X55658095Y-180643952D01*
X55658095Y-180643952D02*
X55610476Y-180548714D01*
X55610476Y-180548714D02*
X55610476Y-180501095D01*
X55610476Y-180501095D02*
X55658095Y-180405857D01*
X55658095Y-180405857D02*
X55705714Y-180358238D01*
X55705714Y-180358238D02*
X55800952Y-180310619D01*
X55800952Y-180310619D02*
X55991428Y-180310619D01*
X55991428Y-180310619D02*
X56086666Y-180358238D01*
X56086666Y-180358238D02*
X56134285Y-180405857D01*
X56134285Y-180405857D02*
X56181904Y-180501095D01*
X56181904Y-180501095D02*
X56181904Y-180548714D01*
X56181904Y-180548714D02*
X56134285Y-180643952D01*
X56134285Y-180643952D02*
X56086666Y-180691571D01*
X56086666Y-180691571D02*
X55991428Y-180739190D01*
X55991428Y-180739190D02*
X55800952Y-180739190D01*
X55800952Y-180739190D02*
X55705714Y-180786809D01*
X55705714Y-180786809D02*
X55658095Y-180834428D01*
X55658095Y-180834428D02*
X55610476Y-180929666D01*
X55610476Y-180929666D02*
X55610476Y-181120142D01*
X55610476Y-181120142D02*
X55658095Y-181215380D01*
X55658095Y-181215380D02*
X55705714Y-181263000D01*
X55705714Y-181263000D02*
X55800952Y-181310619D01*
X55800952Y-181310619D02*
X55991428Y-181310619D01*
X55991428Y-181310619D02*
X56086666Y-181263000D01*
X56086666Y-181263000D02*
X56134285Y-181215380D01*
X56134285Y-181215380D02*
X56181904Y-181120142D01*
X56181904Y-181120142D02*
X56181904Y-180929666D01*
X56181904Y-180929666D02*
X56134285Y-180834428D01*
X56134285Y-180834428D02*
X56086666Y-180786809D01*
X56086666Y-180786809D02*
X55991428Y-180739190D01*
X57039047Y-180310619D02*
X56848571Y-180310619D01*
X56848571Y-180310619D02*
X56753333Y-180358238D01*
X56753333Y-180358238D02*
X56705714Y-180405857D01*
X56705714Y-180405857D02*
X56610476Y-180548714D01*
X56610476Y-180548714D02*
X56562857Y-180739190D01*
X56562857Y-180739190D02*
X56562857Y-181120142D01*
X56562857Y-181120142D02*
X56610476Y-181215380D01*
X56610476Y-181215380D02*
X56658095Y-181263000D01*
X56658095Y-181263000D02*
X56753333Y-181310619D01*
X56753333Y-181310619D02*
X56943809Y-181310619D01*
X56943809Y-181310619D02*
X57039047Y-181263000D01*
X57039047Y-181263000D02*
X57086666Y-181215380D01*
X57086666Y-181215380D02*
X57134285Y-181120142D01*
X57134285Y-181120142D02*
X57134285Y-180882047D01*
X57134285Y-180882047D02*
X57086666Y-180786809D01*
X57086666Y-180786809D02*
X57039047Y-180739190D01*
X57039047Y-180739190D02*
X56943809Y-180691571D01*
X56943809Y-180691571D02*
X56753333Y-180691571D01*
X56753333Y-180691571D02*
X56658095Y-180739190D01*
X56658095Y-180739190D02*
X56610476Y-180786809D01*
X56610476Y-180786809D02*
X56562857Y-180882047D01*
X58039047Y-180310619D02*
X57562857Y-180310619D01*
X57562857Y-180310619D02*
X57515238Y-180786809D01*
X57515238Y-180786809D02*
X57562857Y-180739190D01*
X57562857Y-180739190D02*
X57658095Y-180691571D01*
X57658095Y-180691571D02*
X57896190Y-180691571D01*
X57896190Y-180691571D02*
X57991428Y-180739190D01*
X57991428Y-180739190D02*
X58039047Y-180786809D01*
X58039047Y-180786809D02*
X58086666Y-180882047D01*
X58086666Y-180882047D02*
X58086666Y-181120142D01*
X58086666Y-181120142D02*
X58039047Y-181215380D01*
X58039047Y-181215380D02*
X57991428Y-181263000D01*
X57991428Y-181263000D02*
X57896190Y-181310619D01*
X57896190Y-181310619D02*
X57658095Y-181310619D01*
X57658095Y-181310619D02*
X57562857Y-181263000D01*
X57562857Y-181263000D02*
X57515238Y-181215380D01*
X58705714Y-180310619D02*
X58800952Y-180310619D01*
X58800952Y-180310619D02*
X58896190Y-180358238D01*
X58896190Y-180358238D02*
X58943809Y-180405857D01*
X58943809Y-180405857D02*
X58991428Y-180501095D01*
X58991428Y-180501095D02*
X59039047Y-180691571D01*
X59039047Y-180691571D02*
X59039047Y-180929666D01*
X59039047Y-180929666D02*
X58991428Y-181120142D01*
X58991428Y-181120142D02*
X58943809Y-181215380D01*
X58943809Y-181215380D02*
X58896190Y-181263000D01*
X58896190Y-181263000D02*
X58800952Y-181310619D01*
X58800952Y-181310619D02*
X58705714Y-181310619D01*
X58705714Y-181310619D02*
X58610476Y-181263000D01*
X58610476Y-181263000D02*
X58562857Y-181215380D01*
X58562857Y-181215380D02*
X58515238Y-181120142D01*
X58515238Y-181120142D02*
X58467619Y-180929666D01*
X58467619Y-180929666D02*
X58467619Y-180691571D01*
X58467619Y-180691571D02*
X58515238Y-180501095D01*
X58515238Y-180501095D02*
X58562857Y-180405857D01*
X58562857Y-180405857D02*
X58610476Y-180358238D01*
X58610476Y-180358238D02*
X58705714Y-180310619D01*
X60134286Y-180310619D02*
X60753333Y-180310619D01*
X60753333Y-180310619D02*
X60420000Y-180691571D01*
X60420000Y-180691571D02*
X60562857Y-180691571D01*
X60562857Y-180691571D02*
X60658095Y-180739190D01*
X60658095Y-180739190D02*
X60705714Y-180786809D01*
X60705714Y-180786809D02*
X60753333Y-180882047D01*
X60753333Y-180882047D02*
X60753333Y-181120142D01*
X60753333Y-181120142D02*
X60705714Y-181215380D01*
X60705714Y-181215380D02*
X60658095Y-181263000D01*
X60658095Y-181263000D02*
X60562857Y-181310619D01*
X60562857Y-181310619D02*
X60277143Y-181310619D01*
X60277143Y-181310619D02*
X60181905Y-181263000D01*
X60181905Y-181263000D02*
X60134286Y-181215380D01*
X61181905Y-181215380D02*
X61229524Y-181263000D01*
X61229524Y-181263000D02*
X61181905Y-181310619D01*
X61181905Y-181310619D02*
X61134286Y-181263000D01*
X61134286Y-181263000D02*
X61181905Y-181215380D01*
X61181905Y-181215380D02*
X61181905Y-181310619D01*
X61562857Y-180310619D02*
X62229523Y-180310619D01*
X62229523Y-180310619D02*
X61800952Y-181310619D01*
%TO.C,BT2*%
X57166285Y-187620809D02*
X57309142Y-187668428D01*
X57309142Y-187668428D02*
X57356761Y-187716047D01*
X57356761Y-187716047D02*
X57404380Y-187811285D01*
X57404380Y-187811285D02*
X57404380Y-187954142D01*
X57404380Y-187954142D02*
X57356761Y-188049380D01*
X57356761Y-188049380D02*
X57309142Y-188097000D01*
X57309142Y-188097000D02*
X57213904Y-188144619D01*
X57213904Y-188144619D02*
X56832952Y-188144619D01*
X56832952Y-188144619D02*
X56832952Y-187144619D01*
X56832952Y-187144619D02*
X57166285Y-187144619D01*
X57166285Y-187144619D02*
X57261523Y-187192238D01*
X57261523Y-187192238D02*
X57309142Y-187239857D01*
X57309142Y-187239857D02*
X57356761Y-187335095D01*
X57356761Y-187335095D02*
X57356761Y-187430333D01*
X57356761Y-187430333D02*
X57309142Y-187525571D01*
X57309142Y-187525571D02*
X57261523Y-187573190D01*
X57261523Y-187573190D02*
X57166285Y-187620809D01*
X57166285Y-187620809D02*
X56832952Y-187620809D01*
X57690095Y-187144619D02*
X58261523Y-187144619D01*
X57975809Y-188144619D02*
X57975809Y-187144619D01*
X58547238Y-187239857D02*
X58594857Y-187192238D01*
X58594857Y-187192238D02*
X58690095Y-187144619D01*
X58690095Y-187144619D02*
X58928190Y-187144619D01*
X58928190Y-187144619D02*
X59023428Y-187192238D01*
X59023428Y-187192238D02*
X59071047Y-187239857D01*
X59071047Y-187239857D02*
X59118666Y-187335095D01*
X59118666Y-187335095D02*
X59118666Y-187430333D01*
X59118666Y-187430333D02*
X59071047Y-187573190D01*
X59071047Y-187573190D02*
X58499619Y-188144619D01*
X58499619Y-188144619D02*
X59118666Y-188144619D01*
%TO.C,D9*%
X164222619Y-70080094D02*
X163222619Y-70080094D01*
X163222619Y-70080094D02*
X163222619Y-69841999D01*
X163222619Y-69841999D02*
X163270238Y-69699142D01*
X163270238Y-69699142D02*
X163365476Y-69603904D01*
X163365476Y-69603904D02*
X163460714Y-69556285D01*
X163460714Y-69556285D02*
X163651190Y-69508666D01*
X163651190Y-69508666D02*
X163794047Y-69508666D01*
X163794047Y-69508666D02*
X163984523Y-69556285D01*
X163984523Y-69556285D02*
X164079761Y-69603904D01*
X164079761Y-69603904D02*
X164175000Y-69699142D01*
X164175000Y-69699142D02*
X164222619Y-69841999D01*
X164222619Y-69841999D02*
X164222619Y-70080094D01*
X164222619Y-69032475D02*
X164222619Y-68841999D01*
X164222619Y-68841999D02*
X164175000Y-68746761D01*
X164175000Y-68746761D02*
X164127380Y-68699142D01*
X164127380Y-68699142D02*
X163984523Y-68603904D01*
X163984523Y-68603904D02*
X163794047Y-68556285D01*
X163794047Y-68556285D02*
X163413095Y-68556285D01*
X163413095Y-68556285D02*
X163317857Y-68603904D01*
X163317857Y-68603904D02*
X163270238Y-68651523D01*
X163270238Y-68651523D02*
X163222619Y-68746761D01*
X163222619Y-68746761D02*
X163222619Y-68937237D01*
X163222619Y-68937237D02*
X163270238Y-69032475D01*
X163270238Y-69032475D02*
X163317857Y-69080094D01*
X163317857Y-69080094D02*
X163413095Y-69127713D01*
X163413095Y-69127713D02*
X163651190Y-69127713D01*
X163651190Y-69127713D02*
X163746428Y-69080094D01*
X163746428Y-69080094D02*
X163794047Y-69032475D01*
X163794047Y-69032475D02*
X163841666Y-68937237D01*
X163841666Y-68937237D02*
X163841666Y-68746761D01*
X163841666Y-68746761D02*
X163794047Y-68651523D01*
X163794047Y-68651523D02*
X163746428Y-68603904D01*
X163746428Y-68603904D02*
X163651190Y-68556285D01*
X163852619Y-64523904D02*
X162852619Y-64523904D01*
X163852619Y-63952476D02*
X163281190Y-64381047D01*
X162852619Y-63952476D02*
X163424047Y-64523904D01*
%TO.C,J6*%
X186102666Y-18556619D02*
X186102666Y-19270904D01*
X186102666Y-19270904D02*
X186055047Y-19413761D01*
X186055047Y-19413761D02*
X185959809Y-19509000D01*
X185959809Y-19509000D02*
X185816952Y-19556619D01*
X185816952Y-19556619D02*
X185721714Y-19556619D01*
X187007428Y-18556619D02*
X186816952Y-18556619D01*
X186816952Y-18556619D02*
X186721714Y-18604238D01*
X186721714Y-18604238D02*
X186674095Y-18651857D01*
X186674095Y-18651857D02*
X186578857Y-18794714D01*
X186578857Y-18794714D02*
X186531238Y-18985190D01*
X186531238Y-18985190D02*
X186531238Y-19366142D01*
X186531238Y-19366142D02*
X186578857Y-19461380D01*
X186578857Y-19461380D02*
X186626476Y-19509000D01*
X186626476Y-19509000D02*
X186721714Y-19556619D01*
X186721714Y-19556619D02*
X186912190Y-19556619D01*
X186912190Y-19556619D02*
X187007428Y-19509000D01*
X187007428Y-19509000D02*
X187055047Y-19461380D01*
X187055047Y-19461380D02*
X187102666Y-19366142D01*
X187102666Y-19366142D02*
X187102666Y-19128047D01*
X187102666Y-19128047D02*
X187055047Y-19032809D01*
X187055047Y-19032809D02*
X187007428Y-18985190D01*
X187007428Y-18985190D02*
X186912190Y-18937571D01*
X186912190Y-18937571D02*
X186721714Y-18937571D01*
X186721714Y-18937571D02*
X186626476Y-18985190D01*
X186626476Y-18985190D02*
X186578857Y-19032809D01*
X186578857Y-19032809D02*
X186531238Y-19128047D01*
%TO.C,R5*%
X254391333Y-118176619D02*
X254058000Y-117700428D01*
X253819905Y-118176619D02*
X253819905Y-117176619D01*
X253819905Y-117176619D02*
X254200857Y-117176619D01*
X254200857Y-117176619D02*
X254296095Y-117224238D01*
X254296095Y-117224238D02*
X254343714Y-117271857D01*
X254343714Y-117271857D02*
X254391333Y-117367095D01*
X254391333Y-117367095D02*
X254391333Y-117509952D01*
X254391333Y-117509952D02*
X254343714Y-117605190D01*
X254343714Y-117605190D02*
X254296095Y-117652809D01*
X254296095Y-117652809D02*
X254200857Y-117700428D01*
X254200857Y-117700428D02*
X253819905Y-117700428D01*
X255296095Y-117176619D02*
X254819905Y-117176619D01*
X254819905Y-117176619D02*
X254772286Y-117652809D01*
X254772286Y-117652809D02*
X254819905Y-117605190D01*
X254819905Y-117605190D02*
X254915143Y-117557571D01*
X254915143Y-117557571D02*
X255153238Y-117557571D01*
X255153238Y-117557571D02*
X255248476Y-117605190D01*
X255248476Y-117605190D02*
X255296095Y-117652809D01*
X255296095Y-117652809D02*
X255343714Y-117748047D01*
X255343714Y-117748047D02*
X255343714Y-117986142D01*
X255343714Y-117986142D02*
X255296095Y-118081380D01*
X255296095Y-118081380D02*
X255248476Y-118129000D01*
X255248476Y-118129000D02*
X255153238Y-118176619D01*
X255153238Y-118176619D02*
X254915143Y-118176619D01*
X254915143Y-118176619D02*
X254819905Y-118129000D01*
X254819905Y-118129000D02*
X254772286Y-118081380D01*
X253962761Y-122016619D02*
X253391333Y-122016619D01*
X253677047Y-122016619D02*
X253677047Y-121016619D01*
X253677047Y-121016619D02*
X253581809Y-121159476D01*
X253581809Y-121159476D02*
X253486571Y-121254714D01*
X253486571Y-121254714D02*
X253391333Y-121302333D01*
X254867523Y-121016619D02*
X254391333Y-121016619D01*
X254391333Y-121016619D02*
X254343714Y-121492809D01*
X254343714Y-121492809D02*
X254391333Y-121445190D01*
X254391333Y-121445190D02*
X254486571Y-121397571D01*
X254486571Y-121397571D02*
X254724666Y-121397571D01*
X254724666Y-121397571D02*
X254819904Y-121445190D01*
X254819904Y-121445190D02*
X254867523Y-121492809D01*
X254867523Y-121492809D02*
X254915142Y-121588047D01*
X254915142Y-121588047D02*
X254915142Y-121826142D01*
X254915142Y-121826142D02*
X254867523Y-121921380D01*
X254867523Y-121921380D02*
X254819904Y-121969000D01*
X254819904Y-121969000D02*
X254724666Y-122016619D01*
X254724666Y-122016619D02*
X254486571Y-122016619D01*
X254486571Y-122016619D02*
X254391333Y-121969000D01*
X254391333Y-121969000D02*
X254343714Y-121921380D01*
X255343714Y-122016619D02*
X255343714Y-121016619D01*
X255438952Y-121635666D02*
X255724666Y-122016619D01*
X255724666Y-121349952D02*
X255343714Y-121730904D01*
%TO.C,D7*%
X158102905Y-15414619D02*
X158102905Y-14414619D01*
X158102905Y-14414619D02*
X158341000Y-14414619D01*
X158341000Y-14414619D02*
X158483857Y-14462238D01*
X158483857Y-14462238D02*
X158579095Y-14557476D01*
X158579095Y-14557476D02*
X158626714Y-14652714D01*
X158626714Y-14652714D02*
X158674333Y-14843190D01*
X158674333Y-14843190D02*
X158674333Y-14986047D01*
X158674333Y-14986047D02*
X158626714Y-15176523D01*
X158626714Y-15176523D02*
X158579095Y-15271761D01*
X158579095Y-15271761D02*
X158483857Y-15367000D01*
X158483857Y-15367000D02*
X158341000Y-15414619D01*
X158341000Y-15414619D02*
X158102905Y-15414619D01*
X159007667Y-14414619D02*
X159674333Y-14414619D01*
X159674333Y-14414619D02*
X159245762Y-15414619D01*
%TO.C,VR4*%
X199461476Y-162205619D02*
X199794809Y-163205619D01*
X199794809Y-163205619D02*
X200128142Y-162205619D01*
X201032904Y-163205619D02*
X200699571Y-162729428D01*
X200461476Y-163205619D02*
X200461476Y-162205619D01*
X200461476Y-162205619D02*
X200842428Y-162205619D01*
X200842428Y-162205619D02*
X200937666Y-162253238D01*
X200937666Y-162253238D02*
X200985285Y-162300857D01*
X200985285Y-162300857D02*
X201032904Y-162396095D01*
X201032904Y-162396095D02*
X201032904Y-162538952D01*
X201032904Y-162538952D02*
X200985285Y-162634190D01*
X200985285Y-162634190D02*
X200937666Y-162681809D01*
X200937666Y-162681809D02*
X200842428Y-162729428D01*
X200842428Y-162729428D02*
X200461476Y-162729428D01*
X201890047Y-162538952D02*
X201890047Y-163205619D01*
X201651952Y-162158000D02*
X201413857Y-162872285D01*
X201413857Y-162872285D02*
X202032904Y-162872285D01*
X209335761Y-171475619D02*
X208859571Y-171475619D01*
X208859571Y-171475619D02*
X208859571Y-170475619D01*
X209573857Y-170475619D02*
X210240523Y-170475619D01*
X210240523Y-170475619D02*
X209811952Y-171475619D01*
X210764333Y-170904190D02*
X210669095Y-170856571D01*
X210669095Y-170856571D02*
X210621476Y-170808952D01*
X210621476Y-170808952D02*
X210573857Y-170713714D01*
X210573857Y-170713714D02*
X210573857Y-170666095D01*
X210573857Y-170666095D02*
X210621476Y-170570857D01*
X210621476Y-170570857D02*
X210669095Y-170523238D01*
X210669095Y-170523238D02*
X210764333Y-170475619D01*
X210764333Y-170475619D02*
X210954809Y-170475619D01*
X210954809Y-170475619D02*
X211050047Y-170523238D01*
X211050047Y-170523238D02*
X211097666Y-170570857D01*
X211097666Y-170570857D02*
X211145285Y-170666095D01*
X211145285Y-170666095D02*
X211145285Y-170713714D01*
X211145285Y-170713714D02*
X211097666Y-170808952D01*
X211097666Y-170808952D02*
X211050047Y-170856571D01*
X211050047Y-170856571D02*
X210954809Y-170904190D01*
X210954809Y-170904190D02*
X210764333Y-170904190D01*
X210764333Y-170904190D02*
X210669095Y-170951809D01*
X210669095Y-170951809D02*
X210621476Y-170999428D01*
X210621476Y-170999428D02*
X210573857Y-171094666D01*
X210573857Y-171094666D02*
X210573857Y-171285142D01*
X210573857Y-171285142D02*
X210621476Y-171380380D01*
X210621476Y-171380380D02*
X210669095Y-171428000D01*
X210669095Y-171428000D02*
X210764333Y-171475619D01*
X210764333Y-171475619D02*
X210954809Y-171475619D01*
X210954809Y-171475619D02*
X211050047Y-171428000D01*
X211050047Y-171428000D02*
X211097666Y-171380380D01*
X211097666Y-171380380D02*
X211145285Y-171285142D01*
X211145285Y-171285142D02*
X211145285Y-171094666D01*
X211145285Y-171094666D02*
X211097666Y-170999428D01*
X211097666Y-170999428D02*
X211050047Y-170951809D01*
X211050047Y-170951809D02*
X210954809Y-170904190D01*
X211764333Y-170475619D02*
X211859571Y-170475619D01*
X211859571Y-170475619D02*
X211954809Y-170523238D01*
X211954809Y-170523238D02*
X212002428Y-170570857D01*
X212002428Y-170570857D02*
X212050047Y-170666095D01*
X212050047Y-170666095D02*
X212097666Y-170856571D01*
X212097666Y-170856571D02*
X212097666Y-171094666D01*
X212097666Y-171094666D02*
X212050047Y-171285142D01*
X212050047Y-171285142D02*
X212002428Y-171380380D01*
X212002428Y-171380380D02*
X211954809Y-171428000D01*
X211954809Y-171428000D02*
X211859571Y-171475619D01*
X211859571Y-171475619D02*
X211764333Y-171475619D01*
X211764333Y-171475619D02*
X211669095Y-171428000D01*
X211669095Y-171428000D02*
X211621476Y-171380380D01*
X211621476Y-171380380D02*
X211573857Y-171285142D01*
X211573857Y-171285142D02*
X211526238Y-171094666D01*
X211526238Y-171094666D02*
X211526238Y-170856571D01*
X211526238Y-170856571D02*
X211573857Y-170666095D01*
X211573857Y-170666095D02*
X211621476Y-170570857D01*
X211621476Y-170570857D02*
X211669095Y-170523238D01*
X211669095Y-170523238D02*
X211764333Y-170475619D01*
X213002428Y-170475619D02*
X212526238Y-170475619D01*
X212526238Y-170475619D02*
X212478619Y-170951809D01*
X212478619Y-170951809D02*
X212526238Y-170904190D01*
X212526238Y-170904190D02*
X212621476Y-170856571D01*
X212621476Y-170856571D02*
X212859571Y-170856571D01*
X212859571Y-170856571D02*
X212954809Y-170904190D01*
X212954809Y-170904190D02*
X213002428Y-170951809D01*
X213002428Y-170951809D02*
X213050047Y-171047047D01*
X213050047Y-171047047D02*
X213050047Y-171285142D01*
X213050047Y-171285142D02*
X213002428Y-171380380D01*
X213002428Y-171380380D02*
X212954809Y-171428000D01*
X212954809Y-171428000D02*
X212859571Y-171475619D01*
X212859571Y-171475619D02*
X212621476Y-171475619D01*
X212621476Y-171475619D02*
X212526238Y-171428000D01*
X212526238Y-171428000D02*
X212478619Y-171380380D01*
%TO.C,R2*%
X146949333Y-21656619D02*
X146616000Y-21180428D01*
X146377905Y-21656619D02*
X146377905Y-20656619D01*
X146377905Y-20656619D02*
X146758857Y-20656619D01*
X146758857Y-20656619D02*
X146854095Y-20704238D01*
X146854095Y-20704238D02*
X146901714Y-20751857D01*
X146901714Y-20751857D02*
X146949333Y-20847095D01*
X146949333Y-20847095D02*
X146949333Y-20989952D01*
X146949333Y-20989952D02*
X146901714Y-21085190D01*
X146901714Y-21085190D02*
X146854095Y-21132809D01*
X146854095Y-21132809D02*
X146758857Y-21180428D01*
X146758857Y-21180428D02*
X146377905Y-21180428D01*
X147330286Y-20751857D02*
X147377905Y-20704238D01*
X147377905Y-20704238D02*
X147473143Y-20656619D01*
X147473143Y-20656619D02*
X147711238Y-20656619D01*
X147711238Y-20656619D02*
X147806476Y-20704238D01*
X147806476Y-20704238D02*
X147854095Y-20751857D01*
X147854095Y-20751857D02*
X147901714Y-20847095D01*
X147901714Y-20847095D02*
X147901714Y-20942333D01*
X147901714Y-20942333D02*
X147854095Y-21085190D01*
X147854095Y-21085190D02*
X147282667Y-21656619D01*
X147282667Y-21656619D02*
X147901714Y-21656619D01*
%TO.C,U1*%
X395742095Y-60530619D02*
X395742095Y-61340142D01*
X395742095Y-61340142D02*
X395789714Y-61435380D01*
X395789714Y-61435380D02*
X395837333Y-61483000D01*
X395837333Y-61483000D02*
X395932571Y-61530619D01*
X395932571Y-61530619D02*
X396123047Y-61530619D01*
X396123047Y-61530619D02*
X396218285Y-61483000D01*
X396218285Y-61483000D02*
X396265904Y-61435380D01*
X396265904Y-61435380D02*
X396313523Y-61340142D01*
X396313523Y-61340142D02*
X396313523Y-60530619D01*
X397313523Y-61530619D02*
X396742095Y-61530619D01*
X397027809Y-61530619D02*
X397027809Y-60530619D01*
X397027809Y-60530619D02*
X396932571Y-60673476D01*
X396932571Y-60673476D02*
X396837333Y-60768714D01*
X396837333Y-60768714D02*
X396742095Y-60816333D01*
X387788761Y-15360619D02*
X387312571Y-15360619D01*
X387312571Y-15360619D02*
X387312571Y-14360619D01*
X388693523Y-15265380D02*
X388645904Y-15313000D01*
X388645904Y-15313000D02*
X388503047Y-15360619D01*
X388503047Y-15360619D02*
X388407809Y-15360619D01*
X388407809Y-15360619D02*
X388264952Y-15313000D01*
X388264952Y-15313000D02*
X388169714Y-15217761D01*
X388169714Y-15217761D02*
X388122095Y-15122523D01*
X388122095Y-15122523D02*
X388074476Y-14932047D01*
X388074476Y-14932047D02*
X388074476Y-14789190D01*
X388074476Y-14789190D02*
X388122095Y-14598714D01*
X388122095Y-14598714D02*
X388169714Y-14503476D01*
X388169714Y-14503476D02*
X388264952Y-14408238D01*
X388264952Y-14408238D02*
X388407809Y-14360619D01*
X388407809Y-14360619D02*
X388503047Y-14360619D01*
X388503047Y-14360619D02*
X388645904Y-14408238D01*
X388645904Y-14408238D02*
X388693523Y-14455857D01*
X389122095Y-15360619D02*
X389122095Y-14360619D01*
X389122095Y-14360619D02*
X389360190Y-14360619D01*
X389360190Y-14360619D02*
X389503047Y-14408238D01*
X389503047Y-14408238D02*
X389598285Y-14503476D01*
X389598285Y-14503476D02*
X389645904Y-14598714D01*
X389645904Y-14598714D02*
X389693523Y-14789190D01*
X389693523Y-14789190D02*
X389693523Y-14932047D01*
X389693523Y-14932047D02*
X389645904Y-15122523D01*
X389645904Y-15122523D02*
X389598285Y-15217761D01*
X389598285Y-15217761D02*
X389503047Y-15313000D01*
X389503047Y-15313000D02*
X389360190Y-15360619D01*
X389360190Y-15360619D02*
X389122095Y-15360619D01*
X390122095Y-14979666D02*
X390884000Y-14979666D01*
X391550666Y-14360619D02*
X391645904Y-14360619D01*
X391645904Y-14360619D02*
X391741142Y-14408238D01*
X391741142Y-14408238D02*
X391788761Y-14455857D01*
X391788761Y-14455857D02*
X391836380Y-14551095D01*
X391836380Y-14551095D02*
X391883999Y-14741571D01*
X391883999Y-14741571D02*
X391883999Y-14979666D01*
X391883999Y-14979666D02*
X391836380Y-15170142D01*
X391836380Y-15170142D02*
X391788761Y-15265380D01*
X391788761Y-15265380D02*
X391741142Y-15313000D01*
X391741142Y-15313000D02*
X391645904Y-15360619D01*
X391645904Y-15360619D02*
X391550666Y-15360619D01*
X391550666Y-15360619D02*
X391455428Y-15313000D01*
X391455428Y-15313000D02*
X391407809Y-15265380D01*
X391407809Y-15265380D02*
X391360190Y-15170142D01*
X391360190Y-15170142D02*
X391312571Y-14979666D01*
X391312571Y-14979666D02*
X391312571Y-14741571D01*
X391312571Y-14741571D02*
X391360190Y-14551095D01*
X391360190Y-14551095D02*
X391407809Y-14455857D01*
X391407809Y-14455857D02*
X391455428Y-14408238D01*
X391455428Y-14408238D02*
X391550666Y-14360619D01*
X392836380Y-15360619D02*
X392264952Y-15360619D01*
X392550666Y-15360619D02*
X392550666Y-14360619D01*
X392550666Y-14360619D02*
X392455428Y-14503476D01*
X392455428Y-14503476D02*
X392360190Y-14598714D01*
X392360190Y-14598714D02*
X392264952Y-14646333D01*
X393693523Y-14360619D02*
X393503047Y-14360619D01*
X393503047Y-14360619D02*
X393407809Y-14408238D01*
X393407809Y-14408238D02*
X393360190Y-14455857D01*
X393360190Y-14455857D02*
X393264952Y-14598714D01*
X393264952Y-14598714D02*
X393217333Y-14789190D01*
X393217333Y-14789190D02*
X393217333Y-15170142D01*
X393217333Y-15170142D02*
X393264952Y-15265380D01*
X393264952Y-15265380D02*
X393312571Y-15313000D01*
X393312571Y-15313000D02*
X393407809Y-15360619D01*
X393407809Y-15360619D02*
X393598285Y-15360619D01*
X393598285Y-15360619D02*
X393693523Y-15313000D01*
X393693523Y-15313000D02*
X393741142Y-15265380D01*
X393741142Y-15265380D02*
X393788761Y-15170142D01*
X393788761Y-15170142D02*
X393788761Y-14932047D01*
X393788761Y-14932047D02*
X393741142Y-14836809D01*
X393741142Y-14836809D02*
X393693523Y-14789190D01*
X393693523Y-14789190D02*
X393598285Y-14741571D01*
X393598285Y-14741571D02*
X393407809Y-14741571D01*
X393407809Y-14741571D02*
X393312571Y-14789190D01*
X393312571Y-14789190D02*
X393264952Y-14836809D01*
X393264952Y-14836809D02*
X393217333Y-14932047D01*
X394217333Y-15360619D02*
X394217333Y-14360619D01*
X394217333Y-14360619D02*
X394788761Y-15360619D01*
X394788761Y-15360619D02*
X394788761Y-14360619D01*
X395455428Y-14360619D02*
X395550666Y-14360619D01*
X395550666Y-14360619D02*
X395645904Y-14408238D01*
X395645904Y-14408238D02*
X395693523Y-14455857D01*
X395693523Y-14455857D02*
X395741142Y-14551095D01*
X395741142Y-14551095D02*
X395788761Y-14741571D01*
X395788761Y-14741571D02*
X395788761Y-14979666D01*
X395788761Y-14979666D02*
X395741142Y-15170142D01*
X395741142Y-15170142D02*
X395693523Y-15265380D01*
X395693523Y-15265380D02*
X395645904Y-15313000D01*
X395645904Y-15313000D02*
X395550666Y-15360619D01*
X395550666Y-15360619D02*
X395455428Y-15360619D01*
X395455428Y-15360619D02*
X395360190Y-15313000D01*
X395360190Y-15313000D02*
X395312571Y-15265380D01*
X395312571Y-15265380D02*
X395264952Y-15170142D01*
X395264952Y-15170142D02*
X395217333Y-14979666D01*
X395217333Y-14979666D02*
X395217333Y-14741571D01*
X395217333Y-14741571D02*
X395264952Y-14551095D01*
X395264952Y-14551095D02*
X395312571Y-14455857D01*
X395312571Y-14455857D02*
X395360190Y-14408238D01*
X395360190Y-14408238D02*
X395455428Y-14360619D01*
X396407809Y-14360619D02*
X396503047Y-14360619D01*
X396503047Y-14360619D02*
X396598285Y-14408238D01*
X396598285Y-14408238D02*
X396645904Y-14455857D01*
X396645904Y-14455857D02*
X396693523Y-14551095D01*
X396693523Y-14551095D02*
X396741142Y-14741571D01*
X396741142Y-14741571D02*
X396741142Y-14979666D01*
X396741142Y-14979666D02*
X396693523Y-15170142D01*
X396693523Y-15170142D02*
X396645904Y-15265380D01*
X396645904Y-15265380D02*
X396598285Y-15313000D01*
X396598285Y-15313000D02*
X396503047Y-15360619D01*
X396503047Y-15360619D02*
X396407809Y-15360619D01*
X396407809Y-15360619D02*
X396312571Y-15313000D01*
X396312571Y-15313000D02*
X396264952Y-15265380D01*
X396264952Y-15265380D02*
X396217333Y-15170142D01*
X396217333Y-15170142D02*
X396169714Y-14979666D01*
X396169714Y-14979666D02*
X396169714Y-14741571D01*
X396169714Y-14741571D02*
X396217333Y-14551095D01*
X396217333Y-14551095D02*
X396264952Y-14455857D01*
X396264952Y-14455857D02*
X396312571Y-14408238D01*
X396312571Y-14408238D02*
X396407809Y-14360619D01*
X397122095Y-14455857D02*
X397169714Y-14408238D01*
X397169714Y-14408238D02*
X397264952Y-14360619D01*
X397264952Y-14360619D02*
X397503047Y-14360619D01*
X397503047Y-14360619D02*
X397598285Y-14408238D01*
X397598285Y-14408238D02*
X397645904Y-14455857D01*
X397645904Y-14455857D02*
X397693523Y-14551095D01*
X397693523Y-14551095D02*
X397693523Y-14646333D01*
X397693523Y-14646333D02*
X397645904Y-14789190D01*
X397645904Y-14789190D02*
X397074476Y-15360619D01*
X397074476Y-15360619D02*
X397693523Y-15360619D01*
X398598285Y-15360619D02*
X398122095Y-15360619D01*
X398122095Y-15360619D02*
X398122095Y-14360619D01*
%TO.C,U4*%
X350016049Y-209985350D02*
X350825994Y-209985350D01*
X350825994Y-209985350D02*
X350921282Y-209937707D01*
X350921282Y-209937707D02*
X350968926Y-209890063D01*
X350968926Y-209890063D02*
X351016569Y-209794775D01*
X351016569Y-209794775D02*
X351016569Y-209604200D01*
X351016569Y-209604200D02*
X350968926Y-209508912D01*
X350968926Y-209508912D02*
X350921282Y-209461269D01*
X350921282Y-209461269D02*
X350825994Y-209413625D01*
X350825994Y-209413625D02*
X350016049Y-209413625D01*
X350349556Y-208508392D02*
X351016569Y-208508392D01*
X349968406Y-208746611D02*
X350683063Y-208984830D01*
X350683063Y-208984830D02*
X350683063Y-208365461D01*
X351071097Y-169266775D02*
X350069404Y-169266775D01*
X350546401Y-169266775D02*
X350546401Y-168694379D01*
X351071097Y-168694379D02*
X350069404Y-168694379D01*
X350975698Y-167644986D02*
X351023398Y-167692686D01*
X351023398Y-167692686D02*
X351071097Y-167835785D01*
X351071097Y-167835785D02*
X351071097Y-167931184D01*
X351071097Y-167931184D02*
X351023398Y-168074283D01*
X351023398Y-168074283D02*
X350927998Y-168169683D01*
X350927998Y-168169683D02*
X350832599Y-168217382D01*
X350832599Y-168217382D02*
X350641800Y-168265082D01*
X350641800Y-168265082D02*
X350498701Y-168265082D01*
X350498701Y-168265082D02*
X350307903Y-168217382D01*
X350307903Y-168217382D02*
X350212503Y-168169683D01*
X350212503Y-168169683D02*
X350117104Y-168074283D01*
X350117104Y-168074283D02*
X350069404Y-167931184D01*
X350069404Y-167931184D02*
X350069404Y-167835785D01*
X350069404Y-167835785D02*
X350117104Y-167692686D01*
X350117104Y-167692686D02*
X350164804Y-167644986D01*
X350689500Y-167215689D02*
X350689500Y-166452495D01*
X351023398Y-166023198D02*
X351071097Y-165880099D01*
X351071097Y-165880099D02*
X351071097Y-165641601D01*
X351071097Y-165641601D02*
X351023398Y-165546201D01*
X351023398Y-165546201D02*
X350975698Y-165498502D01*
X350975698Y-165498502D02*
X350880299Y-165450802D01*
X350880299Y-165450802D02*
X350784899Y-165450802D01*
X350784899Y-165450802D02*
X350689500Y-165498502D01*
X350689500Y-165498502D02*
X350641800Y-165546201D01*
X350641800Y-165546201D02*
X350594101Y-165641601D01*
X350594101Y-165641601D02*
X350546401Y-165832399D01*
X350546401Y-165832399D02*
X350498701Y-165927799D01*
X350498701Y-165927799D02*
X350451002Y-165975498D01*
X350451002Y-165975498D02*
X350355602Y-166023198D01*
X350355602Y-166023198D02*
X350260203Y-166023198D01*
X350260203Y-166023198D02*
X350164804Y-165975498D01*
X350164804Y-165975498D02*
X350117104Y-165927799D01*
X350117104Y-165927799D02*
X350069404Y-165832399D01*
X350069404Y-165832399D02*
X350069404Y-165593901D01*
X350069404Y-165593901D02*
X350117104Y-165450802D01*
X351071097Y-164449109D02*
X350594101Y-164783007D01*
X351071097Y-165021505D02*
X350069404Y-165021505D01*
X350069404Y-165021505D02*
X350069404Y-164639908D01*
X350069404Y-164639908D02*
X350117104Y-164544509D01*
X350117104Y-164544509D02*
X350164804Y-164496809D01*
X350164804Y-164496809D02*
X350260203Y-164449109D01*
X350260203Y-164449109D02*
X350403302Y-164449109D01*
X350403302Y-164449109D02*
X350498701Y-164496809D01*
X350498701Y-164496809D02*
X350546401Y-164544509D01*
X350546401Y-164544509D02*
X350594101Y-164639908D01*
X350594101Y-164639908D02*
X350594101Y-165021505D01*
X350069404Y-163829014D02*
X350069404Y-163733614D01*
X350069404Y-163733614D02*
X350117104Y-163638215D01*
X350117104Y-163638215D02*
X350164804Y-163590515D01*
X350164804Y-163590515D02*
X350260203Y-163542816D01*
X350260203Y-163542816D02*
X350451002Y-163495116D01*
X350451002Y-163495116D02*
X350689500Y-163495116D01*
X350689500Y-163495116D02*
X350880299Y-163542816D01*
X350880299Y-163542816D02*
X350975698Y-163590515D01*
X350975698Y-163590515D02*
X351023398Y-163638215D01*
X351023398Y-163638215D02*
X351071097Y-163733614D01*
X351071097Y-163733614D02*
X351071097Y-163829014D01*
X351071097Y-163829014D02*
X351023398Y-163924413D01*
X351023398Y-163924413D02*
X350975698Y-163972113D01*
X350975698Y-163972113D02*
X350880299Y-164019812D01*
X350880299Y-164019812D02*
X350689500Y-164067512D01*
X350689500Y-164067512D02*
X350451002Y-164067512D01*
X350451002Y-164067512D02*
X350260203Y-164019812D01*
X350260203Y-164019812D02*
X350164804Y-163972113D01*
X350164804Y-163972113D02*
X350117104Y-163924413D01*
X350117104Y-163924413D02*
X350069404Y-163829014D01*
X350403302Y-162636522D02*
X351071097Y-162636522D01*
X350021705Y-162875021D02*
X350737200Y-163113519D01*
X350737200Y-163113519D02*
X350737200Y-162493423D01*
%TO.C,R8*%
X263231333Y-110048619D02*
X262898000Y-109572428D01*
X262659905Y-110048619D02*
X262659905Y-109048619D01*
X262659905Y-109048619D02*
X263040857Y-109048619D01*
X263040857Y-109048619D02*
X263136095Y-109096238D01*
X263136095Y-109096238D02*
X263183714Y-109143857D01*
X263183714Y-109143857D02*
X263231333Y-109239095D01*
X263231333Y-109239095D02*
X263231333Y-109381952D01*
X263231333Y-109381952D02*
X263183714Y-109477190D01*
X263183714Y-109477190D02*
X263136095Y-109524809D01*
X263136095Y-109524809D02*
X263040857Y-109572428D01*
X263040857Y-109572428D02*
X262659905Y-109572428D01*
X263802762Y-109477190D02*
X263707524Y-109429571D01*
X263707524Y-109429571D02*
X263659905Y-109381952D01*
X263659905Y-109381952D02*
X263612286Y-109286714D01*
X263612286Y-109286714D02*
X263612286Y-109239095D01*
X263612286Y-109239095D02*
X263659905Y-109143857D01*
X263659905Y-109143857D02*
X263707524Y-109096238D01*
X263707524Y-109096238D02*
X263802762Y-109048619D01*
X263802762Y-109048619D02*
X263993238Y-109048619D01*
X263993238Y-109048619D02*
X264088476Y-109096238D01*
X264088476Y-109096238D02*
X264136095Y-109143857D01*
X264136095Y-109143857D02*
X264183714Y-109239095D01*
X264183714Y-109239095D02*
X264183714Y-109286714D01*
X264183714Y-109286714D02*
X264136095Y-109381952D01*
X264136095Y-109381952D02*
X264088476Y-109429571D01*
X264088476Y-109429571D02*
X263993238Y-109477190D01*
X263993238Y-109477190D02*
X263802762Y-109477190D01*
X263802762Y-109477190D02*
X263707524Y-109524809D01*
X263707524Y-109524809D02*
X263659905Y-109572428D01*
X263659905Y-109572428D02*
X263612286Y-109667666D01*
X263612286Y-109667666D02*
X263612286Y-109858142D01*
X263612286Y-109858142D02*
X263659905Y-109953380D01*
X263659905Y-109953380D02*
X263707524Y-110001000D01*
X263707524Y-110001000D02*
X263802762Y-110048619D01*
X263802762Y-110048619D02*
X263993238Y-110048619D01*
X263993238Y-110048619D02*
X264088476Y-110001000D01*
X264088476Y-110001000D02*
X264136095Y-109953380D01*
X264136095Y-109953380D02*
X264183714Y-109858142D01*
X264183714Y-109858142D02*
X264183714Y-109667666D01*
X264183714Y-109667666D02*
X264136095Y-109572428D01*
X264136095Y-109572428D02*
X264088476Y-109524809D01*
X264088476Y-109524809D02*
X263993238Y-109477190D01*
X262802761Y-113888619D02*
X262231333Y-113888619D01*
X262517047Y-113888619D02*
X262517047Y-112888619D01*
X262517047Y-112888619D02*
X262421809Y-113031476D01*
X262421809Y-113031476D02*
X262326571Y-113126714D01*
X262326571Y-113126714D02*
X262231333Y-113174333D01*
X263707523Y-112888619D02*
X263231333Y-112888619D01*
X263231333Y-112888619D02*
X263183714Y-113364809D01*
X263183714Y-113364809D02*
X263231333Y-113317190D01*
X263231333Y-113317190D02*
X263326571Y-113269571D01*
X263326571Y-113269571D02*
X263564666Y-113269571D01*
X263564666Y-113269571D02*
X263659904Y-113317190D01*
X263659904Y-113317190D02*
X263707523Y-113364809D01*
X263707523Y-113364809D02*
X263755142Y-113460047D01*
X263755142Y-113460047D02*
X263755142Y-113698142D01*
X263755142Y-113698142D02*
X263707523Y-113793380D01*
X263707523Y-113793380D02*
X263659904Y-113841000D01*
X263659904Y-113841000D02*
X263564666Y-113888619D01*
X263564666Y-113888619D02*
X263326571Y-113888619D01*
X263326571Y-113888619D02*
X263231333Y-113841000D01*
X263231333Y-113841000D02*
X263183714Y-113793380D01*
X264183714Y-113888619D02*
X264183714Y-112888619D01*
X264278952Y-113507666D02*
X264564666Y-113888619D01*
X264564666Y-113221952D02*
X264183714Y-113602904D01*
%TO.C,D12*%
X174014619Y-71064285D02*
X173014619Y-71064285D01*
X173014619Y-71064285D02*
X173014619Y-70826190D01*
X173014619Y-70826190D02*
X173062238Y-70683333D01*
X173062238Y-70683333D02*
X173157476Y-70588095D01*
X173157476Y-70588095D02*
X173252714Y-70540476D01*
X173252714Y-70540476D02*
X173443190Y-70492857D01*
X173443190Y-70492857D02*
X173586047Y-70492857D01*
X173586047Y-70492857D02*
X173776523Y-70540476D01*
X173776523Y-70540476D02*
X173871761Y-70588095D01*
X173871761Y-70588095D02*
X173967000Y-70683333D01*
X173967000Y-70683333D02*
X174014619Y-70826190D01*
X174014619Y-70826190D02*
X174014619Y-71064285D01*
X174014619Y-69540476D02*
X174014619Y-70111904D01*
X174014619Y-69826190D02*
X173014619Y-69826190D01*
X173014619Y-69826190D02*
X173157476Y-69921428D01*
X173157476Y-69921428D02*
X173252714Y-70016666D01*
X173252714Y-70016666D02*
X173300333Y-70111904D01*
X173109857Y-69159523D02*
X173062238Y-69111904D01*
X173062238Y-69111904D02*
X173014619Y-69016666D01*
X173014619Y-69016666D02*
X173014619Y-68778571D01*
X173014619Y-68778571D02*
X173062238Y-68683333D01*
X173062238Y-68683333D02*
X173109857Y-68635714D01*
X173109857Y-68635714D02*
X173205095Y-68588095D01*
X173205095Y-68588095D02*
X173300333Y-68588095D01*
X173300333Y-68588095D02*
X173443190Y-68635714D01*
X173443190Y-68635714D02*
X174014619Y-69207142D01*
X174014619Y-69207142D02*
X174014619Y-68588095D01*
X174384619Y-75191904D02*
X173384619Y-75191904D01*
X174384619Y-74620476D02*
X173813190Y-75049047D01*
X173384619Y-74620476D02*
X173956047Y-75191904D01*
%TO.C,U5*%
X132455095Y-170687119D02*
X132455095Y-171496642D01*
X132455095Y-171496642D02*
X132502714Y-171591880D01*
X132502714Y-171591880D02*
X132550333Y-171639500D01*
X132550333Y-171639500D02*
X132645571Y-171687119D01*
X132645571Y-171687119D02*
X132836047Y-171687119D01*
X132836047Y-171687119D02*
X132931285Y-171639500D01*
X132931285Y-171639500D02*
X132978904Y-171591880D01*
X132978904Y-171591880D02*
X133026523Y-171496642D01*
X133026523Y-171496642D02*
X133026523Y-170687119D01*
X133978904Y-170687119D02*
X133502714Y-170687119D01*
X133502714Y-170687119D02*
X133455095Y-171163309D01*
X133455095Y-171163309D02*
X133502714Y-171115690D01*
X133502714Y-171115690D02*
X133597952Y-171068071D01*
X133597952Y-171068071D02*
X133836047Y-171068071D01*
X133836047Y-171068071D02*
X133931285Y-171115690D01*
X133931285Y-171115690D02*
X133978904Y-171163309D01*
X133978904Y-171163309D02*
X134026523Y-171258547D01*
X134026523Y-171258547D02*
X134026523Y-171496642D01*
X134026523Y-171496642D02*
X133978904Y-171591880D01*
X133978904Y-171591880D02*
X133931285Y-171639500D01*
X133931285Y-171639500D02*
X133836047Y-171687119D01*
X133836047Y-171687119D02*
X133597952Y-171687119D01*
X133597952Y-171687119D02*
X133502714Y-171639500D01*
X133502714Y-171639500D02*
X133455095Y-171591880D01*
X141781761Y-179957119D02*
X141305571Y-179957119D01*
X141305571Y-179957119D02*
X141305571Y-178957119D01*
X142019857Y-178957119D02*
X142686523Y-178957119D01*
X142686523Y-178957119D02*
X142257952Y-179957119D01*
X143210333Y-179385690D02*
X143115095Y-179338071D01*
X143115095Y-179338071D02*
X143067476Y-179290452D01*
X143067476Y-179290452D02*
X143019857Y-179195214D01*
X143019857Y-179195214D02*
X143019857Y-179147595D01*
X143019857Y-179147595D02*
X143067476Y-179052357D01*
X143067476Y-179052357D02*
X143115095Y-179004738D01*
X143115095Y-179004738D02*
X143210333Y-178957119D01*
X143210333Y-178957119D02*
X143400809Y-178957119D01*
X143400809Y-178957119D02*
X143496047Y-179004738D01*
X143496047Y-179004738D02*
X143543666Y-179052357D01*
X143543666Y-179052357D02*
X143591285Y-179147595D01*
X143591285Y-179147595D02*
X143591285Y-179195214D01*
X143591285Y-179195214D02*
X143543666Y-179290452D01*
X143543666Y-179290452D02*
X143496047Y-179338071D01*
X143496047Y-179338071D02*
X143400809Y-179385690D01*
X143400809Y-179385690D02*
X143210333Y-179385690D01*
X143210333Y-179385690D02*
X143115095Y-179433309D01*
X143115095Y-179433309D02*
X143067476Y-179480928D01*
X143067476Y-179480928D02*
X143019857Y-179576166D01*
X143019857Y-179576166D02*
X143019857Y-179766642D01*
X143019857Y-179766642D02*
X143067476Y-179861880D01*
X143067476Y-179861880D02*
X143115095Y-179909500D01*
X143115095Y-179909500D02*
X143210333Y-179957119D01*
X143210333Y-179957119D02*
X143400809Y-179957119D01*
X143400809Y-179957119D02*
X143496047Y-179909500D01*
X143496047Y-179909500D02*
X143543666Y-179861880D01*
X143543666Y-179861880D02*
X143591285Y-179766642D01*
X143591285Y-179766642D02*
X143591285Y-179576166D01*
X143591285Y-179576166D02*
X143543666Y-179480928D01*
X143543666Y-179480928D02*
X143496047Y-179433309D01*
X143496047Y-179433309D02*
X143400809Y-179385690D01*
X144543666Y-179957119D02*
X143972238Y-179957119D01*
X144257952Y-179957119D02*
X144257952Y-178957119D01*
X144257952Y-178957119D02*
X144162714Y-179099976D01*
X144162714Y-179099976D02*
X144067476Y-179195214D01*
X144067476Y-179195214D02*
X143972238Y-179242833D01*
X144924619Y-179052357D02*
X144972238Y-179004738D01*
X144972238Y-179004738D02*
X145067476Y-178957119D01*
X145067476Y-178957119D02*
X145305571Y-178957119D01*
X145305571Y-178957119D02*
X145400809Y-179004738D01*
X145400809Y-179004738D02*
X145448428Y-179052357D01*
X145448428Y-179052357D02*
X145496047Y-179147595D01*
X145496047Y-179147595D02*
X145496047Y-179242833D01*
X145496047Y-179242833D02*
X145448428Y-179385690D01*
X145448428Y-179385690D02*
X144877000Y-179957119D01*
X144877000Y-179957119D02*
X145496047Y-179957119D01*
%TO.C,D10*%
X189762619Y-40076285D02*
X188762619Y-40076285D01*
X188762619Y-40076285D02*
X188762619Y-39838190D01*
X188762619Y-39838190D02*
X188810238Y-39695333D01*
X188810238Y-39695333D02*
X188905476Y-39600095D01*
X188905476Y-39600095D02*
X189000714Y-39552476D01*
X189000714Y-39552476D02*
X189191190Y-39504857D01*
X189191190Y-39504857D02*
X189334047Y-39504857D01*
X189334047Y-39504857D02*
X189524523Y-39552476D01*
X189524523Y-39552476D02*
X189619761Y-39600095D01*
X189619761Y-39600095D02*
X189715000Y-39695333D01*
X189715000Y-39695333D02*
X189762619Y-39838190D01*
X189762619Y-39838190D02*
X189762619Y-40076285D01*
X189762619Y-38552476D02*
X189762619Y-39123904D01*
X189762619Y-38838190D02*
X188762619Y-38838190D01*
X188762619Y-38838190D02*
X188905476Y-38933428D01*
X188905476Y-38933428D02*
X189000714Y-39028666D01*
X189000714Y-39028666D02*
X189048333Y-39123904D01*
X188762619Y-37933428D02*
X188762619Y-37838190D01*
X188762619Y-37838190D02*
X188810238Y-37742952D01*
X188810238Y-37742952D02*
X188857857Y-37695333D01*
X188857857Y-37695333D02*
X188953095Y-37647714D01*
X188953095Y-37647714D02*
X189143571Y-37600095D01*
X189143571Y-37600095D02*
X189381666Y-37600095D01*
X189381666Y-37600095D02*
X189572142Y-37647714D01*
X189572142Y-37647714D02*
X189667380Y-37695333D01*
X189667380Y-37695333D02*
X189715000Y-37742952D01*
X189715000Y-37742952D02*
X189762619Y-37838190D01*
X189762619Y-37838190D02*
X189762619Y-37933428D01*
X189762619Y-37933428D02*
X189715000Y-38028666D01*
X189715000Y-38028666D02*
X189667380Y-38076285D01*
X189667380Y-38076285D02*
X189572142Y-38123904D01*
X189572142Y-38123904D02*
X189381666Y-38171523D01*
X189381666Y-38171523D02*
X189143571Y-38171523D01*
X189143571Y-38171523D02*
X188953095Y-38123904D01*
X188953095Y-38123904D02*
X188857857Y-38076285D01*
X188857857Y-38076285D02*
X188810238Y-38028666D01*
X188810238Y-38028666D02*
X188762619Y-37933428D01*
X190132619Y-44203904D02*
X189132619Y-44203904D01*
X190132619Y-43632476D02*
X189561190Y-44061047D01*
X189132619Y-43632476D02*
X189704047Y-44203904D01*
%TO.C,D11*%
X188238619Y-70556285D02*
X187238619Y-70556285D01*
X187238619Y-70556285D02*
X187238619Y-70318190D01*
X187238619Y-70318190D02*
X187286238Y-70175333D01*
X187286238Y-70175333D02*
X187381476Y-70080095D01*
X187381476Y-70080095D02*
X187476714Y-70032476D01*
X187476714Y-70032476D02*
X187667190Y-69984857D01*
X187667190Y-69984857D02*
X187810047Y-69984857D01*
X187810047Y-69984857D02*
X188000523Y-70032476D01*
X188000523Y-70032476D02*
X188095761Y-70080095D01*
X188095761Y-70080095D02*
X188191000Y-70175333D01*
X188191000Y-70175333D02*
X188238619Y-70318190D01*
X188238619Y-70318190D02*
X188238619Y-70556285D01*
X188238619Y-69032476D02*
X188238619Y-69603904D01*
X188238619Y-69318190D02*
X187238619Y-69318190D01*
X187238619Y-69318190D02*
X187381476Y-69413428D01*
X187381476Y-69413428D02*
X187476714Y-69508666D01*
X187476714Y-69508666D02*
X187524333Y-69603904D01*
X188238619Y-68080095D02*
X188238619Y-68651523D01*
X188238619Y-68365809D02*
X187238619Y-68365809D01*
X187238619Y-68365809D02*
X187381476Y-68461047D01*
X187381476Y-68461047D02*
X187476714Y-68556285D01*
X187476714Y-68556285D02*
X187524333Y-68651523D01*
X188608619Y-74683904D02*
X187608619Y-74683904D01*
X188608619Y-74112476D02*
X188037190Y-74541047D01*
X187608619Y-74112476D02*
X188180047Y-74683904D01*
%TO.C,R1*%
X311491333Y-165420619D02*
X311158000Y-164944428D01*
X310919905Y-165420619D02*
X310919905Y-164420619D01*
X310919905Y-164420619D02*
X311300857Y-164420619D01*
X311300857Y-164420619D02*
X311396095Y-164468238D01*
X311396095Y-164468238D02*
X311443714Y-164515857D01*
X311443714Y-164515857D02*
X311491333Y-164611095D01*
X311491333Y-164611095D02*
X311491333Y-164753952D01*
X311491333Y-164753952D02*
X311443714Y-164849190D01*
X311443714Y-164849190D02*
X311396095Y-164896809D01*
X311396095Y-164896809D02*
X311300857Y-164944428D01*
X311300857Y-164944428D02*
X310919905Y-164944428D01*
X312443714Y-165420619D02*
X311872286Y-165420619D01*
X312158000Y-165420619D02*
X312158000Y-164420619D01*
X312158000Y-164420619D02*
X312062762Y-164563476D01*
X312062762Y-164563476D02*
X311967524Y-164658714D01*
X311967524Y-164658714D02*
X311872286Y-164706333D01*
X310824666Y-169260619D02*
X310253238Y-169260619D01*
X310538952Y-169260619D02*
X310538952Y-168260619D01*
X310538952Y-168260619D02*
X310443714Y-168403476D01*
X310443714Y-168403476D02*
X310348476Y-168498714D01*
X310348476Y-168498714D02*
X310253238Y-168546333D01*
X311253238Y-169165380D02*
X311300857Y-169213000D01*
X311300857Y-169213000D02*
X311253238Y-169260619D01*
X311253238Y-169260619D02*
X311205619Y-169213000D01*
X311205619Y-169213000D02*
X311253238Y-169165380D01*
X311253238Y-169165380D02*
X311253238Y-169260619D01*
X312205618Y-168260619D02*
X311729428Y-168260619D01*
X311729428Y-168260619D02*
X311681809Y-168736809D01*
X311681809Y-168736809D02*
X311729428Y-168689190D01*
X311729428Y-168689190D02*
X311824666Y-168641571D01*
X311824666Y-168641571D02*
X312062761Y-168641571D01*
X312062761Y-168641571D02*
X312157999Y-168689190D01*
X312157999Y-168689190D02*
X312205618Y-168736809D01*
X312205618Y-168736809D02*
X312253237Y-168832047D01*
X312253237Y-168832047D02*
X312253237Y-169070142D01*
X312253237Y-169070142D02*
X312205618Y-169165380D01*
X312205618Y-169165380D02*
X312157999Y-169213000D01*
X312157999Y-169213000D02*
X312062761Y-169260619D01*
X312062761Y-169260619D02*
X311824666Y-169260619D01*
X311824666Y-169260619D02*
X311729428Y-169213000D01*
X311729428Y-169213000D02*
X311681809Y-169165380D01*
X312681809Y-169260619D02*
X312681809Y-168260619D01*
X312777047Y-168879666D02*
X313062761Y-169260619D01*
X313062761Y-168593952D02*
X312681809Y-168974904D01*
%TO.C,VR3*%
X132913476Y-238604619D02*
X133246809Y-239604619D01*
X133246809Y-239604619D02*
X133580142Y-238604619D01*
X134484904Y-239604619D02*
X134151571Y-239128428D01*
X133913476Y-239604619D02*
X133913476Y-238604619D01*
X133913476Y-238604619D02*
X134294428Y-238604619D01*
X134294428Y-238604619D02*
X134389666Y-238652238D01*
X134389666Y-238652238D02*
X134437285Y-238699857D01*
X134437285Y-238699857D02*
X134484904Y-238795095D01*
X134484904Y-238795095D02*
X134484904Y-238937952D01*
X134484904Y-238937952D02*
X134437285Y-239033190D01*
X134437285Y-239033190D02*
X134389666Y-239080809D01*
X134389666Y-239080809D02*
X134294428Y-239128428D01*
X134294428Y-239128428D02*
X133913476Y-239128428D01*
X134818238Y-238604619D02*
X135437285Y-238604619D01*
X135437285Y-238604619D02*
X135103952Y-238985571D01*
X135103952Y-238985571D02*
X135246809Y-238985571D01*
X135246809Y-238985571D02*
X135342047Y-239033190D01*
X135342047Y-239033190D02*
X135389666Y-239080809D01*
X135389666Y-239080809D02*
X135437285Y-239176047D01*
X135437285Y-239176047D02*
X135437285Y-239414142D01*
X135437285Y-239414142D02*
X135389666Y-239509380D01*
X135389666Y-239509380D02*
X135342047Y-239557000D01*
X135342047Y-239557000D02*
X135246809Y-239604619D01*
X135246809Y-239604619D02*
X134961095Y-239604619D01*
X134961095Y-239604619D02*
X134865857Y-239557000D01*
X134865857Y-239557000D02*
X134818238Y-239509380D01*
X142787761Y-247874619D02*
X142311571Y-247874619D01*
X142311571Y-247874619D02*
X142311571Y-246874619D01*
X143025857Y-246874619D02*
X143692523Y-246874619D01*
X143692523Y-246874619D02*
X143263952Y-247874619D01*
X144216333Y-247303190D02*
X144121095Y-247255571D01*
X144121095Y-247255571D02*
X144073476Y-247207952D01*
X144073476Y-247207952D02*
X144025857Y-247112714D01*
X144025857Y-247112714D02*
X144025857Y-247065095D01*
X144025857Y-247065095D02*
X144073476Y-246969857D01*
X144073476Y-246969857D02*
X144121095Y-246922238D01*
X144121095Y-246922238D02*
X144216333Y-246874619D01*
X144216333Y-246874619D02*
X144406809Y-246874619D01*
X144406809Y-246874619D02*
X144502047Y-246922238D01*
X144502047Y-246922238D02*
X144549666Y-246969857D01*
X144549666Y-246969857D02*
X144597285Y-247065095D01*
X144597285Y-247065095D02*
X144597285Y-247112714D01*
X144597285Y-247112714D02*
X144549666Y-247207952D01*
X144549666Y-247207952D02*
X144502047Y-247255571D01*
X144502047Y-247255571D02*
X144406809Y-247303190D01*
X144406809Y-247303190D02*
X144216333Y-247303190D01*
X144216333Y-247303190D02*
X144121095Y-247350809D01*
X144121095Y-247350809D02*
X144073476Y-247398428D01*
X144073476Y-247398428D02*
X144025857Y-247493666D01*
X144025857Y-247493666D02*
X144025857Y-247684142D01*
X144025857Y-247684142D02*
X144073476Y-247779380D01*
X144073476Y-247779380D02*
X144121095Y-247827000D01*
X144121095Y-247827000D02*
X144216333Y-247874619D01*
X144216333Y-247874619D02*
X144406809Y-247874619D01*
X144406809Y-247874619D02*
X144502047Y-247827000D01*
X144502047Y-247827000D02*
X144549666Y-247779380D01*
X144549666Y-247779380D02*
X144597285Y-247684142D01*
X144597285Y-247684142D02*
X144597285Y-247493666D01*
X144597285Y-247493666D02*
X144549666Y-247398428D01*
X144549666Y-247398428D02*
X144502047Y-247350809D01*
X144502047Y-247350809D02*
X144406809Y-247303190D01*
X145216333Y-246874619D02*
X145311571Y-246874619D01*
X145311571Y-246874619D02*
X145406809Y-246922238D01*
X145406809Y-246922238D02*
X145454428Y-246969857D01*
X145454428Y-246969857D02*
X145502047Y-247065095D01*
X145502047Y-247065095D02*
X145549666Y-247255571D01*
X145549666Y-247255571D02*
X145549666Y-247493666D01*
X145549666Y-247493666D02*
X145502047Y-247684142D01*
X145502047Y-247684142D02*
X145454428Y-247779380D01*
X145454428Y-247779380D02*
X145406809Y-247827000D01*
X145406809Y-247827000D02*
X145311571Y-247874619D01*
X145311571Y-247874619D02*
X145216333Y-247874619D01*
X145216333Y-247874619D02*
X145121095Y-247827000D01*
X145121095Y-247827000D02*
X145073476Y-247779380D01*
X145073476Y-247779380D02*
X145025857Y-247684142D01*
X145025857Y-247684142D02*
X144978238Y-247493666D01*
X144978238Y-247493666D02*
X144978238Y-247255571D01*
X144978238Y-247255571D02*
X145025857Y-247065095D01*
X145025857Y-247065095D02*
X145073476Y-246969857D01*
X145073476Y-246969857D02*
X145121095Y-246922238D01*
X145121095Y-246922238D02*
X145216333Y-246874619D01*
X146454428Y-246874619D02*
X145978238Y-246874619D01*
X145978238Y-246874619D02*
X145930619Y-247350809D01*
X145930619Y-247350809D02*
X145978238Y-247303190D01*
X145978238Y-247303190D02*
X146073476Y-247255571D01*
X146073476Y-247255571D02*
X146311571Y-247255571D01*
X146311571Y-247255571D02*
X146406809Y-247303190D01*
X146406809Y-247303190D02*
X146454428Y-247350809D01*
X146454428Y-247350809D02*
X146502047Y-247446047D01*
X146502047Y-247446047D02*
X146502047Y-247684142D01*
X146502047Y-247684142D02*
X146454428Y-247779380D01*
X146454428Y-247779380D02*
X146406809Y-247827000D01*
X146406809Y-247827000D02*
X146311571Y-247874619D01*
X146311571Y-247874619D02*
X146073476Y-247874619D01*
X146073476Y-247874619D02*
X145978238Y-247827000D01*
X145978238Y-247827000D02*
X145930619Y-247779380D01*
%TO.C,C1*%
X99535333Y-52115380D02*
X99487714Y-52163000D01*
X99487714Y-52163000D02*
X99344857Y-52210619D01*
X99344857Y-52210619D02*
X99249619Y-52210619D01*
X99249619Y-52210619D02*
X99106762Y-52163000D01*
X99106762Y-52163000D02*
X99011524Y-52067761D01*
X99011524Y-52067761D02*
X98963905Y-51972523D01*
X98963905Y-51972523D02*
X98916286Y-51782047D01*
X98916286Y-51782047D02*
X98916286Y-51639190D01*
X98916286Y-51639190D02*
X98963905Y-51448714D01*
X98963905Y-51448714D02*
X99011524Y-51353476D01*
X99011524Y-51353476D02*
X99106762Y-51258238D01*
X99106762Y-51258238D02*
X99249619Y-51210619D01*
X99249619Y-51210619D02*
X99344857Y-51210619D01*
X99344857Y-51210619D02*
X99487714Y-51258238D01*
X99487714Y-51258238D02*
X99535333Y-51305857D01*
X100487714Y-52210619D02*
X99916286Y-52210619D01*
X100202000Y-52210619D02*
X100202000Y-51210619D01*
X100202000Y-51210619D02*
X100106762Y-51353476D01*
X100106762Y-51353476D02*
X100011524Y-51448714D01*
X100011524Y-51448714D02*
X99916286Y-51496333D01*
%TO.C,BT3*%
X57166285Y-210330809D02*
X57309142Y-210378428D01*
X57309142Y-210378428D02*
X57356761Y-210426047D01*
X57356761Y-210426047D02*
X57404380Y-210521285D01*
X57404380Y-210521285D02*
X57404380Y-210664142D01*
X57404380Y-210664142D02*
X57356761Y-210759380D01*
X57356761Y-210759380D02*
X57309142Y-210807000D01*
X57309142Y-210807000D02*
X57213904Y-210854619D01*
X57213904Y-210854619D02*
X56832952Y-210854619D01*
X56832952Y-210854619D02*
X56832952Y-209854619D01*
X56832952Y-209854619D02*
X57166285Y-209854619D01*
X57166285Y-209854619D02*
X57261523Y-209902238D01*
X57261523Y-209902238D02*
X57309142Y-209949857D01*
X57309142Y-209949857D02*
X57356761Y-210045095D01*
X57356761Y-210045095D02*
X57356761Y-210140333D01*
X57356761Y-210140333D02*
X57309142Y-210235571D01*
X57309142Y-210235571D02*
X57261523Y-210283190D01*
X57261523Y-210283190D02*
X57166285Y-210330809D01*
X57166285Y-210330809D02*
X56832952Y-210330809D01*
X57690095Y-209854619D02*
X58261523Y-209854619D01*
X57975809Y-210854619D02*
X57975809Y-209854619D01*
X58499619Y-209854619D02*
X59118666Y-209854619D01*
X59118666Y-209854619D02*
X58785333Y-210235571D01*
X58785333Y-210235571D02*
X58928190Y-210235571D01*
X58928190Y-210235571D02*
X59023428Y-210283190D01*
X59023428Y-210283190D02*
X59071047Y-210330809D01*
X59071047Y-210330809D02*
X59118666Y-210426047D01*
X59118666Y-210426047D02*
X59118666Y-210664142D01*
X59118666Y-210664142D02*
X59071047Y-210759380D01*
X59071047Y-210759380D02*
X59023428Y-210807000D01*
X59023428Y-210807000D02*
X58928190Y-210854619D01*
X58928190Y-210854619D02*
X58642476Y-210854619D01*
X58642476Y-210854619D02*
X58547238Y-210807000D01*
X58547238Y-210807000D02*
X58499619Y-210759380D01*
%TO.C,.1*%
X145319810Y-13726380D02*
X145367429Y-13774000D01*
X145367429Y-13774000D02*
X145319810Y-13821619D01*
X145319810Y-13821619D02*
X145272191Y-13774000D01*
X145272191Y-13774000D02*
X145319810Y-13726380D01*
X145319810Y-13726380D02*
X145319810Y-13821619D01*
X146319809Y-13821619D02*
X145748381Y-13821619D01*
X146034095Y-13821619D02*
X146034095Y-12821619D01*
X146034095Y-12821619D02*
X145938857Y-12964476D01*
X145938857Y-12964476D02*
X145843619Y-13059714D01*
X145843619Y-13059714D02*
X145748381Y-13107333D01*
%TO.C,C7*%
X142603333Y-215657380D02*
X142555714Y-215705000D01*
X142555714Y-215705000D02*
X142412857Y-215752619D01*
X142412857Y-215752619D02*
X142317619Y-215752619D01*
X142317619Y-215752619D02*
X142174762Y-215705000D01*
X142174762Y-215705000D02*
X142079524Y-215609761D01*
X142079524Y-215609761D02*
X142031905Y-215514523D01*
X142031905Y-215514523D02*
X141984286Y-215324047D01*
X141984286Y-215324047D02*
X141984286Y-215181190D01*
X141984286Y-215181190D02*
X142031905Y-214990714D01*
X142031905Y-214990714D02*
X142079524Y-214895476D01*
X142079524Y-214895476D02*
X142174762Y-214800238D01*
X142174762Y-214800238D02*
X142317619Y-214752619D01*
X142317619Y-214752619D02*
X142412857Y-214752619D01*
X142412857Y-214752619D02*
X142555714Y-214800238D01*
X142555714Y-214800238D02*
X142603333Y-214847857D01*
X142936667Y-214752619D02*
X143603333Y-214752619D01*
X143603333Y-214752619D02*
X143174762Y-215752619D01*
X140127142Y-209352619D02*
X139555714Y-209352619D01*
X139841428Y-209352619D02*
X139841428Y-208352619D01*
X139841428Y-208352619D02*
X139746190Y-208495476D01*
X139746190Y-208495476D02*
X139650952Y-208590714D01*
X139650952Y-208590714D02*
X139555714Y-208638333D01*
X140746190Y-208352619D02*
X140841428Y-208352619D01*
X140841428Y-208352619D02*
X140936666Y-208400238D01*
X140936666Y-208400238D02*
X140984285Y-208447857D01*
X140984285Y-208447857D02*
X141031904Y-208543095D01*
X141031904Y-208543095D02*
X141079523Y-208733571D01*
X141079523Y-208733571D02*
X141079523Y-208971666D01*
X141079523Y-208971666D02*
X141031904Y-209162142D01*
X141031904Y-209162142D02*
X140984285Y-209257380D01*
X140984285Y-209257380D02*
X140936666Y-209305000D01*
X140936666Y-209305000D02*
X140841428Y-209352619D01*
X140841428Y-209352619D02*
X140746190Y-209352619D01*
X140746190Y-209352619D02*
X140650952Y-209305000D01*
X140650952Y-209305000D02*
X140603333Y-209257380D01*
X140603333Y-209257380D02*
X140555714Y-209162142D01*
X140555714Y-209162142D02*
X140508095Y-208971666D01*
X140508095Y-208971666D02*
X140508095Y-208733571D01*
X140508095Y-208733571D02*
X140555714Y-208543095D01*
X140555714Y-208543095D02*
X140603333Y-208447857D01*
X140603333Y-208447857D02*
X140650952Y-208400238D01*
X140650952Y-208400238D02*
X140746190Y-208352619D01*
X141936666Y-208685952D02*
X141936666Y-209352619D01*
X141508095Y-208685952D02*
X141508095Y-209209761D01*
X141508095Y-209209761D02*
X141555714Y-209305000D01*
X141555714Y-209305000D02*
X141650952Y-209352619D01*
X141650952Y-209352619D02*
X141793809Y-209352619D01*
X141793809Y-209352619D02*
X141889047Y-209305000D01*
X141889047Y-209305000D02*
X141936666Y-209257380D01*
X142270000Y-208685952D02*
X142650952Y-208685952D01*
X142412857Y-209352619D02*
X142412857Y-208495476D01*
X142412857Y-208495476D02*
X142460476Y-208400238D01*
X142460476Y-208400238D02*
X142555714Y-208352619D01*
X142555714Y-208352619D02*
X142650952Y-208352619D01*
X144222381Y-208352619D02*
X143746191Y-208352619D01*
X143746191Y-208352619D02*
X143698572Y-208828809D01*
X143698572Y-208828809D02*
X143746191Y-208781190D01*
X143746191Y-208781190D02*
X143841429Y-208733571D01*
X143841429Y-208733571D02*
X144079524Y-208733571D01*
X144079524Y-208733571D02*
X144174762Y-208781190D01*
X144174762Y-208781190D02*
X144222381Y-208828809D01*
X144222381Y-208828809D02*
X144270000Y-208924047D01*
X144270000Y-208924047D02*
X144270000Y-209162142D01*
X144270000Y-209162142D02*
X144222381Y-209257380D01*
X144222381Y-209257380D02*
X144174762Y-209305000D01*
X144174762Y-209305000D02*
X144079524Y-209352619D01*
X144079524Y-209352619D02*
X143841429Y-209352619D01*
X143841429Y-209352619D02*
X143746191Y-209305000D01*
X143746191Y-209305000D02*
X143698572Y-209257380D01*
X144889048Y-208352619D02*
X144984286Y-208352619D01*
X144984286Y-208352619D02*
X145079524Y-208400238D01*
X145079524Y-208400238D02*
X145127143Y-208447857D01*
X145127143Y-208447857D02*
X145174762Y-208543095D01*
X145174762Y-208543095D02*
X145222381Y-208733571D01*
X145222381Y-208733571D02*
X145222381Y-208971666D01*
X145222381Y-208971666D02*
X145174762Y-209162142D01*
X145174762Y-209162142D02*
X145127143Y-209257380D01*
X145127143Y-209257380D02*
X145079524Y-209305000D01*
X145079524Y-209305000D02*
X144984286Y-209352619D01*
X144984286Y-209352619D02*
X144889048Y-209352619D01*
X144889048Y-209352619D02*
X144793810Y-209305000D01*
X144793810Y-209305000D02*
X144746191Y-209257380D01*
X144746191Y-209257380D02*
X144698572Y-209162142D01*
X144698572Y-209162142D02*
X144650953Y-208971666D01*
X144650953Y-208971666D02*
X144650953Y-208733571D01*
X144650953Y-208733571D02*
X144698572Y-208543095D01*
X144698572Y-208543095D02*
X144746191Y-208447857D01*
X144746191Y-208447857D02*
X144793810Y-208400238D01*
X144793810Y-208400238D02*
X144889048Y-208352619D01*
X145555715Y-208685952D02*
X145793810Y-209352619D01*
X145793810Y-209352619D02*
X146031905Y-208685952D01*
%TO.C,C5*%
X200747333Y-151599380D02*
X200699714Y-151647000D01*
X200699714Y-151647000D02*
X200556857Y-151694619D01*
X200556857Y-151694619D02*
X200461619Y-151694619D01*
X200461619Y-151694619D02*
X200318762Y-151647000D01*
X200318762Y-151647000D02*
X200223524Y-151551761D01*
X200223524Y-151551761D02*
X200175905Y-151456523D01*
X200175905Y-151456523D02*
X200128286Y-151266047D01*
X200128286Y-151266047D02*
X200128286Y-151123190D01*
X200128286Y-151123190D02*
X200175905Y-150932714D01*
X200175905Y-150932714D02*
X200223524Y-150837476D01*
X200223524Y-150837476D02*
X200318762Y-150742238D01*
X200318762Y-150742238D02*
X200461619Y-150694619D01*
X200461619Y-150694619D02*
X200556857Y-150694619D01*
X200556857Y-150694619D02*
X200699714Y-150742238D01*
X200699714Y-150742238D02*
X200747333Y-150789857D01*
X201652095Y-150694619D02*
X201175905Y-150694619D01*
X201175905Y-150694619D02*
X201128286Y-151170809D01*
X201128286Y-151170809D02*
X201175905Y-151123190D01*
X201175905Y-151123190D02*
X201271143Y-151075571D01*
X201271143Y-151075571D02*
X201509238Y-151075571D01*
X201509238Y-151075571D02*
X201604476Y-151123190D01*
X201604476Y-151123190D02*
X201652095Y-151170809D01*
X201652095Y-151170809D02*
X201699714Y-151266047D01*
X201699714Y-151266047D02*
X201699714Y-151504142D01*
X201699714Y-151504142D02*
X201652095Y-151599380D01*
X201652095Y-151599380D02*
X201604476Y-151647000D01*
X201604476Y-151647000D02*
X201509238Y-151694619D01*
X201509238Y-151694619D02*
X201271143Y-151694619D01*
X201271143Y-151694619D02*
X201175905Y-151647000D01*
X201175905Y-151647000D02*
X201128286Y-151599380D01*
X198271142Y-158094619D02*
X197699714Y-158094619D01*
X197985428Y-158094619D02*
X197985428Y-157094619D01*
X197985428Y-157094619D02*
X197890190Y-157237476D01*
X197890190Y-157237476D02*
X197794952Y-157332714D01*
X197794952Y-157332714D02*
X197699714Y-157380333D01*
X198890190Y-157094619D02*
X198985428Y-157094619D01*
X198985428Y-157094619D02*
X199080666Y-157142238D01*
X199080666Y-157142238D02*
X199128285Y-157189857D01*
X199128285Y-157189857D02*
X199175904Y-157285095D01*
X199175904Y-157285095D02*
X199223523Y-157475571D01*
X199223523Y-157475571D02*
X199223523Y-157713666D01*
X199223523Y-157713666D02*
X199175904Y-157904142D01*
X199175904Y-157904142D02*
X199128285Y-157999380D01*
X199128285Y-157999380D02*
X199080666Y-158047000D01*
X199080666Y-158047000D02*
X198985428Y-158094619D01*
X198985428Y-158094619D02*
X198890190Y-158094619D01*
X198890190Y-158094619D02*
X198794952Y-158047000D01*
X198794952Y-158047000D02*
X198747333Y-157999380D01*
X198747333Y-157999380D02*
X198699714Y-157904142D01*
X198699714Y-157904142D02*
X198652095Y-157713666D01*
X198652095Y-157713666D02*
X198652095Y-157475571D01*
X198652095Y-157475571D02*
X198699714Y-157285095D01*
X198699714Y-157285095D02*
X198747333Y-157189857D01*
X198747333Y-157189857D02*
X198794952Y-157142238D01*
X198794952Y-157142238D02*
X198890190Y-157094619D01*
X200080666Y-157427952D02*
X200080666Y-158094619D01*
X199652095Y-157427952D02*
X199652095Y-157951761D01*
X199652095Y-157951761D02*
X199699714Y-158047000D01*
X199699714Y-158047000D02*
X199794952Y-158094619D01*
X199794952Y-158094619D02*
X199937809Y-158094619D01*
X199937809Y-158094619D02*
X200033047Y-158047000D01*
X200033047Y-158047000D02*
X200080666Y-157999380D01*
X200414000Y-157427952D02*
X200794952Y-157427952D01*
X200556857Y-158094619D02*
X200556857Y-157237476D01*
X200556857Y-157237476D02*
X200604476Y-157142238D01*
X200604476Y-157142238D02*
X200699714Y-157094619D01*
X200699714Y-157094619D02*
X200794952Y-157094619D01*
X202366381Y-157094619D02*
X201890191Y-157094619D01*
X201890191Y-157094619D02*
X201842572Y-157570809D01*
X201842572Y-157570809D02*
X201890191Y-157523190D01*
X201890191Y-157523190D02*
X201985429Y-157475571D01*
X201985429Y-157475571D02*
X202223524Y-157475571D01*
X202223524Y-157475571D02*
X202318762Y-157523190D01*
X202318762Y-157523190D02*
X202366381Y-157570809D01*
X202366381Y-157570809D02*
X202414000Y-157666047D01*
X202414000Y-157666047D02*
X202414000Y-157904142D01*
X202414000Y-157904142D02*
X202366381Y-157999380D01*
X202366381Y-157999380D02*
X202318762Y-158047000D01*
X202318762Y-158047000D02*
X202223524Y-158094619D01*
X202223524Y-158094619D02*
X201985429Y-158094619D01*
X201985429Y-158094619D02*
X201890191Y-158047000D01*
X201890191Y-158047000D02*
X201842572Y-157999380D01*
X203033048Y-157094619D02*
X203128286Y-157094619D01*
X203128286Y-157094619D02*
X203223524Y-157142238D01*
X203223524Y-157142238D02*
X203271143Y-157189857D01*
X203271143Y-157189857D02*
X203318762Y-157285095D01*
X203318762Y-157285095D02*
X203366381Y-157475571D01*
X203366381Y-157475571D02*
X203366381Y-157713666D01*
X203366381Y-157713666D02*
X203318762Y-157904142D01*
X203318762Y-157904142D02*
X203271143Y-157999380D01*
X203271143Y-157999380D02*
X203223524Y-158047000D01*
X203223524Y-158047000D02*
X203128286Y-158094619D01*
X203128286Y-158094619D02*
X203033048Y-158094619D01*
X203033048Y-158094619D02*
X202937810Y-158047000D01*
X202937810Y-158047000D02*
X202890191Y-157999380D01*
X202890191Y-157999380D02*
X202842572Y-157904142D01*
X202842572Y-157904142D02*
X202794953Y-157713666D01*
X202794953Y-157713666D02*
X202794953Y-157475571D01*
X202794953Y-157475571D02*
X202842572Y-157285095D01*
X202842572Y-157285095D02*
X202890191Y-157189857D01*
X202890191Y-157189857D02*
X202937810Y-157142238D01*
X202937810Y-157142238D02*
X203033048Y-157094619D01*
X203699715Y-157427952D02*
X203937810Y-158094619D01*
X203937810Y-158094619D02*
X204175905Y-157427952D01*
%TO.C,J1*%
X290750666Y-169031619D02*
X290750666Y-169745904D01*
X290750666Y-169745904D02*
X290703047Y-169888761D01*
X290703047Y-169888761D02*
X290607809Y-169984000D01*
X290607809Y-169984000D02*
X290464952Y-170031619D01*
X290464952Y-170031619D02*
X290369714Y-170031619D01*
X291750666Y-170031619D02*
X291179238Y-170031619D01*
X291464952Y-170031619D02*
X291464952Y-169031619D01*
X291464952Y-169031619D02*
X291369714Y-169174476D01*
X291369714Y-169174476D02*
X291274476Y-169269714D01*
X291274476Y-169269714D02*
X291179238Y-169317333D01*
X288155428Y-173920666D02*
X288917333Y-173920666D01*
X290155428Y-174301619D02*
X290155428Y-173634952D01*
X290155428Y-173730190D02*
X290203047Y-173682571D01*
X290203047Y-173682571D02*
X290298285Y-173634952D01*
X290298285Y-173634952D02*
X290441142Y-173634952D01*
X290441142Y-173634952D02*
X290536380Y-173682571D01*
X290536380Y-173682571D02*
X290583999Y-173777809D01*
X290583999Y-173777809D02*
X290583999Y-174301619D01*
X290583999Y-173777809D02*
X290631618Y-173682571D01*
X290631618Y-173682571D02*
X290726856Y-173634952D01*
X290726856Y-173634952D02*
X290869713Y-173634952D01*
X290869713Y-173634952D02*
X290964952Y-173682571D01*
X290964952Y-173682571D02*
X291012571Y-173777809D01*
X291012571Y-173777809D02*
X291012571Y-174301619D01*
X291631618Y-174301619D02*
X291536380Y-174254000D01*
X291536380Y-174254000D02*
X291488761Y-174206380D01*
X291488761Y-174206380D02*
X291441142Y-174111142D01*
X291441142Y-174111142D02*
X291441142Y-173825428D01*
X291441142Y-173825428D02*
X291488761Y-173730190D01*
X291488761Y-173730190D02*
X291536380Y-173682571D01*
X291536380Y-173682571D02*
X291631618Y-173634952D01*
X291631618Y-173634952D02*
X291774475Y-173634952D01*
X291774475Y-173634952D02*
X291869713Y-173682571D01*
X291869713Y-173682571D02*
X291917332Y-173730190D01*
X291917332Y-173730190D02*
X291964951Y-173825428D01*
X291964951Y-173825428D02*
X291964951Y-174111142D01*
X291964951Y-174111142D02*
X291917332Y-174206380D01*
X291917332Y-174206380D02*
X291869713Y-174254000D01*
X291869713Y-174254000D02*
X291774475Y-174301619D01*
X291774475Y-174301619D02*
X291631618Y-174301619D01*
X292250666Y-173634952D02*
X292631618Y-173634952D01*
X292393523Y-173301619D02*
X292393523Y-174158761D01*
X292393523Y-174158761D02*
X292441142Y-174254000D01*
X292441142Y-174254000D02*
X292536380Y-174301619D01*
X292536380Y-174301619D02*
X292631618Y-174301619D01*
X293107809Y-174301619D02*
X293012571Y-174254000D01*
X293012571Y-174254000D02*
X292964952Y-174206380D01*
X292964952Y-174206380D02*
X292917333Y-174111142D01*
X292917333Y-174111142D02*
X292917333Y-173825428D01*
X292917333Y-173825428D02*
X292964952Y-173730190D01*
X292964952Y-173730190D02*
X293012571Y-173682571D01*
X293012571Y-173682571D02*
X293107809Y-173634952D01*
X293107809Y-173634952D02*
X293250666Y-173634952D01*
X293250666Y-173634952D02*
X293345904Y-173682571D01*
X293345904Y-173682571D02*
X293393523Y-173730190D01*
X293393523Y-173730190D02*
X293441142Y-173825428D01*
X293441142Y-173825428D02*
X293441142Y-174111142D01*
X293441142Y-174111142D02*
X293393523Y-174206380D01*
X293393523Y-174206380D02*
X293345904Y-174254000D01*
X293345904Y-174254000D02*
X293250666Y-174301619D01*
X293250666Y-174301619D02*
X293107809Y-174301619D01*
X293869714Y-174301619D02*
X293869714Y-173634952D01*
X293869714Y-173825428D02*
X293917333Y-173730190D01*
X293917333Y-173730190D02*
X293964952Y-173682571D01*
X293964952Y-173682571D02*
X294060190Y-173634952D01*
X294060190Y-173634952D02*
X294155428Y-173634952D01*
%TO.C,R6*%
X259217333Y-114366619D02*
X258884000Y-113890428D01*
X258645905Y-114366619D02*
X258645905Y-113366619D01*
X258645905Y-113366619D02*
X259026857Y-113366619D01*
X259026857Y-113366619D02*
X259122095Y-113414238D01*
X259122095Y-113414238D02*
X259169714Y-113461857D01*
X259169714Y-113461857D02*
X259217333Y-113557095D01*
X259217333Y-113557095D02*
X259217333Y-113699952D01*
X259217333Y-113699952D02*
X259169714Y-113795190D01*
X259169714Y-113795190D02*
X259122095Y-113842809D01*
X259122095Y-113842809D02*
X259026857Y-113890428D01*
X259026857Y-113890428D02*
X258645905Y-113890428D01*
X260074476Y-113366619D02*
X259884000Y-113366619D01*
X259884000Y-113366619D02*
X259788762Y-113414238D01*
X259788762Y-113414238D02*
X259741143Y-113461857D01*
X259741143Y-113461857D02*
X259645905Y-113604714D01*
X259645905Y-113604714D02*
X259598286Y-113795190D01*
X259598286Y-113795190D02*
X259598286Y-114176142D01*
X259598286Y-114176142D02*
X259645905Y-114271380D01*
X259645905Y-114271380D02*
X259693524Y-114319000D01*
X259693524Y-114319000D02*
X259788762Y-114366619D01*
X259788762Y-114366619D02*
X259979238Y-114366619D01*
X259979238Y-114366619D02*
X260074476Y-114319000D01*
X260074476Y-114319000D02*
X260122095Y-114271380D01*
X260122095Y-114271380D02*
X260169714Y-114176142D01*
X260169714Y-114176142D02*
X260169714Y-113938047D01*
X260169714Y-113938047D02*
X260122095Y-113842809D01*
X260122095Y-113842809D02*
X260074476Y-113795190D01*
X260074476Y-113795190D02*
X259979238Y-113747571D01*
X259979238Y-113747571D02*
X259788762Y-113747571D01*
X259788762Y-113747571D02*
X259693524Y-113795190D01*
X259693524Y-113795190D02*
X259645905Y-113842809D01*
X259645905Y-113842809D02*
X259598286Y-113938047D01*
X258788761Y-118206619D02*
X258217333Y-118206619D01*
X258503047Y-118206619D02*
X258503047Y-117206619D01*
X258503047Y-117206619D02*
X258407809Y-117349476D01*
X258407809Y-117349476D02*
X258312571Y-117444714D01*
X258312571Y-117444714D02*
X258217333Y-117492333D01*
X259693523Y-117206619D02*
X259217333Y-117206619D01*
X259217333Y-117206619D02*
X259169714Y-117682809D01*
X259169714Y-117682809D02*
X259217333Y-117635190D01*
X259217333Y-117635190D02*
X259312571Y-117587571D01*
X259312571Y-117587571D02*
X259550666Y-117587571D01*
X259550666Y-117587571D02*
X259645904Y-117635190D01*
X259645904Y-117635190D02*
X259693523Y-117682809D01*
X259693523Y-117682809D02*
X259741142Y-117778047D01*
X259741142Y-117778047D02*
X259741142Y-118016142D01*
X259741142Y-118016142D02*
X259693523Y-118111380D01*
X259693523Y-118111380D02*
X259645904Y-118159000D01*
X259645904Y-118159000D02*
X259550666Y-118206619D01*
X259550666Y-118206619D02*
X259312571Y-118206619D01*
X259312571Y-118206619D02*
X259217333Y-118159000D01*
X259217333Y-118159000D02*
X259169714Y-118111380D01*
X260169714Y-118206619D02*
X260169714Y-117206619D01*
X260264952Y-117825666D02*
X260550666Y-118206619D01*
X260550666Y-117539952D02*
X260169714Y-117920904D01*
%TO.C,J3*%
X215820666Y-62351619D02*
X215820666Y-63065904D01*
X215820666Y-63065904D02*
X215773047Y-63208761D01*
X215773047Y-63208761D02*
X215677809Y-63304000D01*
X215677809Y-63304000D02*
X215534952Y-63351619D01*
X215534952Y-63351619D02*
X215439714Y-63351619D01*
X216201619Y-62351619D02*
X216820666Y-62351619D01*
X216820666Y-62351619D02*
X216487333Y-62732571D01*
X216487333Y-62732571D02*
X216630190Y-62732571D01*
X216630190Y-62732571D02*
X216725428Y-62780190D01*
X216725428Y-62780190D02*
X216773047Y-62827809D01*
X216773047Y-62827809D02*
X216820666Y-62923047D01*
X216820666Y-62923047D02*
X216820666Y-63161142D01*
X216820666Y-63161142D02*
X216773047Y-63256380D01*
X216773047Y-63256380D02*
X216725428Y-63304000D01*
X216725428Y-63304000D02*
X216630190Y-63351619D01*
X216630190Y-63351619D02*
X216344476Y-63351619D01*
X216344476Y-63351619D02*
X216249238Y-63304000D01*
X216249238Y-63304000D02*
X216201619Y-63256380D01*
%TO.C,R3*%
X243723333Y-125034619D02*
X243390000Y-124558428D01*
X243151905Y-125034619D02*
X243151905Y-124034619D01*
X243151905Y-124034619D02*
X243532857Y-124034619D01*
X243532857Y-124034619D02*
X243628095Y-124082238D01*
X243628095Y-124082238D02*
X243675714Y-124129857D01*
X243675714Y-124129857D02*
X243723333Y-124225095D01*
X243723333Y-124225095D02*
X243723333Y-124367952D01*
X243723333Y-124367952D02*
X243675714Y-124463190D01*
X243675714Y-124463190D02*
X243628095Y-124510809D01*
X243628095Y-124510809D02*
X243532857Y-124558428D01*
X243532857Y-124558428D02*
X243151905Y-124558428D01*
X244056667Y-124034619D02*
X244675714Y-124034619D01*
X244675714Y-124034619D02*
X244342381Y-124415571D01*
X244342381Y-124415571D02*
X244485238Y-124415571D01*
X244485238Y-124415571D02*
X244580476Y-124463190D01*
X244580476Y-124463190D02*
X244628095Y-124510809D01*
X244628095Y-124510809D02*
X244675714Y-124606047D01*
X244675714Y-124606047D02*
X244675714Y-124844142D01*
X244675714Y-124844142D02*
X244628095Y-124939380D01*
X244628095Y-124939380D02*
X244580476Y-124987000D01*
X244580476Y-124987000D02*
X244485238Y-125034619D01*
X244485238Y-125034619D02*
X244199524Y-125034619D01*
X244199524Y-125034619D02*
X244104286Y-124987000D01*
X244104286Y-124987000D02*
X244056667Y-124939380D01*
X243294761Y-128874619D02*
X242723333Y-128874619D01*
X243009047Y-128874619D02*
X243009047Y-127874619D01*
X243009047Y-127874619D02*
X242913809Y-128017476D01*
X242913809Y-128017476D02*
X242818571Y-128112714D01*
X242818571Y-128112714D02*
X242723333Y-128160333D01*
X244199523Y-127874619D02*
X243723333Y-127874619D01*
X243723333Y-127874619D02*
X243675714Y-128350809D01*
X243675714Y-128350809D02*
X243723333Y-128303190D01*
X243723333Y-128303190D02*
X243818571Y-128255571D01*
X243818571Y-128255571D02*
X244056666Y-128255571D01*
X244056666Y-128255571D02*
X244151904Y-128303190D01*
X244151904Y-128303190D02*
X244199523Y-128350809D01*
X244199523Y-128350809D02*
X244247142Y-128446047D01*
X244247142Y-128446047D02*
X244247142Y-128684142D01*
X244247142Y-128684142D02*
X244199523Y-128779380D01*
X244199523Y-128779380D02*
X244151904Y-128827000D01*
X244151904Y-128827000D02*
X244056666Y-128874619D01*
X244056666Y-128874619D02*
X243818571Y-128874619D01*
X243818571Y-128874619D02*
X243723333Y-128827000D01*
X243723333Y-128827000D02*
X243675714Y-128779380D01*
X244675714Y-128874619D02*
X244675714Y-127874619D01*
X244770952Y-128493666D02*
X245056666Y-128874619D01*
X245056666Y-128207952D02*
X244675714Y-128588904D01*
%TO.C,J4*%
X215820666Y-56969619D02*
X215820666Y-57683904D01*
X215820666Y-57683904D02*
X215773047Y-57826761D01*
X215773047Y-57826761D02*
X215677809Y-57922000D01*
X215677809Y-57922000D02*
X215534952Y-57969619D01*
X215534952Y-57969619D02*
X215439714Y-57969619D01*
X216725428Y-57302952D02*
X216725428Y-57969619D01*
X216487333Y-56922000D02*
X216249238Y-57636285D01*
X216249238Y-57636285D02*
X216868285Y-57636285D01*
%TO.C,D1*%
X335326619Y-139137094D02*
X334326619Y-139137094D01*
X334326619Y-139137094D02*
X334326619Y-138898999D01*
X334326619Y-138898999D02*
X334374238Y-138756142D01*
X334374238Y-138756142D02*
X334469476Y-138660904D01*
X334469476Y-138660904D02*
X334564714Y-138613285D01*
X334564714Y-138613285D02*
X334755190Y-138565666D01*
X334755190Y-138565666D02*
X334898047Y-138565666D01*
X334898047Y-138565666D02*
X335088523Y-138613285D01*
X335088523Y-138613285D02*
X335183761Y-138660904D01*
X335183761Y-138660904D02*
X335279000Y-138756142D01*
X335279000Y-138756142D02*
X335326619Y-138898999D01*
X335326619Y-138898999D02*
X335326619Y-139137094D01*
X335326619Y-137613285D02*
X335326619Y-138184713D01*
X335326619Y-137898999D02*
X334326619Y-137898999D01*
X334326619Y-137898999D02*
X334469476Y-137994237D01*
X334469476Y-137994237D02*
X334564714Y-138089475D01*
X334564714Y-138089475D02*
X334612333Y-138184713D01*
X341495142Y-142448619D02*
X341018952Y-142448619D01*
X341018952Y-142448619D02*
X341018952Y-141448619D01*
X341828476Y-141924809D02*
X342161809Y-141924809D01*
X342304666Y-142448619D02*
X341828476Y-142448619D01*
X341828476Y-142448619D02*
X341828476Y-141448619D01*
X341828476Y-141448619D02*
X342304666Y-141448619D01*
X342733238Y-142448619D02*
X342733238Y-141448619D01*
X342733238Y-141448619D02*
X342971333Y-141448619D01*
X342971333Y-141448619D02*
X343114190Y-141496238D01*
X343114190Y-141496238D02*
X343209428Y-141591476D01*
X343209428Y-141591476D02*
X343257047Y-141686714D01*
X343257047Y-141686714D02*
X343304666Y-141877190D01*
X343304666Y-141877190D02*
X343304666Y-142020047D01*
X343304666Y-142020047D02*
X343257047Y-142210523D01*
X343257047Y-142210523D02*
X343209428Y-142305761D01*
X343209428Y-142305761D02*
X343114190Y-142401000D01*
X343114190Y-142401000D02*
X342971333Y-142448619D01*
X342971333Y-142448619D02*
X342733238Y-142448619D01*
D12*
%TO.C,.2*%
X137354000Y-16323000D02*
X137354000Y-16443000D01*
X137354000Y-16443000D02*
X137924000Y-16443000D01*
X138684000Y-14988000D02*
X140014000Y-14988000D01*
X139444000Y-16443000D02*
X140014000Y-16443000D01*
X140014000Y-14988000D02*
X140014000Y-15748000D01*
X140014000Y-16323000D02*
X140014000Y-16443000D01*
%TO.C,R4*%
X248874000Y-123190000D02*
X249494000Y-123190000D01*
X248874000Y-123190000D02*
G75*
G03*
X248874000Y-123190000I-920000J0D01*
G01*
%TO.C,D6*%
X178054000Y-35122000D02*
X178054000Y-36142000D01*
X179524000Y-36142000D02*
X176584000Y-36142000D01*
X176584000Y-36142000D02*
X176584000Y-41582000D01*
X179524000Y-36922000D02*
X176584000Y-36922000D01*
X179524000Y-37042000D02*
X176584000Y-37042000D01*
X179524000Y-37162000D02*
X176584000Y-37162000D01*
X179524000Y-41582000D02*
X179524000Y-36142000D01*
X176584000Y-41582000D02*
X179524000Y-41582000D01*
X178054000Y-42602000D02*
X178054000Y-41582000D01*
%TO.C,U6*%
X33226000Y-60771000D02*
X50966000Y-60771000D01*
X33226000Y-60771000D02*
X33226000Y-40331000D01*
X50966000Y-60771000D02*
X50966000Y-40331000D01*
X50966000Y-59441000D02*
X55636000Y-59441000D01*
X50966000Y-58171000D02*
X53080000Y-58171000D01*
X50966000Y-56901000D02*
X55621000Y-56901000D01*
X50966000Y-55631000D02*
X53080000Y-55631000D01*
X50966000Y-54361000D02*
X55621000Y-54361000D01*
X50966000Y-53091000D02*
X53080000Y-53091000D01*
X50966000Y-51821000D02*
X55621000Y-51821000D01*
X50966000Y-50551000D02*
X53080000Y-50551000D01*
X50966000Y-49281000D02*
X55621000Y-49281000D01*
X50966000Y-48011000D02*
X53080000Y-48011000D01*
X50966000Y-46741000D02*
X55621000Y-46741000D01*
X50966000Y-45471000D02*
X53080000Y-45471000D01*
X50966000Y-44201000D02*
X55621000Y-44201000D01*
X50966000Y-42931000D02*
X53080000Y-42931000D01*
X50966000Y-41661000D02*
X55621000Y-41661000D01*
X33226000Y-40331000D02*
X50966000Y-40331000D01*
D13*
%TO.C,VR2*%
X131308000Y-218167000D02*
X141508000Y-218167000D01*
X131308000Y-222667000D02*
X131308000Y-218167000D01*
X141508000Y-218167000D02*
X141508000Y-222667000D01*
X141508000Y-222667000D02*
X131308000Y-222667000D01*
D14*
X130658000Y-221079500D02*
G75*
G03*
X130658000Y-221079500I-100000J0D01*
G01*
D12*
%TO.C,C2*%
X92952000Y-40968500D02*
X94452000Y-40968500D01*
X93562000Y-43168500D02*
X94702000Y-43168500D01*
X93702000Y-40218500D02*
X93702000Y-41718500D01*
X94702000Y-40798500D02*
X94702000Y-45538500D01*
X94702000Y-40798500D02*
X96202000Y-40798500D01*
X94702000Y-45538500D02*
X96202000Y-45538500D01*
X96202000Y-40798500D02*
X96952000Y-41548500D01*
X96202000Y-45538500D02*
X96952000Y-44788500D01*
X96952000Y-41548500D02*
X97702000Y-40798500D01*
X96952000Y-44788500D02*
X97702000Y-45538500D01*
X97702000Y-40798500D02*
X104942000Y-40798500D01*
X97702000Y-45538500D02*
X104942000Y-45538500D01*
X104942000Y-40798500D02*
X104942000Y-45538500D01*
X106082000Y-43168500D02*
X104942000Y-43168500D01*
%TO.C,C3*%
X145980000Y-193076000D02*
X145480000Y-193076000D01*
X145730000Y-193326000D02*
X145730000Y-192826000D01*
X145240000Y-192711563D02*
X145240000Y-192576000D01*
X145240000Y-192711563D02*
X144175563Y-193776000D01*
X145240000Y-190320437D02*
X145240000Y-190456000D01*
X145240000Y-190320437D02*
X144175563Y-189256000D01*
X144175563Y-193776000D02*
X140720000Y-193776000D01*
X144175563Y-189256000D02*
X140720000Y-189256000D01*
X140720000Y-193776000D02*
X140720000Y-192576000D01*
X140720000Y-189256000D02*
X140720000Y-190456000D01*
D13*
%TO.C,VR1*%
X166340000Y-19947500D02*
X176540000Y-19947500D01*
X166340000Y-24447500D02*
X166340000Y-19947500D01*
X176540000Y-19947500D02*
X176540000Y-24447500D01*
X176540000Y-24447500D02*
X166340000Y-24447500D01*
D14*
X165690000Y-22860000D02*
G75*
G03*
X165690000Y-22860000I-100000J0D01*
G01*
D15*
%TO.C,U2*%
X369062000Y-85344000D02*
X369062000Y-83185000D01*
X369062000Y-81915000D02*
X369062000Y-79756000D01*
X369062000Y-79756000D02*
X348742000Y-79756000D01*
X348742000Y-85344000D02*
X369062000Y-85344000D01*
X348742000Y-79756000D02*
X348742000Y-85344000D01*
X369062000Y-81915000D02*
G75*
G03*
X369062000Y-83185000I0J-635000D01*
G01*
D12*
%TO.C,D3*%
X147066000Y-73590000D02*
X147066000Y-72570000D01*
X145596000Y-72570000D02*
X148536000Y-72570000D01*
X148536000Y-72570000D02*
X148536000Y-67130000D01*
X145596000Y-71790000D02*
X148536000Y-71790000D01*
X145596000Y-71670000D02*
X148536000Y-71670000D01*
X145596000Y-71550000D02*
X148536000Y-71550000D01*
X145596000Y-67130000D02*
X145596000Y-72570000D01*
X148536000Y-67130000D02*
X145596000Y-67130000D01*
X147066000Y-66110000D02*
X147066000Y-67130000D01*
%TO.C,C4*%
X149050000Y-237272000D02*
X148550000Y-237272000D01*
X148800000Y-237522000D02*
X148800000Y-237022000D01*
X148310000Y-236907563D02*
X148310000Y-236772000D01*
X148310000Y-236907563D02*
X147245563Y-237972000D01*
X148310000Y-234516437D02*
X148310000Y-234652000D01*
X148310000Y-234516437D02*
X147245563Y-233452000D01*
X147245563Y-237972000D02*
X143790000Y-237972000D01*
X147245563Y-233452000D02*
X143790000Y-233452000D01*
X143790000Y-237972000D02*
X143790000Y-236772000D01*
X143790000Y-233452000D02*
X143790000Y-234652000D01*
%TO.C,J2*%
X281626000Y-172279000D02*
X281626000Y-172399000D01*
X281626000Y-172399000D02*
X282196000Y-172399000D01*
X282956000Y-170944000D02*
X284286000Y-170944000D01*
X283716000Y-172399000D02*
X284286000Y-172399000D01*
X284286000Y-170944000D02*
X284286000Y-171704000D01*
X284286000Y-172279000D02*
X284286000Y-172399000D01*
D16*
%TO.C,U3*%
X292838001Y-144919650D02*
X292838001Y-92269650D01*
X297468001Y-89769650D02*
X295338001Y-89769650D01*
X297468001Y-89769650D02*
X317828001Y-89769650D01*
X297523201Y-90113350D02*
X297523201Y-96532350D01*
X297523201Y-90113350D02*
X315763201Y-90113350D01*
X297523201Y-96532350D02*
X297143201Y-96532350D01*
X302274701Y-143736350D02*
X302274701Y-141916350D01*
X302274701Y-147336350D02*
X302274701Y-145996350D01*
X303594701Y-141016350D02*
X305344701Y-141016350D01*
X307834701Y-141016350D02*
X309584701Y-141016350D01*
X310904701Y-143736350D02*
X310904701Y-141916350D01*
X310904701Y-147276350D02*
X310904701Y-145996350D01*
X310904701Y-147466350D02*
X302274701Y-147466350D01*
X315763201Y-90113350D02*
X315763201Y-96532350D01*
X317818001Y-147409650D02*
X295298001Y-147409650D01*
X320318001Y-92259650D02*
X320318001Y-144909650D01*
X295338001Y-89769650D02*
G75*
G03*
X292838001Y-92269650I0J-2500000D01*
G01*
X292838001Y-144919650D02*
G75*
G03*
X295298015Y-147409469I2490000J0D01*
G01*
X320318001Y-92259650D02*
G75*
G03*
X317828001Y-89769650I-2490000J0D01*
G01*
X317818001Y-147409650D02*
G75*
G03*
X320318001Y-144909650I0J2500000D01*
G01*
D17*
X294498001Y-95309850D02*
G75*
G03*
X294498001Y-95309850I-250000J0D01*
G01*
D12*
%TO.C,Q1*%
X308080000Y-181428000D02*
X311680000Y-181428000D01*
X309880000Y-176978000D02*
G75*
G03*
X308041522Y-181416478I0J-2600000D01*
G01*
X311718478Y-181416478D02*
G75*
G03*
X309880000Y-176978000I-1838478J1838478D01*
G01*
%TO.C,RV1*%
X386054000Y-113506000D02*
X386054000Y-119746000D01*
X373054000Y-119746000D02*
X386054000Y-119746000D01*
X373054000Y-113506000D02*
X386054000Y-113506000D01*
X373054000Y-113006000D02*
X373054000Y-120246000D01*
X366054000Y-120246000D02*
X373054000Y-120246000D01*
X366054000Y-113006000D02*
X373054000Y-113006000D01*
X366054000Y-111756000D02*
X366054000Y-121496000D01*
X358759000Y-121496000D02*
X366054000Y-121496000D01*
X358759000Y-111756000D02*
X366054000Y-111756000D01*
X358759000Y-111756000D02*
X358759000Y-121496000D01*
%TO.C,D5*%
X162306000Y-35122000D02*
X162306000Y-36142000D01*
X163776000Y-36142000D02*
X160836000Y-36142000D01*
X160836000Y-36142000D02*
X160836000Y-41582000D01*
X163776000Y-36922000D02*
X160836000Y-36922000D01*
X163776000Y-37042000D02*
X160836000Y-37042000D01*
X163776000Y-37162000D02*
X160836000Y-37162000D01*
X163776000Y-41582000D02*
X163776000Y-36142000D01*
X160836000Y-41582000D02*
X163776000Y-41582000D01*
X162306000Y-42602000D02*
X162306000Y-41582000D01*
%TO.C,R7*%
X238156000Y-130556000D02*
X238776000Y-130556000D01*
X238156000Y-130556000D02*
G75*
G03*
X238156000Y-130556000I-920000J0D01*
G01*
%TO.C,BT4*%
X14202000Y-238602000D02*
X16702000Y-238602000D01*
X15452000Y-239852000D02*
X15452000Y-237352000D01*
X19312000Y-234162000D02*
X19312000Y-241162000D01*
X19312000Y-241162000D02*
X14952000Y-241162000D01*
X19312000Y-255042000D02*
X19312000Y-248042000D01*
X96592000Y-234162000D02*
X19312000Y-234162000D01*
X96592000Y-241162000D02*
X96592000Y-234182000D01*
X96592000Y-248042000D02*
X96592000Y-255042000D01*
X96592000Y-255042000D02*
X19312000Y-255042000D01*
X101702000Y-238602000D02*
X99202000Y-238602000D01*
%TO.C,D4*%
X147574000Y-35630000D02*
X147574000Y-36650000D01*
X149044000Y-36650000D02*
X146104000Y-36650000D01*
X146104000Y-36650000D02*
X146104000Y-42090000D01*
X149044000Y-37430000D02*
X146104000Y-37430000D01*
X149044000Y-37550000D02*
X146104000Y-37550000D01*
X149044000Y-37670000D02*
X146104000Y-37670000D01*
X149044000Y-42090000D02*
X149044000Y-36650000D01*
X146104000Y-42090000D02*
X149044000Y-42090000D01*
X147574000Y-43110000D02*
X147574000Y-42090000D01*
%TO.C,BT1*%
X14202000Y-170472000D02*
X16702000Y-170472000D01*
X15452000Y-171722000D02*
X15452000Y-169222000D01*
X19312000Y-166032000D02*
X19312000Y-173032000D01*
X19312000Y-173032000D02*
X14952000Y-173032000D01*
X19312000Y-186912000D02*
X19312000Y-179912000D01*
X96592000Y-166032000D02*
X19312000Y-166032000D01*
X96592000Y-173032000D02*
X96592000Y-166052000D01*
X96592000Y-179912000D02*
X96592000Y-186912000D01*
X96592000Y-186912000D02*
X19312000Y-186912000D01*
X101702000Y-170472000D02*
X99202000Y-170472000D01*
%TO.C,BT2*%
X14202000Y-193182000D02*
X16702000Y-193182000D01*
X15452000Y-194432000D02*
X15452000Y-191932000D01*
X19312000Y-188742000D02*
X19312000Y-195742000D01*
X19312000Y-195742000D02*
X14952000Y-195742000D01*
X19312000Y-209622000D02*
X19312000Y-202622000D01*
X96592000Y-188742000D02*
X19312000Y-188742000D01*
X96592000Y-195742000D02*
X96592000Y-188762000D01*
X96592000Y-202622000D02*
X96592000Y-209622000D01*
X96592000Y-209622000D02*
X19312000Y-209622000D01*
X101702000Y-193182000D02*
X99202000Y-193182000D01*
%TO.C,D9*%
X161290000Y-65602000D02*
X161290000Y-66622000D01*
X162760000Y-66622000D02*
X159820000Y-66622000D01*
X159820000Y-66622000D02*
X159820000Y-72062000D01*
X162760000Y-67402000D02*
X159820000Y-67402000D01*
X162760000Y-67522000D02*
X159820000Y-67522000D01*
X162760000Y-67642000D02*
X159820000Y-67642000D01*
X162760000Y-72062000D02*
X162760000Y-66622000D01*
X159820000Y-72062000D02*
X162760000Y-72062000D01*
X161290000Y-73082000D02*
X161290000Y-72062000D01*
%TO.C,J6*%
X185626000Y-21844000D02*
X185626000Y-23154000D01*
X185626000Y-21844000D02*
X186041000Y-21844000D01*
X185626000Y-23154000D02*
X187246000Y-23154000D01*
X186726000Y-20534000D02*
X187411000Y-20534000D01*
X187246000Y-22789898D02*
X187246000Y-23154000D01*
X187411000Y-20534000D02*
X187411000Y-21344000D01*
%TO.C,R5*%
X254208000Y-119634000D02*
X254828000Y-119634000D01*
X254208000Y-119634000D02*
G75*
G03*
X254208000Y-119634000I-920000J0D01*
G01*
D16*
%TO.C,D7*%
X158031000Y-16002000D02*
G75*
G03*
X158031000Y-16002000I-50000J0D01*
G01*
D13*
%TO.C,VR4*%
X197846000Y-164628000D02*
X208046000Y-164628000D01*
X197846000Y-169128000D02*
X197846000Y-164628000D01*
X208046000Y-164628000D02*
X208046000Y-169128000D01*
X208046000Y-169128000D02*
X197846000Y-169128000D01*
D14*
X197196000Y-167540500D02*
G75*
G03*
X197196000Y-167540500I-100000J0D01*
G01*
D12*
%TO.C,R2*%
X146766000Y-23114000D02*
X147386000Y-23114000D01*
X146766000Y-23114000D02*
G75*
G03*
X146766000Y-23114000I-920000J0D01*
G01*
%TO.C,U1*%
X398434000Y-60298000D02*
X398434000Y-16018000D01*
X398434000Y-16018000D02*
X276154000Y-16018000D01*
D10*
X390271000Y-52705000D02*
X390271000Y-19177000D01*
X389509000Y-53467000D02*
X389509000Y-52705000D01*
X389509000Y-52705000D02*
X390271000Y-52705000D01*
X389509000Y-19177000D02*
X390271000Y-19177000D01*
X389509000Y-18415000D02*
X389509000Y-19177000D01*
X389509000Y-18415000D02*
X285369000Y-18415000D01*
X388493000Y-52197000D02*
X388239000Y-51943000D01*
X388493000Y-19685000D02*
X388239000Y-19431000D01*
X388239000Y-52451000D02*
X388493000Y-52197000D01*
X388239000Y-51943000D02*
X286639000Y-51943000D01*
X388239000Y-19939000D02*
X388493000Y-19685000D01*
X388239000Y-19431000D02*
X286639000Y-19431000D01*
X386969000Y-47117000D02*
X386207000Y-47879000D01*
X386969000Y-24765000D02*
X386969000Y-47117000D01*
X386207000Y-47879000D02*
X288671000Y-47879000D01*
X386207000Y-24003000D02*
X386969000Y-24765000D01*
D12*
X321294000Y-60658000D02*
X319294000Y-60658000D01*
D10*
X288671000Y-47879000D02*
X287909000Y-47117000D01*
X288671000Y-24003000D02*
X386207000Y-24003000D01*
X287909000Y-47117000D02*
X287909000Y-24765000D01*
X287909000Y-24765000D02*
X288671000Y-24003000D01*
X286639000Y-52451000D02*
X388239000Y-52451000D01*
X286639000Y-52451000D02*
X286385000Y-52197000D01*
X286639000Y-19939000D02*
X388239000Y-19939000D01*
X286639000Y-19431000D02*
X286385000Y-19685000D01*
X286385000Y-52197000D02*
X286639000Y-51943000D01*
X286385000Y-19685000D02*
X286639000Y-19939000D01*
X285369000Y-53467000D02*
X389509000Y-53467000D01*
X285369000Y-53467000D02*
X285369000Y-52705000D01*
X285369000Y-52705000D02*
X284607000Y-52705000D01*
X285369000Y-19177000D02*
X285369000Y-18415000D01*
X284607000Y-19177000D02*
X285369000Y-19177000D01*
X284607000Y-19177000D02*
X284607000Y-52705000D01*
D12*
X276154000Y-60298000D02*
X398434000Y-60298000D01*
X276154000Y-60298000D02*
X276154000Y-16018000D01*
D13*
%TO.C,U4*%
X351507000Y-212238000D02*
X351507000Y-167238000D01*
X352707000Y-212238000D02*
X351507000Y-212238000D01*
X352707000Y-211238000D02*
X352707000Y-212238000D01*
X352707000Y-211238000D02*
X366507000Y-211238000D01*
X366507000Y-211238000D02*
X366507000Y-195238000D01*
X352707000Y-195238000D02*
X352707000Y-211238000D01*
X352707000Y-195238000D02*
X366507000Y-195238000D01*
X352707000Y-184238000D02*
X352707000Y-195238000D01*
X352707000Y-184238000D02*
X366507000Y-184238000D01*
X366507000Y-184238000D02*
X366507000Y-168238000D01*
X352707000Y-168238000D02*
X352707000Y-184238000D01*
X352707000Y-168238000D02*
X366507000Y-168238000D01*
X351507000Y-167238000D02*
X352707000Y-167238000D01*
X352707000Y-167238000D02*
X352707000Y-168238000D01*
D12*
%TO.C,R8*%
X263048000Y-111506000D02*
X263668000Y-111506000D01*
X263048000Y-111506000D02*
G75*
G03*
X263048000Y-111506000I-920000J0D01*
G01*
%TO.C,D12*%
X176022000Y-73590000D02*
X176022000Y-72570000D01*
X174552000Y-72570000D02*
X177492000Y-72570000D01*
X177492000Y-72570000D02*
X177492000Y-67130000D01*
X174552000Y-71790000D02*
X177492000Y-71790000D01*
X174552000Y-71670000D02*
X177492000Y-71670000D01*
X174552000Y-71550000D02*
X177492000Y-71550000D01*
X174552000Y-67130000D02*
X174552000Y-72570000D01*
X177492000Y-67130000D02*
X174552000Y-67130000D01*
X176022000Y-66110000D02*
X176022000Y-67130000D01*
D13*
%TO.C,U5*%
X130292000Y-173109500D02*
X140492000Y-173109500D01*
X130292000Y-177609500D02*
X130292000Y-173109500D01*
X140492000Y-173109500D02*
X140492000Y-177609500D01*
X140492000Y-177609500D02*
X130292000Y-177609500D01*
D14*
X129642000Y-176022000D02*
G75*
G03*
X129642000Y-176022000I-100000J0D01*
G01*
D12*
%TO.C,D10*%
X191770000Y-42602000D02*
X191770000Y-41582000D01*
X190300000Y-41582000D02*
X193240000Y-41582000D01*
X193240000Y-41582000D02*
X193240000Y-36142000D01*
X190300000Y-40802000D02*
X193240000Y-40802000D01*
X190300000Y-40682000D02*
X193240000Y-40682000D01*
X190300000Y-40562000D02*
X193240000Y-40562000D01*
X190300000Y-36142000D02*
X190300000Y-41582000D01*
X193240000Y-36142000D02*
X190300000Y-36142000D01*
X191770000Y-35122000D02*
X191770000Y-36142000D01*
%TO.C,D11*%
X190246000Y-73082000D02*
X190246000Y-72062000D01*
X188776000Y-72062000D02*
X191716000Y-72062000D01*
X191716000Y-72062000D02*
X191716000Y-66622000D01*
X188776000Y-71282000D02*
X191716000Y-71282000D01*
X188776000Y-71162000D02*
X191716000Y-71162000D01*
X188776000Y-71042000D02*
X191716000Y-71042000D01*
X188776000Y-66622000D02*
X188776000Y-72062000D01*
X191716000Y-66622000D02*
X188776000Y-66622000D01*
X190246000Y-65602000D02*
X190246000Y-66622000D01*
%TO.C,R1*%
X311308000Y-166878000D02*
X311928000Y-166878000D01*
X311308000Y-166878000D02*
G75*
G03*
X311308000Y-166878000I-920000J0D01*
G01*
D13*
%TO.C,VR3*%
X131298000Y-241027000D02*
X141498000Y-241027000D01*
X131298000Y-245527000D02*
X131298000Y-241027000D01*
X141498000Y-241027000D02*
X141498000Y-245527000D01*
X141498000Y-245527000D02*
X131298000Y-245527000D01*
D14*
X130648000Y-243939500D02*
G75*
G03*
X130648000Y-243939500I-100000J0D01*
G01*
D12*
%TO.C,C1*%
X92832000Y-52918000D02*
X94332000Y-52918000D01*
X93442000Y-55118000D02*
X94582000Y-55118000D01*
X93582000Y-52168000D02*
X93582000Y-53668000D01*
X94582000Y-52748000D02*
X94582000Y-57488000D01*
X94582000Y-52748000D02*
X96082000Y-52748000D01*
X94582000Y-57488000D02*
X96082000Y-57488000D01*
X96082000Y-52748000D02*
X96832000Y-53498000D01*
X96082000Y-57488000D02*
X96832000Y-56738000D01*
X96832000Y-53498000D02*
X97582000Y-52748000D01*
X96832000Y-56738000D02*
X97582000Y-57488000D01*
X97582000Y-52748000D02*
X104822000Y-52748000D01*
X97582000Y-57488000D02*
X104822000Y-57488000D01*
X104822000Y-52748000D02*
X104822000Y-57488000D01*
X105962000Y-55118000D02*
X104822000Y-55118000D01*
%TO.C,BT3*%
X14202000Y-215892000D02*
X16702000Y-215892000D01*
X15452000Y-217142000D02*
X15452000Y-214642000D01*
X19312000Y-211452000D02*
X19312000Y-218452000D01*
X19312000Y-218452000D02*
X14952000Y-218452000D01*
X19312000Y-232332000D02*
X19312000Y-225332000D01*
X96592000Y-211452000D02*
X19312000Y-211452000D01*
X96592000Y-218452000D02*
X96592000Y-211472000D01*
X96592000Y-225332000D02*
X96592000Y-232332000D01*
X96592000Y-232332000D02*
X19312000Y-232332000D01*
X101702000Y-215892000D02*
X99202000Y-215892000D01*
%TO.C,.1*%
X144466000Y-16069000D02*
X144466000Y-16189000D01*
X144466000Y-16189000D02*
X145036000Y-16189000D01*
X145796000Y-14734000D02*
X147126000Y-14734000D01*
X146556000Y-16189000D02*
X147126000Y-16189000D01*
X147126000Y-14734000D02*
X147126000Y-15494000D01*
X147126000Y-16069000D02*
X147126000Y-16189000D01*
%TO.C,C7*%
X145770000Y-213650000D02*
X145270000Y-213650000D01*
X145520000Y-213900000D02*
X145520000Y-213400000D01*
X145030000Y-213285563D02*
X145030000Y-213150000D01*
X145030000Y-213285563D02*
X143965563Y-214350000D01*
X145030000Y-210894437D02*
X145030000Y-211030000D01*
X145030000Y-210894437D02*
X143965563Y-209830000D01*
X143965563Y-214350000D02*
X140510000Y-214350000D01*
X143965563Y-209830000D02*
X140510000Y-209830000D01*
X140510000Y-214350000D02*
X140510000Y-213150000D01*
X140510000Y-209830000D02*
X140510000Y-211030000D01*
%TO.C,C5*%
X197914000Y-152872000D02*
X198414000Y-152872000D01*
X198164000Y-152622000D02*
X198164000Y-153122000D01*
X198654000Y-153236437D02*
X198654000Y-153372000D01*
X198654000Y-153236437D02*
X199718437Y-152172000D01*
X198654000Y-155627563D02*
X198654000Y-155492000D01*
X198654000Y-155627563D02*
X199718437Y-156692000D01*
X199718437Y-152172000D02*
X203174000Y-152172000D01*
X199718437Y-156692000D02*
X203174000Y-156692000D01*
X203174000Y-152172000D02*
X203174000Y-153372000D01*
X203174000Y-156692000D02*
X203174000Y-155492000D01*
%TO.C,J1*%
X289754000Y-172279000D02*
X289754000Y-172399000D01*
X289754000Y-172399000D02*
X290324000Y-172399000D01*
X291084000Y-170944000D02*
X292414000Y-170944000D01*
X291844000Y-172399000D02*
X292414000Y-172399000D01*
X292414000Y-170944000D02*
X292414000Y-171704000D01*
X292414000Y-172279000D02*
X292414000Y-172399000D01*
%TO.C,R6*%
X259034000Y-115824000D02*
X259654000Y-115824000D01*
X259034000Y-115824000D02*
G75*
G03*
X259034000Y-115824000I-920000J0D01*
G01*
%TO.C,J3*%
X214824000Y-65659000D02*
X214824000Y-66989000D01*
X214824000Y-65659000D02*
X215394000Y-65659000D01*
X214824000Y-66989000D02*
X215846470Y-66989000D01*
X216154000Y-64264000D02*
X217484000Y-64264000D01*
X216461530Y-66989000D02*
X217484000Y-66989000D01*
X216914000Y-65659000D02*
X217484000Y-65659000D01*
X217484000Y-64264000D02*
X217484000Y-65024000D01*
X217484000Y-65659000D02*
X217484000Y-66989000D01*
%TO.C,R3*%
X243540000Y-126492000D02*
X244160000Y-126492000D01*
X243540000Y-126492000D02*
G75*
G03*
X243540000Y-126492000I-920000J0D01*
G01*
%TO.C,J4*%
X217484000Y-54737000D02*
X217484000Y-53407000D01*
X217484000Y-54737000D02*
X216914000Y-54737000D01*
X217484000Y-53407000D02*
X216461530Y-53407000D01*
X216154000Y-56132000D02*
X214824000Y-56132000D01*
X215846470Y-53407000D02*
X214824000Y-53407000D01*
X215394000Y-54737000D02*
X214824000Y-54737000D01*
X214824000Y-56132000D02*
X214824000Y-55372000D01*
X214824000Y-54737000D02*
X214824000Y-53407000D01*
%TO.C,D1*%
X338034000Y-139959000D02*
X341894000Y-139959000D01*
X338034000Y-139959000D02*
X338034000Y-136839000D01*
X337904000Y-139669000D02*
X337904000Y-139669000D01*
X337904000Y-139669000D02*
X338034000Y-139669000D01*
X338034000Y-139669000D02*
X337904000Y-139669000D01*
X338034000Y-139669000D02*
X338034000Y-139669000D01*
X337904000Y-137129000D02*
X337904000Y-137129000D01*
X337904000Y-137129000D02*
X338034000Y-137129000D01*
X338034000Y-137129000D02*
X337904000Y-137129000D01*
X338034000Y-137129000D02*
X338034000Y-137129000D01*
X338034000Y-136839000D02*
X341894000Y-136839000D01*
X338034000Y-136839000D02*
X338034000Y-136439000D01*
X339154000Y-136839000D02*
X338034000Y-136839000D01*
X338034000Y-136439000D02*
X339154000Y-136439000D01*
X339154000Y-136439000D02*
X339154000Y-136839000D01*
X341894000Y-139959000D02*
G75*
G03*
X341894000Y-136839000I0J1560000D01*
G01*
%TD*%
M02*
